<svg xmlns="http://www.w3.org/2000/svg" width="46" height="182" fill="none" viewBox="0 0 46 182"><g filter="url(#a)"><path fill="#0b3048" d="M23.52 174.3c-4.33-49.19-2.2-96.59 4.37-145.8L11.95 48.47c-1.03 1.3-5.46 1-6.66-.22-1.2-1.2-1.83-4.72-.68-6.23L32.5 5.67c.95-1.23 4.12-2 5.5-1.54 1.84.61 3.52 3.41 3.06 6.03a638 638 0 0 0-7.85 162.8c.2 2.51-2.35 4.44-4.18 4.8-1.52.3-5.28-.6-5.53-3.45z"/></g><defs><filter id="a" width="45.14" height="181.81" x="0" y="0" color-interpolation-filters="sRGB" filterUnits="userSpaceOnUse"><feFlood flood-opacity="0" result="BackgroundImageFix"/><feBlend in="SourceGraphic" in2="BackgroundImageFix" result="shape"/><feTurbulence baseFrequency="0.031746033579111099 0.031746033579111099" numOctaves="3" seed="640" type="fractalNoise"/><feDisplacementMap width="100%" height="100%" in="shape" result="displacedImage" scale="8" xChannelSelector="R" yChannelSelector="G"/><feMerge result="effect1_texture_1556_383"><feMergeNode in="displacedImage"/></feMerge></filter></defs></svg>