<svg xmlns="http://www.w3.org/2000/svg" width="140" height="182" fill="none" viewBox="0 0 140 182"><g filter="url(#a)"><path fill="#e53914" d="M6.15 168.69c30.73-24.37 61.5-50.43 74.81-87.46 7.75-21.56 10.8-58.74-9.34-65.71C51.5 8.55 34.38 25.94 24.37 44.5a5.5 5.5 0 0 1-7.44 2.2c-2.52-1.5-2.6-5.11-1.08-7.71C27.18 19.7 42.28 2.27 65.96 4.14c14.46 1.14 25.21 10.7 28.46 24.79 4.35 18.83 2.4 37.86-4.35 56.1C77.94 118.9 52.91 142.96 25.68 166l103.33-11.87c3.34-.38 5.65.6 6.64 3.86.56 1.86-1.03 5.44-4.02 5.78L9.71 177.8c-2.13.25-4.75-1.3-5.39-2.74-.8-1.8-.07-4.86 1.84-6.38"/></g><defs><filter id="a" width="139.76" height="181.82" x="0" y="0" color-interpolation-filters="sRGB" filterUnits="userSpaceOnUse"><feFlood flood-opacity="0" result="BackgroundImageFix"/><feBlend in="SourceGraphic" in2="BackgroundImageFix" result="shape"/><feTurbulence baseFrequency="0.031746033579111099 0.031746033579111099" numOctaves="3" seed="640" type="fractalNoise"/><feDisplacementMap width="100%" height="100%" in="shape" result="displacedImage" scale="8" xChannelSelector="R" yChannelSelector="G"/><feMerge result="effect1_texture_1556_384"><feMergeNode in="displacedImage"/></feMerge></filter></defs></svg>