<svg xmlns="http://www.w3.org/2000/svg" width="123" height="182" fill="none" viewBox="0 0 123 182"><g filter="url(#a)"><path fill="#0b3048" d="M107.62 137.25c2.56-14.11-2.14-27.2-11.13-36.67a43.9 43.9 0 0 0-36.18-13.4c-3.4.36-6.07-1.41-6.3-4.54s2-5.04 5.44-5.44c18.57-2.2 37.26-7.92 44.2-25.62 6.13-15.65-5.06-28.04-20.95-32.76-14.16-4.21-28.9-5.94-43.44-3.85-9.07 1.3-16.7 5.97-21.73 13.32-6.43 9.4-.36 18.09-7.76 19.03-8.7 1.1-8.2-19.56 5.88-32.01C32.57.34 60.2 2.74 82.15 8.27c8.01 2 15.07 5.68 21.56 10.46 9.35 8.13 13.55 19.96 10.47 32.25-3.57 14.25-14.29 24.69-28.54 30.23 22.6 9.76 35.55 32.06 32.02 56.29a47.4 47.4 0 0 1-38.35 39.58c-10.16 1.8-20.33.7-30.06-1.81-17.26-4.48-30.49-16.58-37.18-32.98-1.05-2.58.3-5.76 2.46-6.6a5.2 5.2 0 0 1 6.58 2.68c9.51 21.94 29.61 31.48 53.37 29.4 16.15-1.42 30.15-14.06 33.14-30.51z"/></g><defs><filter id="a" width="122.24" height="181.97" x="0" y="0" color-interpolation-filters="sRGB" filterUnits="userSpaceOnUse"><feFlood flood-opacity="0" result="BackgroundImageFix"/><feBlend in="SourceGraphic" in2="BackgroundImageFix" result="shape"/><feTurbulence baseFrequency="0.031746033579111099 0.031746033579111099" numOctaves="3" seed="640" type="fractalNoise"/><feDisplacementMap width="100%" height="100%" in="shape" result="displacedImage" scale="8" xChannelSelector="R" yChannelSelector="G"/><feMerge result="effect1_texture_1556_381"><feMergeNode in="displacedImage"/></feMerge></filter></defs></svg>