<svg width="128" height="182" viewBox="0 0 128 182" fill="none" xmlns="http://www.w3.org/2000/svg">
<g filter="url(#filter0_g_1556_382)">
<path d="M117.849 129.259C120.889 129.109 123.219 131.439 123.519 133.669C123.789 135.729 121.719 138.979 119.299 139.109L76.1186 141.349L74.8186 173.689C74.7286 175.929 71.6786 177.989 69.8186 177.909C66.8686 177.789 64.8086 175.279 64.9386 172.159L66.1886 141.939L26.9386 143.649C19.7286 143.959 12.0386 141.559 7.76863 135.589C3.49863 129.619 2.88864 120.939 5.77864 113.469L46.6986 7.67875C47.7286 5.02875 50.4886 3.59875 52.5886 4.09875C55.3286 4.74875 57.2986 7.74875 56.1086 10.8288L16.1186 113.779C14.1786 118.779 13.9586 123.469 14.6486 128.649C17.4286 131.959 21.7186 134.109 26.3586 133.889L66.5886 131.929L68.0686 94.9288C68.1586 92.6788 71.0786 90.5488 72.7986 90.5588C75.8286 90.5788 78.0586 92.7788 77.9286 95.9788L76.5086 131.369L117.859 129.269L117.849 129.259Z" fill="#E53914"/>
</g>
<defs>
<filter id="filter0_g_1556_382" x="0" y="0" width="127.542" height="181.911" filterUnits="userSpaceOnUse" color-interpolation-filters="sRGB">
<feFlood flood-opacity="0" result="BackgroundImageFix"/>
<feBlend mode="normal" in="SourceGraphic" in2="BackgroundImageFix" result="shape"/>
<feTurbulence type="fractalNoise" baseFrequency="0.031746033579111099 0.031746033579111099" numOctaves="3" seed="640" />
<feDisplacementMap in="shape" scale="8" xChannelSelector="R" yChannelSelector="G" result="displacedImage" width="100%" height="100%" />
<feMerge result="effect1_texture_1556_382">
<feMergeNode in="displacedImage"/>
</feMerge>
</filter>
</defs>
</svg>
