<svg xmlns="http://www.w3.org/2000/svg" width="595" height="894" fill="none" viewBox="0 0 595 894"><path fill="#215272" fill-rule="evenodd" d="m390.9 805-229.72-29.07 9.8-80.32a195.3 195.3 0 0 0 109.88 51.83c43.19 5.44 84.85-3.54 119.94-23.34l-9.83 80.94z" clip-rule="evenodd"/><path fill="#e53914" fill-rule="evenodd" d="M280.8 747.4a195.3 195.3 0 0 1-109.88-51.82l10.26-84.77 229.79 28.84-10.24 84.42a194 194 0 0 1-119.94 23.34m63.6 440.9c-12.7-15.19-56.45-41.57-110.74-48.45-54.38-6.75-103.1 8.05-119.05 19.62L161.14 776l229.72 29.06-46.54 383.21z" clip-rule="evenodd"/><path fill="#215272" fill-rule="evenodd" d="M458.87 1202.65c-23.12-47.41-84.56-43.62-114.49-14.34l46.75-385.67 20.24-166.5 57.22 7.21 7.85.91 49.41 6.23-20.23 166.76c-1.72 14.17-3.41 28.44-5.2 42.57-13.92 114.29-27.73 228.56-41.65 342.85zM115.64 602.63 66.8 596.5 84 454.84l48.67 6.12a193 193 0 0 0-21.88 68.73 193 193 0 0 0 4.9 72.88z" clip-rule="evenodd"/><path fill="#f08011" fill-rule="evenodd" d="M498.24 578.76a193 193 0 0 1-22.1 69.05l-360.52-45.26a194 194 0 0 1-4.9-72.88 194 194 0 0 1 21.89-68.73l180.43 22.65.13.08 172.15 21.55 7.98 1a194 194 0 0 1 4.8 72.46z" clip-rule="evenodd"/><path fill="#482f1e" fill-rule="evenodd" d="m542.71 512.45-49.25-6.21-7.97-1-172.12-21.62-.13-.08-229.14-28.7.07-.4L97.3 346.7c2.75-22.53 20.75-41.36 48.92-54.98 5.89-2.81 12.2-5.45 18.97-7.8 40.53-14.32 95.8-19.85 155.81-13.39 2.83.35 5.64.6 8.53.98 3.23.42 6.36.87 9.59 1.3 3.2.3 6.43.73 9.6 1.11q4.52.54 9.08 1.24c59.8 8.65 112.09 27.73 147.95 51.84 5.96 3.92 11.5 8.1 16.48 12.3 23.77 20.09 36.54 42.72 33.8 65.08l-.77 6.1-12.38 101.98z" clip-rule="evenodd"/><path fill="#215272" fill-rule="evenodd" d="M114.6 1159.48c-22.14-35.56-80.75-54.41-114.45-14.41 13.83-113.72 27.58-227.32 41.37-340.98l5.16-42.5c6.7-55.08 13.35-110.1 20.11-165.14l48.85 6.13 65.58 8.17-66.65 548.63z" clip-rule="evenodd"/><path fill="#feeabf" fill-rule="evenodd" d="m344.38 1188.31-125.82 355.3 33.5 4.17q174.69-213.86 205.84-341.02l.6-4.8c-23.44-46.35-84.37-42.5-114.12-13.65" clip-rule="evenodd"/><path fill="#face8d" fill-rule="evenodd" d="m218.6 1543.57 125.82-355.3c-12.73-15.12-56.45-41.57-110.74-48.45-54.27-6.78-103.1 8.05-119.04 19.62l37 375.73 67 8.34z" clip-rule="evenodd"/><path fill="#f5be65" fill-rule="evenodd" d="m151.6 1535.23-37-375.73c-22-35.37-80.2-54.15-114-15-.15.25-.34.41-.56.62q-2.17 131.16 118 385.9l33.5 4.17z" clip-rule="evenodd"/><path fill="#595b51" fill-rule="evenodd" d="m218.59 1543.59-42.14 56.29c21.7 3.55 46.02-13.92 75.63-52.12z" clip-rule="evenodd"/><path fill="#33343a" fill-rule="evenodd" d="m176.4 1599.94 42.18-56.35-67-8.34z" clip-rule="evenodd"/><path fill="#0f1817" fill-rule="evenodd" d="m176.4 1599.94-24.81-64.7-33.5-4.17c18.82 42.57 37.42 65.47 58.34 68.97z" clip-rule="evenodd"/><path fill="#fbbe46" fill-rule="evenodd" d="M498.19 578.77a193 193 0 0 1-22.1 69.05l-294.91-37 17.16-141.58 114.72 14.4.13.08 180.17 22.48a194 194 0 0 1 4.8 72.46z" clip-rule="evenodd"/><path fill="#215272" fill-rule="evenodd" d="M470.37 653.67a193 193 0 0 0 23.85-72.13 193 193 0 0 0-5.7-75.89l54.16 6.8-17.98 148.03z" clip-rule="evenodd"/><path fill="#f08011" fill-rule="evenodd" d="m525.22 656.08-49.39-6.12-7.87-1.01-57.23-7.2L428.2 498.1l65.24 8.13a199 199 0 0 1 4.67 73.54 199 199 0 0 1-22.23 70.12l49.42 6.23z" clip-rule="evenodd"/><path fill="#3e2819" fill-rule="evenodd" d="M204.6 420.62c-.24 1.37-.43 2.67-.7 4.1l-5.46 44.54L84.06 454.9l.07-.4L96.5 352.96a71 71 0 0 1 10.21-5.71 70 70 0 0 1 72.38 9.04 70.1 70.1 0 0 1 26.24 58.01l-.04.07-.07.4c-.15.53-.18 1.13-.26 1.7l-.05.5-.21 1.48.06.04-.12.2q-.09 1-.07 1.82z" clip-rule="evenodd"/><path fill="#5f4230" fill-rule="evenodd" d="M327.88 363.82c-63.45-8-118.55 15.55-123.01 52.51a43 43 0 0 0-.15 8.38l-.85-.08-5.39 44.58 229.78 28.83 5.4-44.58-.91-.13q.97-2.83 1.5-5.83l.05-.06.05-.23.12-.2.03-.33.28-.45c.1-.57.12-1.18.16-1.68 2.85-36.37-44.48-71.78-106.92-79.67z" clip-rule="evenodd"/><path fill="#926f59" fill-rule="evenodd" d="m542.67 512.46-49.24-6.21-7.98-1-57.23-7.2 5.46-44.54c.06-1.38.19-2.73.3-4.18.2-.76.3-1.5.41-2.24.12-.19.15-.52.14-.8l.14-1.07c.09-.57.11-1.18.2-1.75l.07-.4a69 69 0 0 1 9.53-23.89 68 68 0 0 1 29.84-25.85 70 70 0 0 1 72.38 9.05 73 73 0 0 1 8.53 8.12l-12.38 101.97z" clip-rule="evenodd"/><path fill="#215272" d="m564.53 334.38-458.8-57.98-21.79 178.04 458.8 57.98z"/><path fill="#f08011" d="M566.57 301.53 111.46 244a14.7 14.7 0 0 0-16.47 12.78l-1.63 13.35a14.83 14.83 0 0 0 12.88 16.49l455.12 57.51a14.7 14.7 0 0 0 16.46-12.77l1.63-13.36a14.84 14.84 0 0 0-12.88-16.48"/><path fill="#f08011" fill-rule="evenodd" d="m516 835.71-1.62 13.43a14.67 14.67 0 0 1-16.4 12.7L42.83 804.3c-.4-.08-.84-.09-1.27-.27a14.77 14.77 0 0 1-11.6-16.2l1.61-13.43a14.7 14.7 0 0 1 15.15-12.86c.49-.06.89.02 1.33.03l455.14 57.56c.74.1 1.55.25 2.27.53a15 15 0 0 1 10.64 16.04z" clip-rule="evenodd"/><path fill="#215272" d="m528.07 632.42-88.33-11.17-5.7 46.67 88.32 11.16z"/><path fill="#fff" fill-rule="evenodd" d="M498.22 578.76a193 193 0 0 1-22.09 69.05 194.35 194.35 0 0 1-195.3 99.6 195.3 195.3 0 0 1-109.88-51.82 196.4 196.4 0 0 1-55.34-93.04 194 194 0 0 1-4.9-72.88 194 194 0 0 1 22.09-69.05 193 193 0 0 1 68.61-72.21 194 194 0 0 1 126.66-27.33 195.8 195.8 0 0 1 116.26 58.07 195.5 195.5 0 0 1 49.13 87.09 194 194 0 0 1 4.76 72.52" clip-rule="evenodd"/><path fill="#215272" d="M302.57 569.77a4.95 4.95 0 0 1-4.29-5.45l16.87-137.85a4.9 4.9 0 0 1 9.73 1.2l-16.87 137.85a4.9 4.9 0 0 1-5.44 4.25"/><path fill="#215272" d="M302.57 569.75 189 555.36a4.95 4.95 0 0 1-4.28-5.45 4.9 4.9 0 0 1 5.44-4.25l113.57 14.39c2.66.33 4.6 2.8 4.28 5.45a4.9 4.9 0 0 1-5.44 4.25"/><path fill="#e53914" d="m578.77 201.93-456.7-57.71-12.19 99.63 456.7 57.72z"/><path fill="#fff" d="m181.72 167.23-8.96-1.14a14.1 14.1 0 0 0-15.78 12.25l-5.16 42.17a14.23 14.23 0 0 0 12.35 15.8l8.95 1.14c7.78.98 14.84-4.5 15.79-12.25l5.16-42.17a14.23 14.23 0 0 0-12.35-15.8M267.38 178l-8.95-1.14a14.1 14.1 0 0 0-15.8 12.25l-5.15 42.17a14.23 14.23 0 0 0 12.35 15.8l8.96 1.13c7.77.99 14.83-4.5 15.78-12.25l5.16-42.16a14.2 14.2 0 0 0-12.35-15.8m85.58 10.82-8.95-1.13a14.1 14.1 0 0 0-15.79 12.25l-5.16 42.16a14.23 14.23 0 0 0 12.35 15.81l8.96 1.13a14.1 14.1 0 0 0 15.78-12.25l5.16-42.16a14.23 14.23 0 0 0-12.35-15.81m85.54 10.84-8.95-1.13a14.1 14.1 0 0 0-15.79 12.25l-5.15 42.16a14.23 14.23 0 0 0 12.35 15.8l8.95 1.14a14.1 14.1 0 0 0 15.79-12.25l5.16-42.17a14.23 14.23 0 0 0-12.36-15.8m85.7 10.9-8.95-1.13a14.1 14.1 0 0 0-15.78 12.25l-5.16 42.17a14.23 14.23 0 0 0 12.35 15.8l8.95 1.13c7.77.99 14.84-4.5 15.79-12.25l5.16-42.16a14.23 14.23 0 0 0-12.35-15.8"/><path fill="#215272" fill-rule="evenodd" d="m584.9 202.73-469.08-59.35a8.63 8.63 0 0 1-6.7-12.31l48.12-97.11A61.3 61.3 0 0 1 219.83.48l298.66 37.74a61.7 61.7 0 0 1 52.56 48.05l23.17 106.18a8.52 8.52 0 0 1-9.43 10.3z" clip-rule="evenodd"/></svg>