<?xml version="1.0" encoding="UTF-8"?>
<svg id="Layer_1" xmlns="http://www.w3.org/2000/svg" version="1.1" viewBox="0 0 162.3 162.28">
  <!-- Generator: Adobe Illustrator 30.6.0, SVG Export Plug-In . SVG Version: 2.1.4 Build 109)  -->
  <path d="M162.24,77.9c-11.71,4.86-20.35-1.7-25.84-10.12-9.77-1.82-20.23-4.38-26.44-12.29-7.13-9.05-7.85-19.28-6.45-30.25-7.97-4.91-13.37-13.9-9.7-24.22C46.67-6.45,4.43,28.08.33,73.68c-4.19,46.64,31.8,87.18,78.36,88.56,46.14,1.37,85.4-36.47,83.55-84.34ZM58,33.15c8.21,0,14.87,6.66,14.87,14.88s-6.66,14.87-14.87,14.87-14.87-6.66-14.87-14.87,6.66-14.88,14.87-14.88ZM64.6,122.52c-10.04,0-18.19-8.15-18.19-18.19s8.15-18.19,18.19-18.19,18.19,8.14,18.19,18.19-8.14,18.19-18.19,18.19ZM117.64,115.95c-2.73,0-4.94-2.22-4.94-4.95s2.21-4.95,4.94-4.95,4.95,2.22,4.95,4.95-2.21,4.95-4.95,4.95Z"/>
  <circle cx="134.18" cy="14.89" r="9.94"/>
  <circle cx="147.48" cy="48.02" r="6.63"/>
</svg>