<svg width="1351" height="1133" viewBox="0 0 1351 1133" fill="none" xmlns="http://www.w3.org/2000/svg">
<rect x="85" y="18" width="1114" height="943" rx="313" fill="#0040FF"/>
<g opacity="0.99">
<path d="M11.254 341.778L10.1099 342.696C4.52636 347.171 3.62887 355.325 8.10534 360.908L174.732 568.711C179.209 574.293 187.364 575.191 192.948 570.715L194.092 569.798C199.675 565.322 200.573 557.168 196.096 551.586L29.4693 343.783C24.9928 338.2 16.8376 337.303 11.254 341.778Z" fill="#AC3615"/>
</g>
<path d="M161.356 536.887C165.329 532.356 170.555 529.21 175.647 526.038L29.4575 343.776C25.0049 338.204 16.7929 337.298 11.2205 341.777L10.1007 342.683C4.52823 347.135 3.62171 355.346 8.10098 360.917L156.744 546.298C157.437 542.912 158.877 539.713 161.329 536.941L161.356 536.887Z" fill="#E53914"/>
<g opacity="0.99">
<path d="M299.563 405.108L156.027 520.166L190.933 563.698L334.469 448.64L299.563 405.108Z" fill="#AC3615"/>
</g>
<g opacity="0.99">
<path d="M319.73 447.903L192.124 550.217C188.098 553.442 182.206 552.802 178.98 548.777L79.4761 424.71L214.388 316.558L319.73 447.929V447.903Z" fill="#F8E9D5"/>
</g>
<mask id="mask0_1504_1349" style="mask-type:luminance" maskUnits="userSpaceOnUse" x="18" y="240" width="292" height="297">
<path d="M167.159 240L18.8179 358.91L161.546 536.908L309.887 417.998L167.159 240Z" fill="white"/>
</mask>
<g mask="url(#mask0_1504_1349)">
<path d="M166.228 238.825L15.8687 359.352L164.284 544.443L314.642 423.915L166.228 238.825Z" fill="#2D201B"/>
<path d="M166.228 238.825L15.8687 359.352L164.284 544.443L314.642 423.915L166.228 238.825Z" fill="#E53914"/>
<path d="M166.195 238.828L58.1895 325.405L206.604 510.495L314.61 423.918L166.195 238.828Z" fill="#75A5F3"/>
</g>
<path d="M243.609 483.971L242.916 483.118L306.852 431.854L307.546 432.707L243.609 483.971Z" fill="#2D201B"/>
<path d="M175.78 544.778L175.087 543.925L222.946 505.564L223.612 506.417L175.78 544.778Z" fill="#2D201B"/>
<path d="M159.463 525.824C159.037 525.824 158.637 525.638 158.37 525.291L27.3512 361.93C26.8713 361.317 26.9512 360.437 27.5645 359.931C28.1777 359.451 29.0576 359.531 29.5642 360.144L160.583 523.505C161.063 524.118 160.983 524.998 160.37 525.504C160.103 525.718 159.81 525.824 159.49 525.824H159.463Z" fill="#AC3615"/>
<path d="M177.162 328.449L99.6316 390.597C91.4286 397.172 90.1101 409.152 96.6867 417.353L143.451 475.674C150.028 483.875 162.009 485.194 170.212 478.618L247.742 416.47C255.945 409.895 257.263 397.916 250.687 389.714L203.922 331.393C197.346 323.192 185.365 321.873 177.162 328.449Z" fill="#F5F0EC"/>
<path d="M161.036 441.984L131.254 404.823L146.585 392.534C150.585 389.335 154.371 387.602 157.97 387.282C161.569 386.989 164.636 388.375 167.115 391.494C168.768 393.547 169.622 395.679 169.675 397.865C169.728 400.051 169.115 402.237 167.808 404.37C166.502 406.529 164.636 408.555 162.236 410.475L162.636 409.035C165.622 406.636 168.395 405.01 170.955 404.157C173.514 403.304 175.86 403.17 177.993 403.783C180.126 404.397 182.019 405.756 183.699 407.835C186.205 410.954 186.979 414.287 186.019 417.806C185.059 421.324 182.206 425.003 177.487 428.789L161.036 441.984ZM161.33 440.092L176.9 427.616C181.033 424.31 183.619 421.085 184.659 417.939C185.699 414.82 185.006 411.754 182.606 408.742C180.206 405.729 177.354 404.397 174.101 404.77C170.821 405.116 167.142 406.956 163.009 410.261L147.172 422.951L146.372 421.938L161.116 410.128C164.796 407.169 167.115 404.157 168.022 401.091C168.928 398.025 168.288 395.119 166.075 392.374C163.862 389.628 161.17 388.348 157.97 388.562C154.797 388.802 151.358 390.374 147.652 393.333L133.201 404.93L161.383 440.065L161.33 440.092Z" fill="#75A5F3"/>
<path d="M205.616 406.236L176.287 369.661H177.114L166.635 378.085L165.835 377.072L176.847 368.248L206.629 405.41L205.589 406.263L205.616 406.236Z" fill="#75A5F3"/>
<path d="M69.6108 386.589C65.4515 386.589 61.3188 384.776 58.5193 381.284L57.2661 379.711C52.3603 373.606 53.3468 364.649 59.4524 359.744L162.529 277.104C168.635 272.199 177.593 273.185 182.499 279.29L183.752 280.863C186.125 283.822 187.192 287.527 186.765 291.313C186.339 295.098 184.499 298.484 181.539 300.856L78.4627 383.497C75.8498 385.603 72.7036 386.616 69.5841 386.616L69.6108 386.589ZM171.408 276.064C168.741 276.064 166.048 276.944 163.809 278.73L60.7322 361.37C55.5064 365.556 54.6532 373.233 58.8659 378.458L60.119 380.031C64.305 385.256 71.9571 386.109 77.2096 381.897L180.286 299.257C182.819 297.231 184.392 294.352 184.739 291.099C185.085 287.874 184.179 284.702 182.153 282.169L180.899 280.596C178.5 277.61 174.98 276.064 171.408 276.064Z" fill="#F5F0EC"/>
<path d="M187.725 534.168C187.725 534.168 205.402 578.554 166.902 617.262L185.246 615.502L184.366 636.882C184.366 636.882 236.731 594.016 209.215 516.894L187.725 534.195V534.168Z" fill="#0B3048"/>
<mask id="mask1_1504_1349" style="mask-type:luminance" maskUnits="userSpaceOnUse" x="661" y="40" width="282" height="219">
<path d="M941.161 119.738C929.198 62.9536 861.014 29.2553 788.887 44.4382C716.749 59.6528 668.006 117.983 679.968 174.768C684.961 198.49 699.781 218.14 720.573 231.94C696.241 248.518 661.639 256.172 661.639 256.172C700.36 263.195 728.881 254.294 746.607 244.944C771.802 254.103 801.654 256.481 832.21 250.058C904.347 234.843 953.091 176.512 941.129 119.728L941.161 119.738Z" fill="white"/>
</mask>
<g mask="url(#mask1_1504_1349)">
<mask id="mask2_1504_1349" style="mask-type:luminance" maskUnits="userSpaceOnUse" x="678" y="40" width="265" height="214">
<path d="M832.259 250.039C904.394 234.833 953.161 176.478 941.185 119.699C929.208 62.9203 861.022 29.2187 788.886 44.4244C716.751 59.6301 667.984 117.985 679.96 174.764C691.937 231.543 760.123 265.244 832.259 250.039Z" fill="white"/>
</mask>
<g mask="url(#mask2_1504_1349)">
<path d="M832.259 250.039C904.394 234.833 953.161 176.478 941.185 119.699C929.208 62.9203 861.022 29.2187 788.886 44.4244C716.751 59.6301 667.984 117.985 679.96 174.764C691.937 231.543 760.123 265.244 832.259 250.039Z" fill="#0B3048"/>
<path d="M791.905 43.8541L818.825 171.551L689.103 198.88C712.697 240.651 771.045 262.958 832.241 250.068C904.379 234.853 953.123 176.523 941.161 119.738C929.358 63.7478 862.911 30.2393 791.905 43.8541Z" fill="#F5F0EC"/>
</g>
<path d="M661.671 256.183C661.671 256.183 728.438 241.405 741.701 208.438L768.228 229.617C768.228 229.617 731.58 268.888 661.681 256.151L661.671 256.183Z" fill="#F5F0EC"/>
<path d="M776.553 106.764C768.416 104.057 762.638 96.2752 762.844 87.2725C763.134 76.215 772.292 67.4724 783.351 67.7632C803.975 68.2715 823.532 56.4944 844.233 44.0389C847.05 42.364 849.835 40.6786 852.609 39.0249C892.222 15.6717 923.434 8.44287 947.591 16.6917C958.048 20.2767 963.616 31.6596 960.032 42.1151C956.468 52.507 945.19 58.0733 934.765 54.6047C934.67 54.573 934.543 54.5307 934.447 54.499C927.391 52.1513 910.072 51.5777 872.947 73.4998C870.268 75.0793 867.578 76.6906 864.878 78.3337C841.308 92.5171 814.635 108.598 782.358 107.778C780.324 107.737 778.364 107.367 776.521 106.754L776.553 106.764Z" fill="#E53914"/>
<path d="M792.588 172.21C784.451 169.503 778.673 161.722 778.879 152.719C779.169 141.661 788.327 132.919 799.385 133.209C820.01 133.718 839.567 121.941 860.268 109.485C863.085 107.81 865.87 106.125 868.644 104.471C908.257 81.118 939.406 73.868 963.626 82.1379C974.083 85.723 979.651 97.1058 976.066 107.561C972.482 118.017 961.183 123.541 950.641 119.998L950.482 119.945C943.426 117.598 926.107 117.024 888.982 138.946C886.303 140.526 883.613 142.137 880.913 143.78C857.343 157.963 830.669 174.044 798.393 173.224C796.359 173.183 794.399 172.813 792.556 172.2L792.588 172.21Z" fill="#E53914"/>
<path d="M679.41 250.719C670.701 247.821 664.859 239.171 665.839 229.649C666.955 218.655 676.822 210.643 687.808 211.791C740.022 217.198 786.643 220.108 828.536 201.254C840.365 195.942 851.854 189.423 864.031 182.532C893.786 165.676 924.537 148.269 962.776 147.085C965.667 146.988 968.273 147.008 970.805 147.144C981.843 147.71 990.354 157.143 989.789 168.179C989.224 179.216 979.791 187.725 968.753 187.159C967.334 187.075 965.777 187.087 964.029 187.14C935.704 188.024 910.481 202.292 883.808 217.42C871.366 224.47 858.532 231.742 844.998 237.829C794.093 260.743 739.655 257.456 683.711 251.691C682.207 251.544 680.798 251.216 679.431 250.761L679.41 250.719Z" fill="#E53914"/>
<path d="M780.057 -17.9404L818.867 170.894L671.077 203.613C671.077 203.613 624.083 40.435 780.067 -17.9722L780.057 -17.9404Z" fill="#0B3048"/>
</g>
<path d="M786.9 138.48L790.738 144.557L797.942 144.871L793.348 150.402L795.269 157.36L788.573 154.673L782.58 158.68L783.073 151.467L777.393 147L784.404 145.238L786.9 138.48Z" fill="#F5F0EC"/>
<path d="M749.512 145.066L753.339 151.175L760.553 151.457L755.917 157.009L757.881 163.946L751.185 161.259L745.192 165.266L745.643 158.074L740.005 153.586L746.984 151.814L749.512 145.066Z" fill="#F5F0EC"/>
<path d="M724.578 112.309L728.406 118.418L735.609 118.732L731.015 124.263L732.947 131.189L726.24 128.534L720.247 132.541L720.741 125.328L715.06 120.861L722.072 119.099L724.578 112.309Z" fill="#F5F0EC"/>
<path d="M762.463 104.653L766.291 110.762L773.505 111.045L768.9 116.607L770.864 123.544L764.157 120.889L758.143 124.853L758.626 117.672L752.945 113.205L759.957 111.443L762.463 104.653Z" fill="#F5F0EC"/>
<path d="M773.169 64.0933L777.028 70.2131L784.232 70.5271L779.606 76.0476L781.57 82.9839L774.863 80.3289L768.838 84.325L769.332 77.112L763.683 72.656L770.663 70.8836L773.169 64.0933Z" fill="#F5F0EC"/>
<path d="M731.706 76.7713L735.545 82.8487L742.748 83.1628L738.122 88.6833L740.075 95.6514L733.379 92.9646L727.386 96.9712L727.848 89.7477L722.199 85.2917L729.179 83.5193L731.706 76.7713Z" fill="#F5F0EC"/>
<path d="M711.542 153.823L715.37 159.932L722.584 160.215L717.958 165.735L719.912 172.703L713.215 170.017L707.222 174.023L707.673 166.831L702.035 162.344L709.015 160.571L711.542 153.823Z" fill="#F5F0EC"/>
<path d="M833.615 673.427L1053.61 701.631L915.575 599.824L833.615 673.427Z" fill="#F2D176"/>
<path d="M1053.61 702.511C1053.61 702.511 1053.39 702.511 1053.31 702.458L874.435 637.359C873.982 637.199 873.742 636.692 873.902 636.239C874.062 635.786 874.568 635.546 875.022 635.706L1017.48 687.556L881.447 631.014C880.994 630.827 880.781 630.321 880.967 629.868C881.154 629.414 881.661 629.228 882.114 629.388L1053.95 700.832C1054.38 701.018 1054.59 701.498 1054.43 701.951C1054.3 702.298 1053.98 702.511 1053.63 702.511H1053.61Z" fill="#190E09"/>
<path d="M540.283 228.422L555.507 236.499L572.704 235.087L564.625 250.335L566.012 267.53L550.788 259.425L533.59 260.838L541.669 245.617L540.283 228.422Z" fill="#F5F0EC"/>
<path d="M510.735 276.434L518.36 280.486L526.945 279.767L522.919 287.391L523.613 296.001L515.987 291.949L507.402 292.643L511.428 285.018L510.735 276.434Z" fill="#F5F0EC"/>
<path d="M408.746 376.659L414.692 387.562L425.57 393.507L414.692 399.452L408.746 410.328L402.774 399.452L391.895 393.507L402.774 387.562L408.746 376.659Z" fill="#F5F0EC"/>
<path d="M267.993 747.828L275.938 762.356L290.469 770.3L275.938 778.245L267.993 792.773L260.048 778.245L245.517 770.3L260.048 762.356L267.993 747.828Z" fill="#F5F0EC"/>
<path d="M141.396 632.889L147.261 643.632L158.006 649.497L147.261 655.389L141.396 666.132L135.503 655.389L124.758 649.497L135.503 643.632L141.396 632.889Z" fill="#F5F0EC"/>
<path d="M135.298 581.967L140.55 591.591L150.175 596.842L140.55 602.121L135.298 611.744L130.019 602.121L120.394 596.842L130.019 591.591L135.298 581.967Z" fill="#F5F0EC"/>
<path d="M915.046 729.312L920.165 738.695L929.523 743.814L920.165 748.932L915.046 758.316L909.9 748.932L900.541 743.814L909.9 738.695L915.046 729.312Z" fill="#F5F0EC"/>
<path d="M871.398 700.213L876.517 709.57L885.902 714.689L876.517 719.834L871.398 729.191L866.279 719.834L856.894 714.689L866.279 709.57L871.398 700.213Z" fill="#F5F0EC"/>
<path d="M97.9225 622.705L99.7622 626.037L103.095 627.876L99.7622 629.716L97.9225 633.048L96.0828 629.716L92.75 627.876L96.0828 626.037L97.9225 622.705Z" fill="#F5F0EC"/>
<path d="M573.902 276.434L577.341 282.752L583.66 286.191L577.341 289.63L573.902 295.948L570.463 289.63L564.144 286.191L570.463 282.752L573.902 276.434Z" fill="#F5F0EC"/>
<path d="M153.908 807.508C153.748 807.508 153.561 807.481 153.401 807.401C152.841 807.135 152.628 806.468 152.894 805.908L154.281 803.163C154.547 802.603 155.214 802.389 155.774 802.656C156.334 802.923 156.547 803.589 156.281 804.149L154.894 806.895C154.707 807.295 154.308 807.508 153.908 807.508Z" fill="#F5F0EC"/>
<path d="M160.679 793.699C160.519 793.699 160.359 793.672 160.199 793.592C159.64 793.326 159.4 792.659 159.666 792.099C160.546 790.26 161.373 788.394 162.199 786.528C162.439 785.968 163.106 785.728 163.666 785.968C164.225 786.208 164.492 786.874 164.225 787.434C163.399 789.327 162.546 791.193 161.666 793.059C161.479 793.459 161.079 793.699 160.653 793.699H160.679ZM167.772 776.718C167.772 776.718 167.532 776.718 167.398 776.664C166.812 776.451 166.518 775.838 166.705 775.252C167.372 773.332 168.011 771.413 168.598 769.467C168.758 768.88 169.398 768.534 169.984 768.72C170.571 768.907 170.918 769.52 170.731 770.107C170.144 772.079 169.505 774.052 168.811 775.998C168.651 776.451 168.225 776.744 167.772 776.744V776.718ZM172.437 758.91C172.437 758.91 172.331 758.91 172.251 758.91C171.638 758.803 171.238 758.244 171.318 757.631C171.451 756.751 171.584 755.844 171.718 754.938C171.851 753.845 171.984 752.725 172.064 751.606C172.117 750.993 172.651 750.539 173.264 750.593C173.877 750.646 174.33 751.179 174.277 751.792C174.197 752.939 174.064 754.085 173.931 755.231C173.824 756.164 173.691 757.071 173.531 757.977C173.451 758.537 172.971 758.91 172.437 758.91ZM157.453 745.368C156.893 745.368 156.413 744.941 156.333 744.381C156.28 743.768 156.707 743.235 157.32 743.155C159.24 742.942 161.186 742.515 163.052 741.876C163.639 741.689 164.279 741.982 164.465 742.569C164.652 743.155 164.359 743.795 163.772 743.982C161.719 744.675 159.64 745.155 157.533 745.368C157.48 745.368 157.453 745.368 157.427 745.368H157.453ZM145.508 743.368C145.322 743.368 145.162 743.315 145.002 743.235C143.109 742.222 141.429 740.916 140.043 739.316L140.763 738.437L141.722 737.85C142.922 739.236 144.389 740.383 146.042 741.262C146.575 741.556 146.788 742.222 146.495 742.755C146.308 743.128 145.908 743.342 145.508 743.342V743.368ZM173.024 740.543C172.464 740.543 171.984 740.116 171.904 739.53C171.691 737.53 171.398 735.504 170.998 733.558C170.864 732.945 171.264 732.359 171.878 732.252C172.491 732.119 173.077 732.519 173.184 733.132C173.317 733.825 173.451 734.545 173.584 735.264C174.81 734.091 176.01 732.838 177.21 731.399C177.61 730.919 178.303 730.866 178.783 731.266C179.263 731.665 179.316 732.359 178.916 732.838C177.477 734.545 176.064 736.037 174.597 737.397C174.41 737.557 174.197 737.664 173.957 737.69C174.037 738.223 174.091 738.783 174.144 739.343C174.197 739.956 173.771 740.489 173.157 740.569C173.131 740.569 173.077 740.569 173.051 740.569L173.024 740.543ZM136.443 728.253C135.857 728.253 135.377 727.8 135.323 727.24C135.27 726.387 135.217 725.534 135.217 724.681C135.217 723.428 135.27 722.175 135.403 720.922C135.457 720.309 136.017 719.856 136.603 719.909C137.216 719.963 137.67 720.522 137.616 721.136C137.51 722.335 137.43 723.508 137.43 724.681C137.43 725.481 137.456 726.281 137.51 727.08C137.563 727.693 137.11 728.227 136.497 728.28C136.47 728.28 136.443 728.28 136.417 728.28L136.443 728.253ZM185.102 723.162C184.915 723.162 184.702 723.108 184.515 723.002C183.982 722.682 183.822 721.989 184.142 721.482C185.209 719.749 186.249 717.99 187.262 716.23C187.582 715.697 188.248 715.511 188.781 715.831C189.315 716.15 189.501 716.817 189.181 717.35C188.142 719.109 187.102 720.896 186.035 722.655C185.822 723.002 185.449 723.188 185.075 723.188L185.102 723.162ZM168.411 722.788C167.985 722.788 167.585 722.548 167.398 722.122C166.572 720.256 165.639 718.47 164.625 716.817C164.305 716.284 164.465 715.617 164.999 715.297C165.532 714.978 166.198 715.137 166.518 715.671C167.585 717.43 168.571 719.296 169.425 721.242C169.665 721.802 169.425 722.468 168.865 722.708C168.705 722.762 168.571 722.815 168.411 722.815V722.788ZM138.896 710.072C138.896 710.072 138.71 710.072 138.603 710.046C138.016 709.886 137.67 709.273 137.83 708.686C138.416 706.554 139.163 704.368 140.709 702.715C141.136 702.262 141.829 702.262 142.282 702.661C142.736 703.088 142.762 703.781 142.336 704.234C141.136 705.514 140.496 707.407 139.989 709.246C139.856 709.753 139.403 710.072 138.923 710.072H138.896ZM157.826 707.86C157.56 707.86 157.293 707.753 157.08 707.567C156.52 707.06 155.933 706.554 155.347 706.074C154.414 705.327 153.427 704.661 152.361 704.101C151.827 703.808 151.614 703.141 151.907 702.582C152.201 702.048 152.867 701.835 153.401 702.128C154.574 702.741 155.693 703.488 156.733 704.341C157.373 704.847 157.986 705.381 158.573 705.914C159.026 706.34 159.053 707.033 158.653 707.487C158.44 707.727 158.12 707.86 157.826 707.86ZM194.621 707.407C194.407 707.407 194.221 707.353 194.034 707.22C193.527 706.9 193.367 706.207 193.687 705.674C194.78 703.941 195.9 702.208 197.047 700.502C197.393 699.996 198.087 699.862 198.593 700.182C199.1 700.502 199.233 701.222 198.913 701.728C197.793 703.435 196.674 705.141 195.58 706.847C195.367 707.193 195.02 707.353 194.647 707.353L194.621 707.407ZM204.966 692.158C204.752 692.158 204.512 692.078 204.326 691.945C203.819 691.598 203.712 690.879 204.086 690.399C205.285 688.746 206.512 687.093 207.765 685.44C208.138 684.96 208.832 684.854 209.311 685.227C209.791 685.6 209.898 686.293 209.525 686.773C208.298 688.399 207.072 690.025 205.872 691.678C205.659 691.971 205.312 692.131 204.966 692.131V692.158ZM216.244 677.576C216.004 677.576 215.737 677.496 215.524 677.31C215.044 676.91 214.991 676.217 215.364 675.737C216.67 674.164 218.003 672.591 219.337 671.018C219.736 670.538 220.43 670.485 220.91 670.885C221.39 671.285 221.443 671.978 221.043 672.458C219.71 674.004 218.403 675.577 217.097 677.15C216.884 677.416 216.564 677.549 216.244 677.549V677.576ZM228.375 663.714C228.108 663.714 227.842 663.607 227.628 663.421C227.175 662.994 227.149 662.301 227.575 661.848C228.962 660.355 230.401 658.862 231.814 657.369C232.241 656.916 232.961 656.916 233.388 657.369C233.841 657.796 233.841 658.489 233.388 658.942C231.974 660.408 230.561 661.901 229.175 663.394C228.962 663.634 228.668 663.741 228.348 663.741L228.375 663.714ZM241.333 650.625C241.04 650.625 240.746 650.518 240.533 650.278C240.106 649.825 240.133 649.132 240.56 648.705C242.053 647.292 243.546 645.88 245.066 644.493C245.519 644.067 246.212 644.12 246.639 644.573C247.065 645.027 247.012 645.72 246.559 646.146C245.066 647.532 243.573 648.919 242.079 650.332C241.866 650.545 241.6 650.651 241.306 650.651L241.333 650.625ZM255.037 638.309C254.717 638.309 254.397 638.175 254.184 637.909C253.784 637.429 253.838 636.736 254.318 636.336C255.891 635.003 257.464 633.697 259.063 632.417C259.543 632.044 260.237 632.097 260.636 632.577C261.036 633.057 260.956 633.75 260.477 634.15C258.903 635.43 257.33 636.736 255.757 638.042C255.544 638.229 255.304 638.309 255.037 638.309ZM269.488 626.846C269.142 626.846 268.822 626.686 268.582 626.393C268.209 625.886 268.315 625.193 268.822 624.846C270.475 623.62 272.128 622.394 273.808 621.221C274.314 620.874 275.007 620.981 275.354 621.487C275.701 621.994 275.594 622.687 275.087 623.034C273.434 624.233 271.781 625.433 270.155 626.632C269.968 626.792 269.728 626.846 269.488 626.846ZM284.579 616.289C284.206 616.289 283.859 616.102 283.646 615.783C283.299 615.276 283.459 614.583 283.966 614.236C285.699 613.117 287.405 611.997 289.165 610.904C289.698 610.584 290.365 610.744 290.712 611.251C291.032 611.784 290.872 612.45 290.365 612.797C288.632 613.89 286.926 614.983 285.219 616.103C285.033 616.236 284.819 616.289 284.606 616.289H284.579ZM300.283 606.665C299.883 606.665 299.51 606.452 299.324 606.106C299.03 605.573 299.217 604.879 299.75 604.586C301.537 603.573 303.323 602.56 305.136 601.574C305.669 601.281 306.362 601.467 306.656 602.027C306.949 602.56 306.736 603.253 306.202 603.546C304.416 604.506 302.63 605.519 300.87 606.532C300.683 606.639 300.497 606.692 300.31 606.692L300.283 606.665ZM316.574 598.055C316.147 598.055 315.774 597.815 315.561 597.415C315.294 596.855 315.534 596.189 316.068 595.922C317.907 595.043 319.774 594.163 321.667 593.31C322.226 593.07 322.893 593.31 323.133 593.87C323.4 594.429 323.133 595.096 322.573 595.336C320.707 596.189 318.867 597.042 317.027 597.922C316.867 598.002 316.707 598.028 316.547 598.028L316.574 598.055ZM333.478 590.724C333.025 590.724 332.598 590.457 332.438 590.004C332.225 589.418 332.518 588.778 333.078 588.565C334.998 587.845 336.944 587.125 338.89 586.459C339.477 586.272 340.117 586.565 340.304 587.152C340.49 587.738 340.197 588.378 339.61 588.565C337.691 589.231 335.771 589.898 333.878 590.644C333.745 590.697 333.611 590.724 333.478 590.724ZM351.022 585.126C350.515 585.126 350.062 584.779 349.955 584.299C349.795 583.713 350.169 583.1 350.755 582.94C352.755 582.433 354.781 581.953 356.781 581.527C357.394 581.394 357.981 581.793 358.114 582.38C358.247 582.993 357.847 583.58 357.261 583.686C355.288 584.113 353.288 584.566 351.315 585.072C351.208 585.072 351.128 585.099 351.048 585.099L351.022 585.126ZM393.655 582.06C393.655 582.06 393.548 582.06 393.495 582.06C391.522 581.767 389.496 581.554 387.469 581.42C386.856 581.367 386.403 580.834 386.429 580.221C386.483 579.607 387.016 579.128 387.629 579.208C389.709 579.368 391.789 579.581 393.815 579.874C394.428 579.954 394.855 580.514 394.748 581.127C394.668 581.687 394.188 582.087 393.655 582.087V582.06ZM369.126 581.767C368.566 581.767 368.086 581.34 368.032 580.78C367.979 580.167 368.406 579.607 369.019 579.554C371.072 579.341 373.152 579.154 375.205 579.048C375.871 579.048 376.351 579.474 376.378 580.114C376.404 580.727 375.924 581.26 375.311 581.287C373.285 581.394 371.259 581.554 369.259 581.767C369.206 581.767 369.179 581.767 369.126 581.767Z" fill="#F5F0EC"/>
<path d="M408.746 585.685C408.746 585.685 408.506 585.686 408.373 585.632C407.413 585.312 406.453 584.992 405.493 584.699C404.907 584.513 404.56 583.899 404.747 583.313C404.933 582.726 405.547 582.407 406.133 582.567C407.12 582.86 408.106 583.18 409.093 583.526C409.679 583.739 409.973 584.353 409.786 584.939C409.626 585.392 409.199 585.685 408.746 585.685Z" fill="#F5F0EC"/>
<path d="M872.521 637.414C872.521 637.414 872.281 637.414 872.174 637.36C870.388 636.774 868.628 636.001 866.948 635.015C866.415 634.695 866.228 634.028 866.548 633.495C866.841 632.962 867.535 632.775 868.068 633.095C869.614 633.975 871.241 634.695 872.867 635.255C873.454 635.441 873.774 636.081 873.587 636.667C873.427 637.147 873 637.44 872.521 637.44V637.414ZM858.309 627.07C857.989 627.07 857.643 626.937 857.43 626.644C856.15 625.018 854.977 623.232 853.937 621.366C853.644 620.832 853.83 620.139 854.363 619.846C854.897 619.553 855.563 619.739 855.883 620.273C856.87 622.059 857.99 623.712 859.189 625.258C859.563 625.738 859.483 626.431 859.003 626.831C858.789 626.991 858.549 627.07 858.309 627.07ZM850.604 610.436C850.097 610.436 849.618 610.089 849.511 609.556C849.084 607.557 848.738 605.451 848.524 603.345C848.471 602.732 848.924 602.198 849.538 602.118C850.097 602.092 850.684 602.492 850.764 603.131C850.977 605.157 851.271 607.183 851.697 609.103C851.831 609.716 851.457 610.302 850.844 610.436C850.764 610.436 850.684 610.436 850.604 610.436ZM849.618 592.042C849.618 592.042 849.564 592.042 849.538 592.042C848.924 591.988 848.471 591.455 848.524 590.842C848.684 588.869 848.898 586.843 849.218 584.657C849.298 584.044 849.884 583.618 850.471 583.724C851.084 583.804 851.511 584.364 851.404 584.977C851.111 587.11 850.871 589.083 850.711 591.029C850.657 591.615 850.177 592.042 849.591 592.042H849.618ZM852.577 573.807C852.577 573.807 852.417 573.807 852.337 573.781C851.751 573.648 851.351 573.061 851.484 572.448C851.937 570.422 852.417 568.423 852.924 566.423C853.084 565.837 853.697 565.463 854.283 565.623C854.87 565.783 855.243 566.37 855.083 566.983C854.577 568.956 854.097 570.955 853.644 572.954C853.537 573.461 853.057 573.834 852.55 573.834L852.577 573.807ZM857.43 555.973C857.43 555.973 857.216 555.973 857.083 555.92C856.496 555.733 856.177 555.094 856.363 554.507C857.003 552.534 857.643 550.588 858.336 548.642C858.549 548.056 859.163 547.762 859.749 547.976C860.336 548.189 860.629 548.802 860.416 549.389C859.749 551.308 859.083 553.254 858.469 555.2C858.309 555.68 857.883 555.973 857.403 555.973H857.43ZM782.348 550.695C781.815 550.695 781.362 550.322 781.255 549.788C781.149 549.175 781.549 548.616 782.135 548.482C784.081 548.109 786.054 547.629 787.974 547.016C788.561 546.829 789.201 547.149 789.361 547.736C789.547 548.322 789.227 548.935 788.641 549.122C786.641 549.762 784.588 550.268 782.535 550.642C782.455 550.642 782.402 550.642 782.322 550.642L782.348 550.695ZM799.572 544.19C799.199 544.19 798.826 544.004 798.612 543.63C798.293 543.097 798.479 542.404 799.012 542.111C800.719 541.098 802.425 540.005 804.078 538.805C804.558 538.432 805.278 538.539 805.625 539.045C805.998 539.552 805.865 540.245 805.385 540.591C803.678 541.818 801.919 542.991 800.132 544.03C799.946 544.137 799.759 544.19 799.572 544.19ZM874.2 543.497C872.147 543.497 870.041 543.337 867.935 543.071C867.321 542.991 866.895 542.431 866.975 541.844C867.055 541.231 867.668 540.778 868.201 540.885C870.228 541.125 872.254 541.285 874.227 541.285C874.84 541.285 875.347 541.791 875.32 542.404C875.32 543.017 874.813 543.497 874.2 543.497ZM886.412 542.111C885.905 542.111 885.452 541.764 885.345 541.285C885.185 540.698 885.558 540.085 886.145 539.925C888.091 539.419 890.011 538.779 891.824 538.032C892.384 537.792 893.05 538.059 893.29 538.619C893.53 539.179 893.29 539.845 892.704 540.085C890.784 540.885 888.758 541.578 886.705 542.084C886.598 542.084 886.518 542.111 886.438 542.111H886.412ZM856.043 540.378C856.043 540.378 855.803 540.378 855.697 540.325C853.75 539.685 851.777 538.939 849.831 538.112C849.271 537.872 849.004 537.206 849.244 536.646C849.484 536.086 850.151 535.82 850.711 536.06C852.577 536.859 854.497 537.579 856.39 538.192C856.976 538.379 857.296 539.019 857.11 539.605C856.95 540.085 856.523 540.378 856.043 540.378ZM863.829 538.645C863.695 538.645 863.535 538.619 863.402 538.565C862.842 538.326 862.575 537.686 862.815 537.099C863.615 535.207 864.442 533.314 865.295 531.421C865.562 530.861 866.228 530.621 866.761 530.861C867.321 531.128 867.561 531.768 867.321 532.327C866.468 534.194 865.668 536.06 864.868 537.952C864.682 538.379 864.282 538.645 863.855 538.645H863.829ZM902.542 533.5C902.249 533.5 901.956 533.394 901.742 533.154C901.316 532.701 901.342 532.008 901.796 531.581C903.235 530.221 904.569 528.729 905.795 527.156C906.168 526.676 906.862 526.569 907.342 526.943C907.821 527.316 907.928 528.009 907.555 528.489C906.275 530.168 904.835 531.768 903.315 533.207C903.102 533.42 902.836 533.5 902.542 533.5ZM813.943 532.674C813.677 532.674 813.383 532.567 813.17 532.381C812.717 531.954 812.69 531.261 813.117 530.808C814.477 529.342 815.81 527.796 817.063 526.223C817.436 525.743 818.156 525.663 818.636 526.036C819.116 526.409 819.196 527.129 818.823 527.609C817.516 529.262 816.156 530.861 814.743 532.354C814.53 532.594 814.237 532.701 813.943 532.701V532.674ZM839.406 532.407C839.193 532.407 838.979 532.354 838.793 532.221C837.006 531.074 835.3 529.848 833.7 528.569C833.22 528.195 833.14 527.476 833.513 526.996C833.887 526.516 834.607 526.436 835.087 526.809C836.633 528.035 838.286 529.208 840.019 530.328C840.526 530.648 840.686 531.341 840.339 531.874C840.126 532.194 839.779 532.381 839.406 532.381V532.407ZM871.721 521.931C871.534 521.931 871.374 521.877 871.214 521.797C870.681 521.504 870.468 520.838 870.761 520.305C871.721 518.465 872.707 516.652 873.747 514.866C874.04 514.333 874.733 514.147 875.267 514.44C875.8 514.733 875.987 515.426 875.693 515.959C874.68 517.745 873.694 519.532 872.76 521.344C872.574 521.718 872.174 521.931 871.774 521.931H871.721ZM825.621 520.225C825.302 520.225 824.982 520.091 824.768 519.798C823.435 518.145 822.209 516.413 821.116 514.653C820.796 514.12 820.955 513.453 821.489 513.134C822.022 512.814 822.689 512.974 823.009 513.507C823.382 514.12 823.782 514.733 824.182 515.32C824.982 513.8 825.755 512.227 826.448 510.654C826.688 510.095 827.354 509.828 827.914 510.095C828.474 510.361 828.741 511.001 828.474 511.561C827.621 513.453 826.688 515.346 825.701 517.159C825.675 517.212 825.621 517.266 825.595 517.319C825.888 517.692 826.155 518.065 826.475 518.412C826.875 518.892 826.795 519.585 826.315 519.985C826.101 520.145 825.861 520.225 825.621 520.225ZM912.327 518.039C912.327 518.039 912.114 518.039 911.981 517.985C911.394 517.799 911.074 517.186 911.261 516.599C911.874 514.68 912.274 512.734 912.514 510.788C912.594 510.175 913.127 509.721 913.74 509.801C914.354 509.881 914.78 510.414 914.727 511.028C914.487 513.107 914.06 515.186 913.394 517.266C913.234 517.745 912.807 518.039 912.327 518.039ZM881.079 505.989C880.866 505.989 880.652 505.936 880.466 505.803C879.959 505.483 879.799 504.79 880.146 504.256C881.159 502.71 882.172 501.164 883.239 499.618L883.612 499.085C883.959 498.578 884.652 498.472 885.158 498.818C885.665 499.165 885.772 499.858 885.425 500.364L885.078 500.871C884.039 502.39 883.025 503.91 882.039 505.456C881.826 505.776 881.479 505.963 881.106 505.963L881.079 505.989ZM816.983 504.017C816.503 504.017 816.076 503.723 815.916 503.243C815.303 501.297 814.77 499.245 814.37 497.165C814.263 496.552 814.637 495.966 815.25 495.859C815.863 495.726 816.45 496.126 816.556 496.739C816.956 498.738 817.463 500.711 818.049 502.604C818.236 503.19 817.916 503.803 817.329 503.99C817.223 504.016 817.116 504.043 817.009 504.043L816.983 504.017ZM831.647 500.631C831.647 500.631 831.434 500.631 831.354 500.578C830.767 500.418 830.421 499.805 830.581 499.191C831.114 497.299 831.62 495.299 832.047 493.273C832.18 492.687 832.767 492.287 833.38 492.42C833.993 492.553 834.367 493.14 834.233 493.753C833.78 495.806 833.274 497.858 832.74 499.804C832.607 500.284 832.154 500.604 831.674 500.604L831.647 500.631ZM912.221 499.911C911.767 499.911 911.341 499.645 911.181 499.191C910.941 498.525 910.648 497.858 910.354 497.219C909.794 496.046 909.155 494.979 908.461 494.046C908.088 493.54 908.195 492.847 908.675 492.5C909.155 492.127 909.874 492.234 910.221 492.713C910.994 493.753 911.714 494.953 912.327 496.259C912.674 496.979 912.967 497.699 913.234 498.418C913.447 499.005 913.154 499.645 912.567 499.858C912.434 499.911 912.301 499.938 912.194 499.938L912.221 499.911ZM893.05 492.074C892.704 492.074 892.331 491.887 892.117 491.567C891.771 491.061 891.904 490.368 892.437 490.021C894.49 488.661 896.517 487.808 898.516 487.462C899.103 487.355 899.689 487.782 899.796 488.368C899.903 488.955 899.476 489.541 898.89 489.648C897.21 489.941 895.45 490.661 893.69 491.86C893.504 491.994 893.29 492.047 893.077 492.047L893.05 492.074ZM814.183 485.809C813.57 485.809 813.09 485.329 813.063 484.716C813.063 484.076 813.063 483.436 813.063 482.823C813.063 481.384 813.09 479.944 813.17 478.505C813.17 477.892 813.597 477.358 814.343 477.438C814.956 477.438 815.436 477.998 815.41 478.611C815.356 480.024 815.303 481.437 815.303 482.85C815.303 483.463 815.303 484.076 815.303 484.716C815.303 485.329 814.823 485.836 814.21 485.862L814.183 485.809ZM835.007 482.477C835.007 482.477 834.927 482.477 834.9 482.477C834.287 482.423 833.833 481.864 833.887 481.25C834.1 479.224 834.233 477.198 834.34 475.172C834.367 474.559 834.9 474.133 835.513 474.106C836.126 474.133 836.606 474.666 836.58 475.279C836.473 477.358 836.34 479.411 836.126 481.49C836.073 482.077 835.593 482.503 835.007 482.503V482.477ZM815.463 467.388C815.463 467.388 815.356 467.388 815.303 467.388C814.69 467.308 814.263 466.748 814.37 466.135C814.663 464.083 814.983 462.057 815.356 460.004C815.463 459.391 816.05 458.991 816.636 459.098C817.249 459.204 817.649 459.791 817.543 460.377C817.196 462.376 816.876 464.403 816.583 466.429C816.503 466.988 816.023 467.388 815.49 467.388H815.463ZM835.513 464.003C834.927 464.003 834.42 463.523 834.393 462.936C834.313 460.884 834.207 458.858 834.047 456.832C833.993 456.218 834.473 455.685 835.06 455.632C835.726 455.579 836.206 456.059 836.26 456.645C836.42 458.698 836.526 460.777 836.606 462.83C836.606 463.443 836.153 463.949 835.54 463.976C835.54 463.976 835.513 463.976 835.486 463.976L835.513 464.003ZM818.849 449.207C818.849 449.207 818.689 449.207 818.609 449.207C817.996 449.074 817.623 448.488 817.756 447.874L818.529 444.436C818.716 443.556 818.956 442.623 819.249 441.743C819.462 441.157 820.076 440.863 820.662 441.05C821.249 441.263 821.542 441.876 821.355 442.463C821.089 443.263 820.875 444.089 820.716 444.915L819.969 448.328C819.862 448.861 819.382 449.207 818.876 449.207H818.849ZM833.46 445.662C832.98 445.662 832.554 445.369 832.394 444.889C831.94 443.476 831.354 442.33 830.581 441.397C830.261 441.023 829.914 440.65 829.487 440.33C829.008 439.957 828.901 439.264 829.301 438.757C829.701 438.251 830.367 438.198 830.874 438.571C831.434 438.997 831.914 439.477 832.34 440.01C833.274 441.183 833.993 442.569 834.527 444.222C834.713 444.809 834.393 445.422 833.807 445.609C833.7 445.635 833.593 445.662 833.46 445.662Z" fill="#F5F0EC"/>
<path d="M779.554 538.882C779.179 538.678 778.931 538.24 778.982 537.812C779.169 535.791 779.333 533.757 779.487 531.686C779.543 531.08 780.072 530.608 780.678 530.665C781.285 530.721 781.756 531.25 781.7 531.856C781.546 533.927 781.37 535.985 781.206 538.019C781.149 538.625 780.62 539.097 779.991 539.028C779.848 539.011 779.695 538.958 779.577 538.894L779.554 538.882ZM431.853 347.757C431.455 347.541 431.207 347.103 431.283 346.628C431.579 344.574 431.97 342.512 432.445 340.464C432.584 339.873 433.181 339.499 433.773 339.638C434.365 339.778 434.739 340.375 434.599 340.967C434.139 342.931 433.75 344.934 433.456 346.928C433.363 347.546 432.8 347.968 432.183 347.875C432.041 347.859 431.911 347.818 431.794 347.755L431.853 347.757ZM780.677 520.441C780.326 520.251 780.076 519.872 780.103 519.432C780.171 517.406 780.192 515.355 780.214 513.304C780.211 512.696 780.729 512.188 781.337 512.185C781.946 512.182 782.453 512.7 782.457 513.308C782.459 515.372 782.401 517.434 782.343 519.496C782.311 520.115 781.805 520.599 781.209 520.579C781.03 520.573 780.877 520.52 780.713 520.431L780.677 520.441ZM436.842 330.02C436.35 329.753 436.131 329.149 436.341 328.596C437.169 326.679 438.044 324.788 439.013 322.948C439.305 322.409 439.969 322.193 440.508 322.486C440.976 322.74 441.263 323.442 440.97 323.981C440.04 325.75 439.154 327.605 438.364 329.451C438.118 330.016 437.466 330.268 436.888 330.046C436.865 330.033 436.818 330.007 436.795 329.995L436.842 330.02ZM780.549 501.959C780.221 501.781 779.982 501.439 779.96 501.032C779.862 498.977 779.752 496.946 779.618 494.901C779.578 494.303 780.026 493.758 780.66 493.708C781.281 493.681 781.803 494.116 781.854 494.75C782.011 496.807 782.132 498.875 782.217 500.954C782.244 501.575 781.785 502.084 781.164 502.111C780.949 502.116 780.76 502.073 780.572 501.972L780.549 501.959ZM446.089 314.05C446.089 314.05 445.996 313.999 445.949 313.974C445.448 313.611 445.353 312.892 445.739 312.404C447 310.753 448.343 309.116 449.719 307.588C450.129 307.113 450.833 307.101 451.285 307.498C451.737 307.895 451.772 308.612 451.375 309.064C450.049 310.558 448.73 312.147 447.531 313.741C447.194 314.195 446.594 314.294 446.125 314.039L446.089 314.05ZM778.94 483.522C778.635 483.356 778.407 483.05 778.359 482.691C778.093 480.666 777.768 478.639 777.443 476.612C777.344 476.012 777.745 475.441 778.357 475.319C778.957 475.22 779.528 475.621 779.651 476.233C780 478.273 780.312 480.324 780.565 482.372C780.652 482.995 780.204 483.541 779.617 483.616C779.389 483.644 779.14 483.6 778.929 483.486L778.94 483.522ZM458.953 300.863C458.836 300.799 458.708 300.699 458.617 300.589C458.239 300.111 458.323 299.398 458.801 299.02C460.443 297.728 462.143 296.497 463.864 295.339C464.376 295.01 465.064 295.141 465.392 295.653C465.721 296.165 465.591 296.852 465.078 297.181C463.419 298.282 461.768 299.479 460.174 300.737C459.807 301.023 459.341 301.043 458.966 300.839L458.953 300.863ZM775.52 465.345C775.263 465.205 775.045 464.936 774.972 464.623C774.479 462.626 773.96 460.676 773.381 458.724C773.21 458.145 773.554 457.513 774.132 457.342C774.71 457.17 775.343 457.514 775.514 458.092C776.08 460.068 776.633 462.067 777.114 464.087C777.272 464.689 776.895 465.273 776.293 465.431C776.016 465.493 775.731 465.46 775.497 465.333L775.52 465.345ZM610.151 368.943C609.143 368.396 608.112 367.836 607.143 367.219C606.604 366.926 606.437 366.228 606.765 365.679C607.081 365.153 607.8 365.058 608.305 365.302C610.048 366.339 611.828 367.306 613.635 368.226C614.125 368.552 614.403 369.158 614.133 369.71C613.864 370.261 613.201 370.478 612.649 370.208C611.816 369.787 611.007 369.377 610.187 368.932L610.151 368.943ZM623.904 375.015C623.436 374.761 623.205 374.18 623.389 373.674C623.588 373.084 624.23 372.795 624.819 372.994C626.729 373.667 628.665 374.293 630.626 374.873C631.228 375.048 631.553 375.68 631.367 376.246C631.191 376.848 630.56 377.173 629.994 376.987C628.009 376.395 626.027 375.743 624.094 375.057C624.047 375.032 624 375.006 623.93 374.968L623.904 375.015ZM597.147 360.093C597.147 360.093 597.006 360.016 596.936 359.978C595.393 358.685 593.854 357.273 592.342 355.755C591.903 355.334 591.904 354.607 592.348 354.18C592.768 353.741 593.496 353.742 593.922 354.186C595.4 355.655 596.905 357.019 598.401 358.286C598.876 358.696 598.925 359.389 598.528 359.841C598.179 360.259 597.616 360.347 597.147 360.093ZM474.793 291.414C474.582 291.3 474.41 291.115 474.298 290.872C474.055 290.315 474.328 289.645 474.885 289.401C476.809 288.595 478.778 287.875 480.768 287.226C481.359 287.032 481.969 287.363 482.163 287.954C482.358 288.545 482.028 289.154 481.436 289.349C479.518 289.976 477.598 290.662 475.747 291.446C475.432 291.579 475.074 291.567 474.77 291.401L474.793 291.414ZM641.715 379.984C641.294 379.755 641.048 379.258 641.16 378.772C641.299 378.181 641.873 377.794 642.477 377.91C644.455 378.347 646.481 378.75 648.484 379.14C649.089 379.256 649.475 379.829 649.383 380.446C649.267 381.051 648.681 381.461 648.076 381.345C646.037 380.965 644.023 380.539 642.009 380.113C641.903 380.086 641.796 380.058 641.703 380.008L641.715 379.984ZM769.947 447.728C769.736 447.614 769.54 447.416 769.441 447.151C768.682 445.252 767.874 443.388 767.03 441.534C766.786 440.977 767.023 440.317 767.58 440.073C768.15 439.806 768.797 440.067 769.041 440.624C769.909 442.49 770.715 444.414 771.484 446.349C771.715 446.929 771.431 447.564 770.851 447.795C770.536 447.927 770.192 447.892 769.91 447.739L769.947 447.728ZM584.403 346.742C584.285 346.678 584.158 346.579 584.066 346.468C582.784 344.862 581.515 343.232 580.271 341.556C579.906 341.055 580 340.378 580.502 340.013C581.003 339.648 581.68 339.743 582.045 340.244C583.278 341.885 584.524 343.501 585.782 345.095C586.16 345.573 586.089 346.262 585.598 346.663C585.231 346.949 584.752 346.992 584.354 346.776L584.403 346.742ZM659.917 383.284C659.519 383.068 659.284 382.607 659.359 382.132C659.452 381.515 660.038 381.105 660.619 381.209C662.637 381.515 664.678 381.835 666.696 382.142C667.313 382.234 667.736 382.797 667.643 383.415C667.551 384.032 666.988 384.454 666.371 384.362C664.329 384.042 662.299 383.759 660.258 383.439C660.115 383.422 660.021 383.371 659.904 383.308L659.917 383.284ZM573.464 331.854C573.323 331.778 573.172 331.665 573.069 331.518L572.773 331.115C571.704 329.564 570.598 328.023 569.517 326.495C569.152 325.994 569.282 325.306 569.784 324.942C570.285 324.577 570.973 324.708 571.338 325.209C572.443 326.75 573.512 328.301 574.604 329.865L574.901 330.268C575.266 330.77 575.135 331.457 574.634 331.822C574.279 332.084 573.826 332.081 573.474 331.89L573.464 331.854ZM492.576 286.6C492.272 286.435 492.043 286.129 491.996 285.769C491.91 285.146 492.334 284.588 492.945 284.525C495.006 284.249 497.112 284.058 499.167 283.96C499.789 283.934 500.298 284.392 500.325 285.014C500.352 285.635 499.893 286.144 499.272 286.171C497.253 286.258 495.23 286.463 493.241 286.718C493.013 286.746 492.764 286.702 492.553 286.588L492.576 286.6ZM678.232 386.04C677.834 385.823 677.599 385.362 677.675 384.888C677.767 384.27 678.353 383.861 678.935 383.964C680.976 384.284 683.017 384.603 685.022 384.933C685.627 385.049 686.049 385.612 685.933 386.217C685.841 386.834 685.254 387.244 684.65 387.128C682.621 386.785 680.603 386.478 678.562 386.158C678.42 386.141 678.326 386.091 678.209 386.027L678.232 386.04ZM761.711 431.214C761.547 431.125 761.408 430.989 761.295 430.806C760.232 429.076 759.097 427.368 757.923 425.73C757.558 425.228 757.689 424.541 758.19 424.176C758.692 423.811 759.379 423.942 759.744 424.443C760.928 426.118 762.075 427.862 763.172 429.641C763.501 430.153 763.334 430.851 762.798 431.167C762.445 431.37 762.016 431.379 761.688 431.201L761.711 431.214ZM562.574 316.932C562.433 316.855 562.329 316.768 562.237 316.658C560.978 315.065 559.684 313.482 558.327 311.957C557.914 311.489 557.961 310.787 558.428 310.374C558.896 309.96 559.598 310.008 560.012 310.475C561.379 312.036 562.697 313.632 563.966 315.261C564.344 315.739 564.26 316.452 563.782 316.83C563.415 317.115 562.949 317.135 562.574 316.932ZM696.436 389.28C696.014 389.051 695.768 388.554 695.88 388.069C695.996 387.464 696.593 387.091 697.198 387.207C699.211 387.633 701.236 388.095 703.248 388.58C703.863 388.733 704.2 389.34 704.061 389.932C703.922 390.524 703.325 390.897 702.709 390.745C700.734 390.249 698.756 389.812 696.742 389.386C696.636 389.359 696.529 389.331 696.436 389.28ZM750.513 416.58C750.513 416.58 750.302 416.465 750.234 416.367C748.839 414.913 747.373 413.479 745.891 412.129C745.439 411.732 745.404 411.015 745.801 410.563C746.198 410.111 746.891 410.063 747.367 410.473C748.895 411.849 750.396 413.331 751.825 414.835C752.251 415.279 752.227 415.993 751.783 416.42C751.413 416.765 750.899 416.819 750.477 416.59L750.513 416.58ZM511.001 286.473C510.603 286.256 510.378 285.831 510.418 285.367C510.474 284.761 511.05 284.315 511.644 284.395C513.7 284.631 515.788 284.976 517.814 285.379C518.419 285.495 518.816 286.105 518.676 286.697C518.561 287.301 517.963 287.675 517.359 287.559C515.392 287.158 513.374 286.851 511.354 286.604C511.212 286.587 511.082 286.547 510.941 286.47L511.001 286.473ZM714.253 394.071C713.784 393.816 713.541 393.259 713.737 392.729C713.936 392.139 714.555 391.838 715.145 392.037C717.114 392.712 719.071 393.411 720.99 394.179C721.531 394.412 721.843 395.067 721.597 395.631C721.375 396.208 720.709 396.484 720.145 396.238C718.25 395.482 716.352 394.786 714.43 394.136C714.383 394.111 714.312 394.073 714.266 394.047L714.253 394.071ZM736.395 404.697C736.395 404.697 736.348 404.672 736.301 404.647L735.811 404.32C734.305 403.35 732.739 402.379 731.111 401.465C730.572 401.172 730.369 400.485 730.685 399.959C730.978 399.42 731.648 399.36 732.191 399.533C733.841 400.46 735.49 401.446 737.031 402.464L737.521 402.791C738.034 403.131 738.178 403.815 737.839 404.329C737.512 404.819 736.887 404.965 736.371 404.685L736.395 404.697ZM549.978 303.419C549.978 303.419 549.837 303.343 549.767 303.305C549.338 302.92 548.921 302.572 548.48 302.211C547.354 301.267 546.227 300.381 545.027 299.518C544.526 299.155 544.419 298.459 544.781 297.959C545.144 297.458 545.84 297.35 546.341 297.713C547.564 298.59 548.749 299.536 549.898 300.494C550.339 300.855 550.791 301.252 551.219 301.636C551.694 302.046 551.743 302.739 551.333 303.215C550.997 303.609 550.398 303.708 549.952 303.466L549.978 303.419ZM528.928 290.837C528.436 290.57 528.205 289.989 528.425 289.472C528.647 288.895 529.289 288.607 529.866 288.829C531.821 289.587 533.751 290.392 535.617 291.314C536.17 291.524 536.408 292.259 536.139 292.811C535.87 293.362 535.193 293.602 534.642 293.333C532.834 292.472 530.964 291.669 529.056 290.937C529.009 290.911 528.962 290.886 528.915 290.86L528.928 290.837Z" fill="#F5F0EC"/>
<path fill-rule="evenodd" clip-rule="evenodd" d="M649.623 569.648L497.92 623.479L478.879 570.548C505.636 578.542 535.068 578.352 563.302 568.348C591.814 558.211 614.866 539.601 630.459 516.336L649.676 569.653L649.623 569.648Z" fill="#0B3048"/>
<path fill-rule="evenodd" clip-rule="evenodd" d="M563.248 568.343C535.014 578.347 505.581 578.537 478.824 570.542L458.677 514.713L534.51 487.717L572.288 474.285L610.343 460.72L630.404 516.331C614.759 539.591 591.754 558.258 563.248 568.343Z" fill="#E53914"/>
<path fill-rule="evenodd" clip-rule="evenodd" d="M740.668 822.154C728.036 816.698 692.62 814.006 656.764 826.722C620.899 839.543 595.286 863.977 589.003 876.147L508.049 651.635L497.914 623.53L649.617 569.699L659.752 597.804L740.615 822.149L740.668 822.154Z" fill="#E53914"/>
<path fill-rule="evenodd" clip-rule="evenodd" d="M816.229 795.239C787.042 773.044 750.09 794.62 740.669 822.155L659.25 596.387L649.025 568.115L629.685 514.418L609.5 458.427L647.277 444.995L652.436 443.106L685.06 431.51C698.265 468.129 711.47 504.747 724.675 541.366C728.039 550.697 731.451 560.086 734.763 569.413C761.88 644.72 789.054 719.979 816.171 795.286L816.229 795.239Z" fill="#0B3048"/>
<path fill-rule="evenodd" clip-rule="evenodd" d="M415.412 530.162L383.171 541.636L349.529 448.317L381.66 436.886C381.18 453.291 383.69 470.03 389.574 486.4C395.543 502.989 404.392 517.686 415.416 530.11L415.412 530.162Z" fill="#0B3048"/>
<path fill-rule="evenodd" clip-rule="evenodd" d="M645.443 395.629C651.369 412.109 653.87 428.952 653.332 445.405L610.343 460.72L572.288 474.284L534.51 487.717L458.678 514.713L415.363 530.104C404.344 517.628 395.49 502.983 389.521 486.394C383.637 470.024 381.132 453.233 381.607 436.88L424.979 421.442L500.701 394.488L500.807 394.498L538.589 381.013L576.644 367.449L614.422 354.017L619.686 352.138C630.605 364.552 639.412 379.14 645.338 395.619L645.443 395.629Z" fill="#F08011"/>
<path fill-rule="evenodd" clip-rule="evenodd" d="M652.308 340.543L619.795 352.097L614.531 353.975L576.753 367.407L538.698 380.972L500.921 394.404L500.816 394.394L425.088 421.4L381.716 436.838L349.585 448.269L349.505 447.998L339.038 418.913L325.415 381.095L323.944 377.003C318.606 362.16 323.889 344.835 337.117 327.569C339.892 323.981 342.986 320.37 346.449 316.793C367.13 295.218 399.709 274.497 438.99 259.729C440.854 259.061 442.672 258.335 444.589 257.671C446.726 256.923 448.806 256.222 450.943 255.473C453.033 254.667 455.17 253.919 457.255 253.166C459.229 252.455 461.257 251.748 463.279 251.095C503.115 237.75 541.54 233.237 571.345 236.983C576.274 237.551 581.016 238.418 585.422 239.464C606.468 244.498 621.477 254.553 626.772 269.286L628.196 273.322L641.818 311.139L652.418 340.501L652.308 340.543Z" fill="#482F1E"/>
<path fill-rule="evenodd" clip-rule="evenodd" d="M589.002 876.148C564.136 861.001 521.856 867.631 513.447 903.012C486.453 828.086 459.45 753.264 432.451 678.39C429.087 669.059 425.723 659.727 422.358 650.395C409.281 614.105 396.2 577.867 383.175 541.582L415.416 530.108L458.683 514.661L478.825 570.542L497.866 623.473L508.001 651.578L588.955 876.09L589.002 876.148Z" fill="#0B3048"/>
<path fill-rule="evenodd" clip-rule="evenodd" d="M740.669 822.155L773.725 1082.08L795.824 1074.19C823.504 949.248 830.552 857.217 816.914 798.097L815.78 794.932C786.735 773.489 750.113 794.938 740.669 822.155Z" fill="#FEEABF"/>
<path fill-rule="evenodd" clip-rule="evenodd" d="M773.731 1082.03L740.675 822.102C728.038 816.698 692.627 813.955 656.771 826.671C620.963 839.444 595.293 863.925 589.01 876.095L729.537 1097.76L751.636 1089.87L773.736 1081.98L773.731 1082.03Z" fill="#FACE8D"/>
<path fill-rule="evenodd" clip-rule="evenodd" d="M729.528 1097.81L589.001 876.147C564.287 861.068 522.28 867.618 513.548 902.494C513.528 902.703 513.461 902.855 513.389 903.059C539.839 957.793 604.519 1025.34 707.376 1105.7L729.476 1097.81L729.528 1097.81Z" fill="#F5BE65"/>
<path fill-rule="evenodd" clip-rule="evenodd" d="M773.729 1082.03L765.184 1130.16C779.765 1125.57 789.394 1107.12 795.828 1074.14L773.729 1082.03Z" fill="#595B51"/>
<path fill-rule="evenodd" clip-rule="evenodd" d="M765.179 1130.21L773.729 1082.03L751.629 1089.92L729.53 1097.82L765.179 1130.21Z" fill="#33343A"/>
<path fill-rule="evenodd" clip-rule="evenodd" d="M765.179 1130.21L729.53 1097.81L707.431 1105.71C732.427 1126.24 751.143 1134.64 765.227 1130.27L765.179 1130.21Z" fill="#0F1817"/>
<path fill-rule="evenodd" clip-rule="evenodd" d="M645.444 395.628C651.371 412.107 653.871 428.951 653.334 445.403L610.344 460.719L572.289 474.283L534.512 487.715L458.679 514.712L425.033 421.445L500.755 394.491L500.86 394.501L538.643 381.017L576.698 367.453L614.48 353.968L619.745 352.09C630.663 364.503 639.47 379.091 645.397 395.571L645.444 395.628Z" fill="#FBBE46"/>
<path fill-rule="evenodd" clip-rule="evenodd" d="M651.604 450.83C652.488 433.513 650.013 415.829 643.841 398.588C637.668 381.348 628.284 366.125 616.559 353.267L652.31 340.541L687.465 438.062L651.604 450.83Z" fill="#0B3048"/>
<path fill-rule="evenodd" clip-rule="evenodd" d="M686.413 435.168L653.837 446.821L648.63 448.653L610.852 462.085L576.751 367.458L614.533 353.973L619.798 352.095C630.802 364.727 639.694 379.534 645.701 396.285C651.708 413.035 654.294 430.098 653.842 446.769L686.465 435.173L686.413 435.168Z" fill="#F08011"/>
<path fill-rule="evenodd" clip-rule="evenodd" d="M413.685 389.324C413.97 390.247 414.259 391.118 414.539 392.093L425.086 421.45L381.714 436.888L349.584 448.319L349.503 448.048L339.036 418.962L325.413 381.145C326.747 378.792 328.229 376.558 329.968 374.402C341.368 360.234 359.843 353.69 377.729 357.372C386.978 359.347 395.298 363.872 401.799 370.282C406.121 374.484 409.62 379.557 412.167 385.174C412.167 385.174 412.167 385.174 412.162 385.227L412.243 385.498C412.313 385.874 412.489 386.259 412.612 386.64L412.741 386.968L413.073 387.948L413.125 387.953L413.11 388.11C413.281 388.548 413.457 388.934 413.638 389.267L413.685 389.324Z" fill="#3E2819"/>
<path fill-rule="evenodd" clip-rule="evenodd" d="M472.446 315.488C430.556 330.38 403.716 362.238 412.509 386.579C413.183 388.435 414.029 390.149 415.037 391.825L414.488 392.037L425.088 421.399L576.753 367.406L566.153 338.045L565.55 338.252C565.363 336.863 565.065 335.517 564.662 334.161L564.667 334.109L564.629 333.947L564.634 333.895L564.639 333.843L564.644 333.79L564.559 333.571L564.564 333.519L564.568 333.467L564.573 333.415L564.583 333.31L564.593 333.206C564.47 332.825 564.294 332.439 564.166 332.111C554.549 308.642 514.095 301.47 472.865 316.108L472.446 315.488Z" fill="#5F4230"/>
<path fill-rule="evenodd" clip-rule="evenodd" d="M652.311 340.543L619.798 352.097L614.533 353.975L576.756 367.408L566.208 338.051C565.814 337.17 565.472 336.295 565.082 335.362C564.974 334.824 564.808 334.334 564.642 333.844C564.657 333.687 564.571 333.468 564.481 333.302L564.229 332.593C564.106 332.212 563.93 331.827 563.807 331.446L563.726 331.175C562.102 325.328 561.553 319.318 562.165 313.365C563.023 304.219 566.609 295.381 572.603 287.982C584.003 273.814 602.478 267.27 620.365 270.952C623.067 271.522 625.692 272.349 628.198 273.322L641.821 311.14L652.421 340.501L652.311 340.543Z" fill="#926F59"/>
<path d="M610.145 223.183L307.186 330.732L349.366 448.068L652.325 340.52L610.145 223.183Z" fill="#0B3048"/>
<path d="M601.133 202.142L300.609 308.827C295.258 310.726 292.473 316.583 294.387 321.908L297.551 330.709C299.465 336.035 305.354 338.812 310.705 336.912L611.229 230.228C616.58 228.328 619.366 222.472 617.451 217.147L614.287 208.345C612.373 203.02 606.484 200.243 601.133 202.142Z" fill="#F08011"/>
<path fill-rule="evenodd" clip-rule="evenodd" d="M736.887 549.576L740.085 558.418C741.807 563.22 739.673 568.45 735.373 570.788C734.871 571.058 734.373 571.275 733.881 571.439L433.324 678.103C433.052 678.183 432.775 678.315 432.454 678.338C427.397 679.709 421.986 676.934 420.178 671.913L416.98 663.071C415.173 658.051 417.603 652.479 422.362 650.342C422.644 650.158 422.917 650.078 423.194 649.946L723.751 543.282C724.243 543.117 724.788 542.957 725.323 542.902C730.179 541.987 735.217 544.78 736.944 549.529L736.887 549.576Z" fill="#F08011"/>
<path d="M680.783 419.595L622.457 440.3L633.512 471.056L691.839 450.35L680.783 419.595Z" fill="#0B3048"/>
<path fill-rule="evenodd" clip-rule="evenodd" d="M645.444 395.629C651.37 412.109 653.87 428.952 653.333 445.405C652.53 470.902 644.391 495.499 630.405 516.331C614.76 539.591 591.755 558.259 563.249 568.343C535.015 578.347 505.582 578.537 478.826 570.543C454.489 563.302 432.419 549.42 415.364 530.104C404.345 517.628 395.49 502.983 389.521 486.394C383.638 470.024 381.133 453.233 381.608 436.88C381.617 436.775 381.627 436.671 381.632 436.619C382.368 412.961 389.39 390.104 401.634 370.321C417.213 344.946 441.335 324.538 471.711 313.733C502.082 302.98 533.773 303.582 562.054 313.407C584.13 321.015 604.137 334.281 619.796 352.096C630.715 364.51 639.517 379.15 645.444 395.629Z" fill="white"/>
<path d="M521.185 451.244C519.43 451.871 517.45 450.946 516.819 449.2L484.165 358.347C483.534 356.6 484.461 354.631 486.215 354.005C487.97 353.379 489.95 354.303 490.582 356.049L523.235 446.902C523.867 448.649 522.94 450.618 521.185 451.244Z" fill="#0B3048"/>
<path d="M521.188 451.245L446.188 477.845C444.433 478.472 442.453 477.548 441.822 475.801C441.191 474.055 442.118 472.085 443.872 471.459L518.873 444.859C520.628 444.233 522.608 445.157 523.239 446.903C523.87 448.65 522.943 450.619 521.188 451.245Z" fill="#0B3048"/>
<path d="M577.542 136.497L275.975 243.552L299.579 309.216L601.147 202.161L577.542 136.497Z" fill="#E53914"/>
<path d="M320.203 239.182L314.29 241.28C309.159 243.102 306.488 248.718 308.324 253.825L318.313 281.614C320.149 286.72 325.797 289.384 330.928 287.562L336.84 285.463C341.971 283.642 344.642 278.025 342.806 272.919L332.817 245.13C330.981 240.023 325.334 237.36 320.203 239.182Z" fill="#CBCBCB"/>
<path d="M376.747 219.064L370.834 221.163C365.703 222.984 363.032 228.601 364.868 233.707L374.857 261.496C376.693 266.603 382.341 269.266 387.472 267.444L393.384 265.346C398.515 263.524 401.186 257.908 399.35 252.801L389.361 225.012C387.525 219.906 381.878 217.242 376.747 219.064Z" fill="#CBCBCB"/>
<path d="M433.262 199.009L427.35 201.108C422.219 202.929 419.548 208.545 421.384 213.652L431.373 241.441C433.209 246.548 438.856 249.211 443.987 247.389L449.9 245.291C455.031 243.469 457.702 237.853 455.866 232.746L445.877 204.957C444.041 199.851 438.393 197.187 433.262 199.009Z" fill="#CBCBCB"/>
<path d="M489.778 178.958L483.866 181.057C478.735 182.878 476.064 188.494 477.9 193.601L487.889 221.39C489.725 226.497 495.372 229.16 500.503 227.338L506.415 225.24C511.546 223.418 514.218 217.802 512.382 212.695L502.393 184.906C500.557 179.8 494.909 177.136 489.778 178.958Z" fill="#CBCBCB"/>
<path d="M546.398 158.893L540.486 160.992C535.355 162.813 532.683 168.43 534.519 173.536L544.509 201.325C546.344 206.432 551.992 209.095 557.123 207.273L563.035 205.175C568.166 203.353 570.837 197.737 569.002 192.63L559.012 164.841C557.177 159.735 551.529 157.071 546.398 158.893Z" fill="#CBCBCB"/>
<path fill-rule="evenodd" clip-rule="evenodd" d="M581.6 135.07L271.835 244.983C267.943 246.357 263.866 243.496 263.823 239.433L263.315 164.092C263.211 145.998 274.587 129.824 291.695 123.732L488.907 53.7144C506.015 47.6221 525.173 53.0055 536.57 67.0984L584.17 125.768C586.784 128.966 585.435 133.743 581.543 135.118L581.6 135.07Z" fill="#0B3048"/>
<path d="M250.416 803.373L14.3477 941.729L121.77 759.467L250.416 803.373Z" fill="#F2D176"/>
<path d="M14.3476 942.822C14.081 942.822 13.7877 942.715 13.5744 942.502C13.1744 942.075 13.1744 941.409 13.5744 941.009L174.055 776.848C174.482 776.422 175.148 776.422 175.575 776.848C176.001 777.275 176.001 777.941 175.575 778.368L48.5554 908.326L185.147 780.607C185.573 780.207 186.266 780.234 186.666 780.66C187.066 781.087 187.04 781.78 186.613 782.18L15.0941 942.582C14.8808 942.768 14.6142 942.875 14.3476 942.875V942.822Z" fill="#190E09"/>
<mask id="mask3_1504_1349" style="mask-type:luminance" maskUnits="userSpaceOnUse" x="936" y="295" width="322" height="260">
<path d="M1254.75 461.488C1270.52 392.918 1212.69 321.109 1125.6 301.098C1038.5 281.087 955.12 320.452 939.356 389.022C923.591 457.593 981.415 529.402 1068.51 549.413C1155.6 569.424 1238.99 530.059 1254.75 461.488Z" fill="white"/>
</mask>
<g mask="url(#mask3_1504_1349)">
<path d="M1254.75 461.488C1270.52 392.918 1212.69 321.109 1125.6 301.098C1038.5 281.087 955.12 320.452 939.356 389.022C923.591 457.593 981.415 529.402 1068.51 549.413C1155.6 569.424 1238.99 530.059 1254.75 461.488Z" fill="#0563A0"/>
<path d="M1214.61 617.03C1211.68 616.601 1208.93 614.983 1207.16 612.337L969.51 257.424C966.19 252.448 967.516 245.716 972.493 242.396C977.471 239.077 984.204 240.402 987.523 245.378L1225.17 600.291C1228.49 605.267 1227.16 611.999 1222.19 615.319C1219.85 616.868 1217.17 617.401 1214.61 617.03Z" fill="#E53914"/>
<path d="M1220 618.339C1218.19 618.919 1216.25 619.093 1214.35 618.81C1210.82 618.303 1207.66 616.312 1205.66 613.322L968.01 258.41C964.136 252.63 965.69 244.753 971.472 240.879C977.254 237.004 985.131 238.558 989.005 244.338L1226.65 599.251C1228.53 602.042 1229.2 605.428 1228.56 608.727C1227.89 612.034 1226.01 614.898 1223.19 616.782C1222.19 617.46 1221.12 617.949 1220.02 618.304L1220 618.339ZM975.751 242.811C974.968 243.062 974.193 243.429 973.48 243.895C969.342 246.678 968.218 252.274 971.001 256.411L1208.65 611.324C1210.07 613.455 1212.34 614.871 1214.86 615.223C1217.07 615.527 1219.32 615.016 1221.19 613.792C1223.2 612.436 1224.57 610.391 1225.03 608.04C1225.49 605.662 1225.03 603.282 1223.67 601.276L986.024 246.364C983.735 242.932 979.494 241.583 975.769 242.775L975.751 242.811Z" fill="#F5F0EC"/>
<path d="M909.633 546.952C912.454 547.863 915.639 547.587 918.4 545.989L1287.21 330.449C1292.38 327.427 1294.12 320.799 1291.1 315.638C1288.08 310.476 1281.45 308.731 1276.29 311.753L907.474 527.293C902.312 530.314 900.566 536.943 903.587 542.104C904.984 544.513 907.186 546.188 909.66 546.943L909.633 546.952Z" fill="#E53914"/>
<path d="M916.791 548.676C914.308 549.471 911.61 549.502 909.083 548.675C906.101 547.725 903.58 545.706 901.999 542.999C898.495 536.981 900.532 529.218 906.524 525.722L1275.34 310.183C1281.36 306.678 1289.12 308.714 1292.62 314.706C1294.32 317.611 1294.79 321.031 1293.93 324.282C1293.07 327.561 1291 330.278 1288.09 331.983L919.278 547.522C918.475 547.988 917.646 548.372 916.755 548.658L916.791 548.676ZM1278.97 312.502C1278.35 312.7 1277.74 312.953 1277.17 313.314L908.36 528.853C904.073 531.357 902.609 536.913 905.113 541.199C906.237 543.13 908.039 544.576 910.155 545.237C912.575 546.01 915.249 545.718 917.451 544.418L1286.26 328.879C1288.35 327.675 1289.83 325.713 1290.45 323.372C1291.07 321.032 1290.74 318.608 1289.51 316.533C1287.34 312.824 1282.91 311.24 1278.97 312.502Z" fill="#F5F0EC"/>
<g opacity="0.99">
<path d="M1283.87 448.621L1130.24 413.322L1169.13 244.196L1119.12 232.692L1080.23 401.818L915.394 363.949L903.485 415.781L1068.29 453.659L1034.4 601.131L1084.44 612.627L1118.34 465.155L1271.96 500.454L1283.87 448.621Z" fill="#E53914"/>
</g>
<path d="M1084.99 614.327C1084.69 614.422 1084.37 614.436 1084.05 614.361L1034.01 602.865C1033.04 602.639 1032.43 601.673 1032.66 600.708L1066.16 454.996L903.088 417.515C902.123 417.289 901.516 416.323 901.743 415.358L913.651 363.525C913.764 363.043 914.056 362.652 914.453 362.405C914.85 362.159 915.353 362.058 915.809 362.18L1078.88 399.66L1117.38 232.268C1117.49 231.786 1117.78 231.395 1118.18 231.149C1118.58 230.902 1119.08 230.801 1119.54 230.923L1169.58 242.418C1170.54 242.645 1171.15 243.611 1170.92 244.576L1132.43 411.968L1284.29 446.852C1285.25 447.078 1285.86 448.044 1285.63 449.009L1273.73 500.842C1273.61 501.325 1273.32 501.715 1272.92 501.962C1272.53 502.208 1272.02 502.309 1271.57 502.188L1119.71 467.304L1086.21 613.015C1086.05 613.659 1085.58 614.137 1084.99 614.327ZM1036.56 599.786L1083.07 610.478L1116.58 464.766C1116.8 463.801 1117.77 463.194 1118.73 463.421L1270.59 498.305L1281.7 450.002L1129.84 415.118C1128.87 414.892 1128.27 413.926 1128.49 412.961L1166.99 245.569L1120.47 234.876L1081.98 402.268C1081.75 403.234 1080.79 403.84 1079.82 403.614L916.748 366.133L905.643 414.436L1068.72 451.917C1069.68 452.143 1070.29 453.109 1070.06 454.074L1036.56 599.786Z" fill="#F5F0EC"/>
</g>
<path d="M943.838 553.224C943.838 553.224 1005.72 540.549 1018.45 510.322L1042.63 530.276C1042.63 530.276 1008.21 565.991 943.847 553.251L943.838 553.224Z" fill="#0563A0"/>
</svg>
