<svg width="921" height="751" viewBox="0 0 921 751" fill="none" xmlns="http://www.w3.org/2000/svg">
<g opacity="0.61">
<path d="M303.342 153.604C296.763 160.842 290.624 168.482 284.961 176.489C259.214 212.878 242.171 257.018 208.726 285.748C186.681 304.675 159.174 315.339 136.285 333.112C105.644 356.877 84.35 393.413 78.1376 432.807C72.4566 468.829 81.0513 509.744 108.631 532.098C131.704 550.805 162.711 553.151 191.464 558.263C230.204 565.152 268.835 578.876 298.962 605.316C367.17 665.194 413.662 791.915 525.779 737.863C590.762 706.531 619.313 621.092 683.764 588.605C731.448 564.566 797.493 547.159 812.576 485.191C830.498 411.516 793.04 324.757 738.1 279.152C708.889 254.911 673.539 239.135 646.582 212.182C597.231 162.857 573.022 105.708 500.783 87.0558C429.349 68.6048 353.114 98.8374 303.378 153.586L303.342 153.604Z" fill="#092130"/>
</g>
<path d="M368.796 563.013C368.415 563.013 368.001 562.918 367.651 562.727C366.442 562.091 365.996 560.595 366.632 559.418L494.751 318.557C495.387 317.38 496.851 316.903 498.061 317.539C499.27 318.176 499.715 319.671 499.079 320.848L370.96 561.709C370.515 562.536 369.656 563.013 368.796 563.013Z" fill="#F6E1D3"/>
<path d="M745.737 449.233C745.737 449.233 620.133 694.866 620.069 694.93C617.396 700.052 557.092 675.489 552.955 673.58C531.888 663.907 512.19 651.499 495.197 636.385C479.317 622.226 465.76 602.436 443.835 595.945C418.599 588.468 389.831 596.486 366.76 606.699C366.76 606.699 333.155 588.754 333.123 588.722C332.932 588.627 333.919 578.477 333.887 577.745C333.6 568.104 330.895 558.591 326.631 549.873C311.102 518.15 274.951 495.464 239.66 486.396C232.245 484.487 154.152 464.092 161.057 454.897L313.425 250.945L745.769 449.233H745.737Z" fill="#92C0F9"/>
<path d="M699.976 418.179L707.677 468.196C707.677 468.196 609.95 669.985 609.918 670.048C607.499 675.044 552.318 650.83 548.532 648.953C529.247 639.408 511.235 627.222 495.642 612.363C481.067 598.458 468.625 579.049 448.608 572.622C425.536 565.209 399.283 572.972 378.248 582.899C378.248 582.899 347.475 565.209 347.443 565.209C347.252 565.113 348.143 555.186 348.112 554.486C347.793 545.068 345.311 535.714 341.397 527.187C327.109 496.101 294.013 473.764 261.745 464.792C254.966 462.915 183.588 442.71 189.825 433.706L328.318 234.59L699.945 418.274L699.976 418.179Z" fill="#F6E1D3"/>
<path d="M480.781 331.507L479.794 332.366C479.794 332.366 541.149 263.99 647.882 362.975C647.882 362.975 684.097 397.752 712.069 392.979L602.726 620.826C574.722 625.599 538.539 590.822 538.539 590.822C431.806 491.837 370.451 560.213 370.451 560.213L480.781 331.507Z" fill="#F5F0EC"/>
<path d="M496.183 340.893L496.024 342.198C496.024 342.198 518.173 253.045 376.338 220.272C376.338 220.272 327.236 209.836 315.461 184L188.234 402.365C200.008 428.201 249.111 438.638 249.111 438.638C390.945 471.41 368.796 560.563 368.796 560.563L496.151 340.893H496.183Z" fill="#F5F0EC"/>
<path d="M368.796 563.013C368.415 563.013 368.001 562.918 367.651 562.727C366.442 562.091 365.996 560.595 366.632 559.418L494.751 318.557C495.387 317.38 496.851 316.903 498.061 317.539C499.27 318.176 499.715 319.671 499.079 320.848L370.96 561.709C370.515 562.536 369.656 563.013 368.796 563.013Z" fill="#F6E1D3"/>
<g opacity="0.99">
<path d="M445.935 244.263C459.269 251.995 473.43 262.208 479.317 275.953L399.219 415.188L392.345 384.484L359.568 392.406L445.935 244.263Z" fill="#E53914"/>
</g>
<path d="M670.031 419.165C645.432 419.165 628.884 401.634 612.846 384.675C606.099 377.548 599.703 370.802 592.797 365.329C573.64 350.184 536.916 327.848 506.398 348.212C505.284 348.975 503.757 348.657 502.993 347.543C502.229 346.43 502.548 344.902 503.661 344.139C536.757 322.057 575.581 345.539 595.788 361.511C602.98 367.175 609.759 374.366 616.346 381.334C631.939 397.847 648.201 414.87 671.272 414.265C671.272 414.265 671.304 414.265 671.336 414.265C672.672 414.265 673.754 415.315 673.786 416.652C673.818 417.988 672.768 419.133 671.399 419.165C670.922 419.165 670.445 419.165 669.967 419.165H670.031Z" fill="#F6E1D3"/>
<path d="M661.057 445.351C661.057 445.351 661.057 445.351 661.025 445.351C660.611 445.351 617.905 444.142 593.911 396.67C593.306 395.461 593.784 393.997 594.993 393.393C596.202 392.788 597.666 393.266 598.271 394.475C610.109 417.861 626.529 429.124 638.208 434.438C650.937 440.229 660.993 440.483 661.089 440.483C662.425 440.483 663.507 441.629 663.507 442.965C663.507 444.301 662.394 445.383 661.057 445.383V445.351Z" fill="#F6E1D3"/>
<path d="M647.15 471.346C647.15 471.346 647.15 471.346 647.119 471.346C646.705 471.346 603.999 470.137 580.004 422.665C579.4 421.456 579.877 419.992 581.086 419.388C582.296 418.783 583.759 419.261 584.364 420.47C596.202 443.856 612.623 455.119 624.302 460.433C637.031 466.224 647.087 466.478 647.182 466.478C648.519 466.478 649.601 467.624 649.601 468.96C649.601 470.296 648.487 471.378 647.15 471.378V471.346Z" fill="#F6E1D3"/>
<path d="M632.385 497.405C632.385 497.405 632.385 497.405 632.353 497.405C631.939 497.405 589.265 496.196 565.238 448.724C564.634 447.515 565.111 446.051 566.321 445.447C567.53 444.842 568.994 445.319 569.598 446.528C581.436 469.915 597.857 481.178 609.536 486.492C622.265 492.282 632.321 492.537 632.416 492.537C633.753 492.537 634.835 493.682 634.835 495.019C634.835 496.355 633.721 497.437 632.385 497.437V497.405Z" fill="#F6E1D3"/>
<path d="M580.004 378.216L545.445 439.624C545.445 439.624 507.989 404.974 465.06 421.583L499.174 364.375C499.174 364.375 546.622 342.389 580.004 378.216Z" fill="#E7C5B1"/>
<path d="M608.613 529.414C608.422 529.414 608.231 529.414 608.04 529.35C576.918 522.032 555.278 499.569 534.339 477.869C516.072 458.937 488.959 439.592 463.501 454.992C462.355 455.692 460.828 455.31 460.128 454.165C459.428 453.019 459.81 451.492 460.955 450.792C483.327 437.269 509.899 445.478 537.839 474.464C558.269 495.655 579.432 517.609 609.154 524.577C610.459 524.896 611.286 526.2 610.968 527.536C610.713 528.65 609.695 529.414 608.581 529.414H608.613Z" fill="#F6E1D3"/>
<path d="M596.711 552.673C596.52 552.673 596.329 552.673 596.139 552.609C565.016 545.291 543.376 522.827 522.437 501.128C504.171 482.196 477.058 462.851 451.599 478.251C450.454 478.951 448.926 478.569 448.226 477.424C447.526 476.278 447.908 474.751 449.054 474.051C471.393 460.528 497.997 468.737 525.937 497.723C546.4 518.946 567.53 540.868 597.252 547.836C598.557 548.154 599.384 549.459 599.066 550.795C598.812 551.909 597.793 552.673 596.679 552.673H596.711Z" fill="#F6E1D3"/>
<path d="M588.183 583.759C587.992 583.759 587.801 583.759 587.61 583.695C556.487 576.377 534.848 553.913 513.908 532.214C495.642 513.282 468.529 493.937 443.071 509.337C441.893 510.037 440.398 509.655 439.698 508.509C438.998 507.364 439.379 505.837 440.525 505.137C462.865 491.614 489.468 499.823 517.409 528.809C537.839 550 559.001 571.954 588.724 578.922C590.028 579.24 590.856 580.545 590.538 581.881C590.283 582.995 589.265 583.759 588.151 583.759H588.183Z" fill="#F6E1D3"/>
<path d="M396.737 456.615C395.782 456.615 394.859 456.042 394.477 455.087C394.255 454.515 370.419 398.643 298.691 393.425C296.368 393.234 242.683 388.27 236.223 365.616C235.841 364.311 236.605 362.975 237.909 362.593C239.214 362.211 240.551 362.975 240.932 364.279C245.515 380.411 284.466 387.252 299.073 388.556C338.119 391.388 363.196 408.793 377.325 422.888C392.695 438.192 398.71 452.637 398.964 453.242C399.474 454.483 398.869 455.915 397.628 456.424C397.31 456.551 397.023 456.615 396.705 456.615H396.737Z" fill="#F6E1D3"/>
<path d="M382.83 476.755C381.876 476.755 380.953 476.183 380.571 475.228C380.348 474.655 356.513 418.783 284.784 413.565C282.461 413.374 228.776 408.411 222.316 385.756C221.934 384.452 222.698 383.116 224.003 382.734C225.307 382.352 226.644 383.116 227.026 384.42C231.608 400.552 270.559 407.393 285.166 408.697C324.213 411.529 349.289 428.933 363.45 443.028C378.821 458.333 384.835 472.778 385.09 473.383C385.599 474.624 384.994 476.055 383.753 476.564C383.435 476.692 383.148 476.755 382.83 476.755Z" fill="#F6E1D3"/>
<path d="M350.371 361.766C349.798 361.766 349.257 361.575 348.812 361.193C348.653 361.066 331.468 347.162 294.045 347.575C292.676 347.543 262.476 346.652 251.052 333.544C250.352 332.748 250.256 331.603 250.766 330.712C250.766 330.712 316.83 216.772 317.053 216.39C317.721 215.213 319.217 214.831 320.394 215.5C321.285 216.009 321.731 216.995 321.603 217.918C323.576 220.463 336.337 227.495 360.777 237.517C361.636 237.804 365.805 238.536 369.847 239.236C403.706 245.026 415.799 248.463 417.772 252.885C418.281 254.063 418.217 255.335 417.517 256.417C417.04 257.181 411.853 265.485 352.408 360.589C352.026 361.193 351.421 361.607 350.721 361.702C350.594 361.702 350.467 361.702 350.339 361.702L350.371 361.766ZM295.318 342.675C326.504 342.675 343.847 351.934 349.703 355.816C358.613 341.562 407.779 262.844 412.967 254.572C408.352 250.817 378.948 245.79 369.051 244.104C361.891 242.863 359.982 242.545 359.154 242.195C332.741 231.345 323.003 225.554 319.248 222.404C308.938 240.158 263.049 319.321 255.953 331.603C266.868 341.912 293.822 342.707 294.108 342.707C294.522 342.707 294.936 342.707 295.349 342.707L295.318 342.675Z" fill="#F6E1D3"/>
<path d="M590.029 649.144C555.183 649.144 529.756 620.763 507.162 595.563C503.821 591.84 500.67 588.308 497.488 584.904L498.442 584.013C501.625 587.418 504.775 590.949 508.117 594.704C531.793 621.144 558.651 651.085 596.011 647.585L596.139 648.89C594.07 649.08 592.033 649.176 590.029 649.176V649.144Z" fill="#2D201B"/>
<path d="M471.711 564.127C455.45 554.136 437.947 549.554 421.018 550.891L420.922 549.586C438.107 548.25 455.927 552.895 472.411 563.013L471.743 564.127H471.711Z" fill="#2D201B"/>
<path d="M703.538 444.955L656.017 541.008L657.186 541.586L704.708 445.533L703.538 444.955Z" fill="#2D201B"/>
<g opacity="0.99">
<path d="M7.73517 207.713L6.94879 208.343C3.11108 211.419 2.49421 217.024 5.57099 220.861L120.098 363.689C123.174 367.526 128.78 368.142 132.617 365.066L133.404 364.436C137.242 361.36 137.858 355.755 134.782 351.918L20.2549 209.09C17.1782 205.253 11.5729 204.636 7.73517 207.713Z" fill="#AC3615"/>
</g>
<path d="M110.904 341.816C113.634 338.701 117.226 336.539 120.726 334.358L20.2467 209.086C17.1863 205.256 11.542 204.633 7.71196 207.711L6.94228 208.334C3.11222 211.394 2.48914 217.038 5.56786 220.867L107.733 348.284C108.21 345.957 109.2 343.758 110.885 341.852L110.904 341.816Z" fill="#E53914"/>
<g opacity="0.99">
<path d="M205.897 251.24L107.241 330.323L131.233 360.243L229.889 281.161L205.897 251.24Z" fill="#AC3615"/>
</g>
<g opacity="0.99">
<path d="M219.758 280.654L132.052 350.977C129.284 353.194 125.235 352.754 123.017 349.988L54.6257 264.713L147.354 190.378L219.758 280.673V280.654Z" fill="#F8E9D5"/>
</g>
<mask id="mask0_1503_1020" style="mask-type:luminance" maskUnits="userSpaceOnUse" x="12" y="137" width="201" height="205">
<path d="M114.892 137.758L12.9337 219.487L111.034 341.83L212.992 260.1L114.892 137.758Z" fill="white"/>
</mask>
<g mask="url(#mask0_1503_1020)">
<path d="M114.252 136.95L10.9068 219.791L112.916 347.008L216.261 264.167L114.252 136.95Z" fill="#2D201B"/>
<path d="M114.252 136.95L10.9068 219.791L112.916 347.008L216.261 264.167L114.252 136.95Z" fill="#E53914"/>
<path d="M114.23 136.952L39.995 196.459L142.004 323.676L216.239 264.169L114.23 136.952Z" fill="#75A5F3"/>
</g>
<path d="M167.439 305.445L166.962 304.859L210.907 269.624L211.383 270.21L167.439 305.445Z" fill="#2D201B"/>
<path d="M120.818 347.239L120.342 346.653L153.236 320.286L153.694 320.873L120.818 347.239Z" fill="#2D201B"/>
<path d="M109.603 334.212C109.309 334.212 109.035 334.083 108.851 333.845L18.799 221.563C18.4691 221.142 18.5241 220.537 18.9456 220.189C19.3671 219.859 19.9718 219.914 20.32 220.336L110.372 332.618C110.702 333.039 110.647 333.644 110.226 333.992C110.043 334.138 109.841 334.212 109.621 334.212H109.603Z" fill="#AC3615"/>
<path d="M121.768 198.551L68.4793 241.267C62.8412 245.786 61.935 254.02 66.4552 259.657L98.5974 299.742C103.118 305.379 111.353 306.285 116.991 301.766L170.279 259.05C175.917 254.531 176.823 246.297 172.303 240.66L140.161 200.575C135.641 194.937 127.406 194.031 121.768 198.551Z" fill="#F5F0EC"/>
<path d="M110.684 276.587L90.2141 251.045L100.751 242.598C103.5 240.399 106.103 239.208 108.576 238.988C111.05 238.787 113.158 239.74 114.862 241.883C115.998 243.294 116.585 244.76 116.621 246.262C116.658 247.765 116.237 249.267 115.339 250.733C114.441 252.217 113.158 253.61 111.509 254.929L111.783 253.94C113.836 252.291 115.742 251.173 117.501 250.587C119.26 250 120.873 249.909 122.339 250.33C123.805 250.752 125.106 251.686 126.261 253.115C127.983 255.259 128.515 257.549 127.855 259.968C127.195 262.386 125.234 264.915 121.991 267.517L110.684 276.587ZM110.885 275.286L121.588 266.711C124.428 264.439 126.206 262.222 126.92 260.059C127.635 257.916 127.159 255.809 125.509 253.738C123.86 251.668 121.899 250.752 119.663 251.008C117.409 251.246 114.88 252.51 112.04 254.783L101.155 263.504L100.605 262.808L110.739 254.691C113.268 252.657 114.862 250.587 115.485 248.479C116.108 246.372 115.669 244.375 114.147 242.488C112.626 240.601 110.776 239.721 108.576 239.868C106.396 240.033 104.032 241.114 101.484 243.148L91.5519 251.118L110.922 275.267L110.885 275.286Z" fill="#75A5F3"/>
<path d="M141.324 252.016L121.166 226.877H121.734L114.532 232.667L113.983 231.971L121.551 225.906L142.021 251.448L141.306 252.034L141.324 252.016Z" fill="#75A5F3"/>
<path d="M47.8452 238.512C44.9864 238.512 42.1459 237.266 40.2217 234.866L39.3604 233.785C35.9885 229.589 36.6665 223.432 40.8631 220.061L111.71 163.26C115.907 159.889 122.064 160.567 125.436 164.763L126.297 165.844C127.928 167.878 128.661 170.424 128.368 173.026C128.075 175.628 126.811 177.955 124.776 179.586L53.9293 236.386C52.1334 237.834 49.971 238.53 47.8269 238.53L47.8452 238.512ZM117.813 162.546C115.98 162.546 114.129 163.15 112.59 164.378L41.7427 221.179C38.1509 224.055 37.5645 229.332 40.4599 232.923L41.3213 234.005C44.1984 237.596 49.4579 238.182 53.068 235.287L123.915 178.486C125.656 177.094 126.737 175.115 126.975 172.88C127.214 170.663 126.591 168.482 125.198 166.742L124.337 165.661C122.687 163.608 120.268 162.546 117.813 162.546Z" fill="#F5F0EC"/>
<path d="M129.028 339.947C129.028 339.947 141.178 370.454 114.716 397.059L127.324 395.85L126.719 410.544C126.719 410.544 162.711 381.081 143.798 328.074L129.028 339.965V339.947Z" fill="#0B3048"/>
<mask id="mask1_1503_1020" style="mask-type:luminance" maskUnits="userSpaceOnUse" x="636" y="161" width="221" height="179">
<path d="M854.946 275.474C865.782 228.344 826.038 178.987 766.175 165.233C706.313 151.479 649.001 178.536 638.166 225.666C627.33 272.796 667.074 322.152 726.937 335.906C786.799 349.66 844.111 322.604 854.946 275.474Z" fill="white"/>
</mask>
<g mask="url(#mask1_1503_1020)">
<path d="M854.946 275.474C865.782 228.344 826.038 178.987 766.175 165.233C706.313 151.48 649.001 178.536 638.166 225.666C627.33 272.796 667.074 322.152 726.937 335.906C786.799 349.66 844.111 322.604 854.946 275.474Z" fill="#0563A0"/>
<path d="M827.355 382.381C825.338 382.087 823.448 380.974 822.231 379.155L658.891 135.216C656.61 131.795 657.521 127.168 660.942 124.886C664.363 122.605 668.991 123.516 671.272 126.936L834.612 370.876C836.894 374.296 835.983 378.923 832.561 381.205C830.96 382.27 829.113 382.636 827.355 382.381Z" fill="#E53914"/>
<path d="M831.058 383.281C829.816 383.679 828.484 383.799 827.174 383.605C824.751 383.256 822.574 381.888 821.201 379.833L657.861 135.893C655.198 131.92 656.266 126.507 660.24 123.843C664.214 121.18 669.628 122.248 672.291 126.221L835.631 370.161C836.92 372.079 837.379 374.407 836.939 376.674C836.481 378.948 835.189 380.916 833.252 382.211C832.562 382.677 831.832 383.013 831.071 383.257L831.058 383.281ZM663.181 125.172C662.643 125.344 662.11 125.596 661.62 125.917C658.776 127.83 658.003 131.676 659.916 134.519L823.256 378.459C824.236 379.924 825.795 380.897 827.53 381.139C829.049 381.348 830.593 380.997 831.878 380.156C833.256 379.224 834.197 377.818 834.518 376.202C834.833 374.568 834.514 372.932 833.582 371.553L670.242 127.614C668.668 125.255 665.753 124.327 663.193 125.147L663.181 125.172Z" fill="#F5F0EC"/>
<path d="M617.736 334.215C619.675 334.841 621.864 334.651 623.762 333.553L877.257 185.407C880.805 183.33 882.005 178.774 879.928 175.227C877.852 171.68 873.295 170.48 869.747 172.557L616.252 320.703C612.704 322.78 611.504 327.335 613.581 330.883C614.541 332.539 616.055 333.69 617.755 334.209L617.736 334.215Z" fill="#E53914"/>
<path d="M622.656 335.4C620.95 335.946 619.095 335.968 617.359 335.399C615.309 334.746 613.576 333.359 612.49 331.498C610.081 327.362 611.481 322.026 615.6 319.623L869.095 171.478C873.232 169.069 878.568 170.469 880.971 174.586C882.142 176.583 882.465 178.934 881.872 181.169C881.285 183.422 879.858 185.29 877.861 186.461L624.366 334.607C623.814 334.927 623.244 335.191 622.632 335.387L622.656 335.4ZM871.589 173.072C871.162 173.208 870.747 173.382 870.356 173.63L616.862 321.775C613.915 323.496 612.909 327.315 614.63 330.261C615.402 331.588 616.641 332.582 618.095 333.036C619.758 333.567 621.596 333.367 623.11 332.473L876.605 184.328C878.037 183.501 879.058 182.152 879.483 180.543C879.909 178.935 879.682 177.269 878.837 175.842C877.346 173.293 874.297 172.204 871.589 173.072Z" fill="#F5F0EC"/>
<g opacity="0.99">
<path d="M874.961 266.63L769.368 242.368L796.098 126.124L761.722 118.216L734.992 234.461L621.696 208.433L613.511 244.058L726.788 270.092L703.494 371.454L737.889 379.355L761.183 277.994L866.776 302.256L874.961 266.63Z" fill="#E53914"/>
</g>
<path d="M738.263 380.524C738.059 380.589 737.837 380.599 737.616 380.547L703.221 372.645C702.558 372.49 702.141 371.826 702.296 371.162L725.324 271.011L613.238 245.25C612.575 245.094 612.158 244.43 612.313 243.767L620.498 208.141C620.576 207.81 620.777 207.541 621.05 207.372C621.323 207.202 621.669 207.133 621.982 207.216L734.067 232.978L760.524 117.925C760.602 117.594 760.803 117.325 761.076 117.156C761.349 116.986 761.694 116.917 762.008 117L796.402 124.902C797.066 125.057 797.483 125.721 797.327 126.385L770.87 241.437L875.246 265.414C875.91 265.569 876.327 266.233 876.171 266.897L867.986 302.522C867.908 302.854 867.708 303.123 867.435 303.292C867.162 303.461 866.816 303.531 866.503 303.447L762.127 279.471L739.099 379.622C738.995 380.064 738.671 380.393 738.263 380.524ZM704.977 370.529L736.945 377.878L759.973 277.727C760.129 277.064 760.793 276.646 761.456 276.802L865.832 300.779L873.465 267.579L769.089 243.603C768.425 243.447 768.008 242.783 768.164 242.12L794.621 127.067L762.653 119.718L736.196 234.77C736.04 235.434 735.376 235.851 734.712 235.695L622.627 209.934L614.994 243.133L727.08 268.895C727.743 269.05 728.16 269.714 728.005 270.378L704.977 370.529Z" fill="#F5F0EC"/>
</g>
<path d="M641.246 338.526C641.246 338.526 683.779 329.814 692.526 309.038L709.149 322.753C709.149 322.753 685.493 347.301 641.252 338.545L641.246 338.526Z" fill="#0563A0"/>
<mask id="mask2_1503_1020" style="mask-type:luminance" maskUnits="userSpaceOnUse" x="500" y="28" width="194" height="150">
<path d="M692.758 82.299C684.536 43.2695 637.672 20.1079 588.097 30.5434C538.515 41.0008 505.012 81.0928 513.234 120.122C516.666 136.427 526.853 149.933 541.143 159.418C524.419 170.812 500.636 176.073 500.636 176.073C527.25 180.9 546.853 174.783 559.037 168.356C576.354 174.651 596.872 176.286 617.874 171.871C667.455 161.413 700.958 121.321 692.736 82.2917L692.758 82.299Z" fill="white"/>
</mask>
<g mask="url(#mask2_1503_1020)">
<mask id="mask3_1503_1020" style="mask-type:luminance" maskUnits="userSpaceOnUse" x="511" y="28" width="184" height="147">
<path d="M617.907 171.858C667.488 161.406 701.007 121.298 692.775 82.2721C684.543 43.2466 637.677 20.0827 588.097 30.5339C538.517 40.9852 504.997 81.094 513.229 120.119C521.461 159.145 568.327 182.309 617.907 171.858Z" fill="white"/>
</mask>
<g mask="url(#mask3_1503_1020)">
<path d="M617.907 171.858C667.488 161.406 701.007 121.298 692.775 82.2721C684.543 43.2466 637.677 20.0827 588.097 30.5339C538.517 40.9852 504.997 81.094 513.229 120.119C521.461 159.145 568.327 182.309 617.907 171.858Z" fill="#0B3048"/>
<path d="M590.172 30.142L608.674 117.911L519.513 136.695C535.73 165.405 575.833 180.737 617.895 171.878C667.477 161.42 700.98 121.328 692.758 82.299C684.646 43.8154 638.975 20.7842 590.172 30.142Z" fill="#F5F0EC"/>
</g>
<path d="M500.658 176.08C500.658 176.08 546.549 165.923 555.665 143.264L573.897 157.822C573.897 157.822 548.708 184.813 500.666 176.059L500.658 176.08Z" fill="#F5F0EC"/>
<path d="M579.619 73.3815C574.027 71.5208 570.056 66.1723 570.197 59.9845C570.397 52.3844 576.691 46.3754 584.292 46.5753C598.467 46.9247 611.91 38.83 626.138 30.269C628.074 29.1178 629.988 27.9594 631.895 26.8227C659.122 10.7715 680.575 5.80299 697.178 11.4726C704.365 13.9367 708.193 21.7604 705.729 28.9467C703.28 36.0893 695.528 39.9152 688.363 37.5311C688.297 37.5093 688.21 37.4803 688.144 37.4585C683.294 35.8449 671.39 35.4506 645.874 50.5182C644.032 51.6038 642.184 52.7113 640.328 53.8406C624.127 63.5892 605.794 74.642 583.61 74.0783C582.212 74.0499 580.865 73.7958 579.598 73.3743L579.619 73.3815Z" fill="#E53914"/>
<path d="M590.641 118.364C585.048 116.504 581.077 111.155 581.219 104.967C581.418 97.3672 587.712 91.3582 595.313 91.5581C609.489 91.9075 622.931 83.8128 637.159 75.2518C639.095 74.1006 641.009 72.9422 642.916 71.8056C670.143 55.7543 691.552 50.7713 708.199 56.4554C715.387 58.9195 719.214 66.7432 716.75 73.9295C714.286 81.1158 706.52 84.9126 699.275 82.4776L699.165 82.4413C694.315 80.8277 682.411 80.4334 656.895 95.501C655.053 96.5866 653.205 97.6941 651.349 98.8234C635.148 108.572 616.815 119.625 594.631 119.061C593.233 119.033 591.886 118.779 590.619 118.357L590.641 118.364Z" fill="#E53914"/>
<path d="M512.851 172.325C506.865 170.334 502.85 164.388 503.523 157.843C504.29 150.287 511.072 144.78 518.623 145.569C554.511 149.285 586.554 151.285 615.349 138.327C623.479 134.676 631.376 130.195 639.745 125.459C660.197 113.873 681.332 101.909 707.615 101.095C709.602 101.028 711.394 101.042 713.134 101.136C720.72 101.525 726.571 108.008 726.182 115.594C725.794 123.179 719.31 129.028 711.723 128.639C710.748 128.581 709.678 128.589 708.476 128.626C689.008 129.233 671.672 139.041 653.338 149.438C644.787 154.283 635.966 159.282 626.663 163.465C591.675 179.215 554.259 176.956 515.807 172.993C514.774 172.892 513.805 172.667 512.866 172.354L512.851 172.325Z" fill="#E53914"/>
<path d="M582.028 -12.3308L608.703 117.46L507.123 139.948C507.123 139.948 474.824 27.7919 582.035 -12.3527L582.028 -12.3308Z" fill="#0B3048"/>
</g>
<path d="M586.731 95.1805L589.369 99.3577L594.32 99.5735L591.163 103.375L592.484 108.157L587.881 106.311L583.762 109.064L584.101 104.107L580.197 101.037L585.016 99.8258L586.731 95.1805Z" fill="#F5F0EC"/>
<path d="M561.034 99.7072L563.664 103.906L568.623 104.1L565.436 107.916L566.786 112.684L562.183 110.837L558.064 113.591L558.374 108.648L554.499 105.563L559.296 104.345L561.034 99.7072Z" fill="#F5F0EC"/>
<path d="M543.896 77.1927L546.527 81.3917L551.478 81.6076L548.32 85.4092L549.648 90.1694L545.038 88.3446L540.919 91.0984L541.258 86.1408L537.354 83.0708L542.173 81.8599L543.896 77.1927Z" fill="#F5F0EC"/>
<path d="M569.935 71.9306L572.566 76.1296L577.524 76.3236L574.36 80.1471L575.709 84.9146L571.1 83.0897L566.966 85.8145L567.298 80.8787L563.394 77.8086L568.213 76.5977L569.935 71.9306Z" fill="#F5F0EC"/>
<path d="M577.293 44.0529L579.946 48.2592L584.897 48.475L581.718 52.2694L583.068 57.0368L578.458 55.212L574.317 57.9586L574.656 53.001L570.774 49.9382L575.571 48.72L577.293 44.0529Z" fill="#F5F0EC"/>
<path d="M548.795 52.7668L551.433 56.944L556.384 57.1598L553.205 60.9542L554.548 65.7435L549.945 63.8968L545.826 66.6507L546.143 61.6858L542.261 58.623L547.058 57.4048L548.795 52.7668Z" fill="#F5F0EC"/>
<path d="M534.936 105.726L537.567 109.925L542.525 110.119L539.346 113.914L540.688 118.703L536.086 116.856L531.967 119.61L532.277 114.667L528.402 111.583L533.199 110.364L534.936 105.726Z" fill="#F5F0EC"/>
<path d="M197.493 566.398L35.2371 661.493L109.071 536.22L197.493 566.398Z" fill="#F2D176"/>
<path d="M35.2371 662.244C35.0539 662.244 34.8523 662.171 34.7057 662.025C34.4308 661.731 34.4308 661.273 34.7057 660.999L145.008 548.167C145.301 547.874 145.759 547.874 146.052 548.167C146.346 548.46 146.346 548.918 146.052 549.211L58.749 638.535L152.631 550.75C152.925 550.476 153.401 550.494 153.676 550.787C153.951 551.08 153.933 551.557 153.639 551.831L35.7502 662.08C35.6036 662.208 35.4204 662.281 35.2371 662.281V662.244Z" fill="#190E09"/>
<path d="M713.69 537.32L864.895 556.705L770.023 486.731L713.69 537.32Z" fill="#F2D176"/>
<path d="M864.895 557.31C864.895 557.31 864.749 557.31 864.694 557.273L741.747 512.529C741.435 512.419 741.27 512.071 741.38 511.76C741.49 511.448 741.838 511.283 742.15 511.393L840.064 547.031L746.566 508.168C746.255 508.04 746.108 507.692 746.237 507.38C746.365 507.069 746.713 506.941 747.025 507.051L865.133 556.156C865.427 556.284 865.573 556.614 865.463 556.925C865.372 557.163 865.152 557.31 864.914 557.31H864.895Z" fill="#190E09"/>
<path d="M417.225 157L427.689 162.552L439.509 161.581L433.956 172.061L434.909 183.88L424.445 178.309L412.625 179.28L418.178 168.818L417.225 157Z" fill="#F5F0EC"/>
<path d="M396.916 190L402.157 192.785L408.058 192.29L405.291 197.531L405.767 203.449L400.526 200.664L394.625 201.14L397.393 195.9L396.916 190Z" fill="#F5F0EC"/>
<path d="M326.817 258.887L330.904 266.381L338.38 270.467L330.904 274.553L326.817 282.028L322.712 274.553L315.235 270.467L322.712 266.381L326.817 258.887Z" fill="#F5F0EC"/>
<path d="M230.074 514L235.535 523.986L245.522 529.446L235.535 534.906L230.074 544.892L224.613 534.906L214.625 529.446L224.613 523.986L230.074 514Z" fill="#F5F0EC"/>
<path d="M143.061 435L147.092 442.384L154.477 446.415L147.092 450.464L143.061 457.849L139.011 450.464L131.625 446.415L139.011 442.384L143.061 435Z" fill="#F5F0EC"/>
<path d="M138.869 400L142.48 406.615L149.095 410.224L142.48 413.852L138.869 420.467L135.241 413.852L128.625 410.224L135.241 406.615L138.869 400Z" fill="#F5F0EC"/>
<path d="M724.595 555L728.113 561.45L734.545 564.968L728.113 568.486L724.595 574.935L721.058 568.486L714.625 564.968L721.058 561.45L724.595 555Z" fill="#F5F0EC"/>
<path d="M793.595 368L797.113 374.431L803.564 377.949L797.113 381.486L793.595 387.917L790.076 381.486L783.625 377.949L790.076 374.431L793.595 368Z" fill="#F5F0EC"/>
<path d="M113.181 428L114.445 430.29L116.736 431.555L114.445 432.819L113.181 435.109L111.916 432.819L109.625 431.555L111.916 430.29L113.181 428Z" fill="#F5F0EC"/>
<path d="M690.875 112.854L693.239 117.178L697.582 119.56L693.239 121.924L690.875 126.267L688.511 121.924L684.167 119.56L688.511 117.178L690.875 112.854Z" fill="#F5F0EC"/>
<path d="M440.333 190L442.697 194.343L447.04 196.706L442.697 199.07L440.333 203.412L437.969 199.07L433.625 196.706L437.969 194.343L440.333 190Z" fill="#F5F0EC"/>
<path d="M151.66 555.02C151.55 555.02 151.422 555.001 151.312 554.946C150.927 554.763 150.781 554.305 150.964 553.92L151.917 552.033C152.1 551.648 152.558 551.502 152.943 551.685C153.328 551.868 153.474 552.326 153.291 552.711L152.338 554.598C152.21 554.873 151.935 555.02 151.66 555.02Z" fill="#F5F0EC"/>
<path d="M156.315 545.528C156.205 545.528 156.095 545.51 155.985 545.455C155.6 545.272 155.435 544.814 155.618 544.429C156.223 543.165 156.791 541.882 157.359 540.6C157.524 540.215 157.983 540.05 158.367 540.215C158.752 540.38 158.935 540.838 158.752 541.223C158.184 542.523 157.598 543.806 156.993 545.089C156.865 545.363 156.59 545.528 156.297 545.528H156.315ZM161.19 533.857C161.19 533.857 161.025 533.857 160.933 533.82C160.53 533.674 160.328 533.252 160.456 532.849C160.915 531.53 161.354 530.211 161.758 528.873C161.868 528.47 162.307 528.232 162.711 528.36C163.114 528.488 163.352 528.91 163.224 529.313C162.82 530.669 162.381 532.025 161.904 533.362C161.794 533.674 161.501 533.875 161.19 533.875V533.857ZM164.396 521.617C164.396 521.617 164.323 521.617 164.268 521.617C163.847 521.544 163.572 521.159 163.627 520.738C163.718 520.133 163.81 519.51 163.902 518.887C163.993 518.136 164.085 517.366 164.14 516.597C164.177 516.175 164.543 515.864 164.965 515.9C165.386 515.937 165.698 516.304 165.661 516.725C165.606 517.513 165.514 518.301 165.423 519.089C165.349 519.73 165.258 520.353 165.148 520.976C165.093 521.361 164.763 521.617 164.396 521.617ZM154.097 512.309C153.713 512.309 153.383 512.016 153.328 511.631C153.291 511.21 153.584 510.843 154.006 510.788C155.325 510.642 156.663 510.349 157.946 509.909C158.349 509.781 158.789 509.982 158.917 510.385C159.045 510.788 158.844 511.228 158.441 511.356C157.03 511.833 155.6 512.163 154.152 512.309C154.116 512.309 154.097 512.309 154.079 512.309H154.097ZM145.888 510.935C145.759 510.935 145.649 510.898 145.539 510.843C144.238 510.147 143.084 509.249 142.131 508.15L142.626 507.545L143.285 507.142C144.11 508.095 145.118 508.883 146.254 509.487C146.621 509.689 146.767 510.147 146.566 510.514C146.437 510.77 146.162 510.917 145.888 510.917V510.935ZM164.8 508.993C164.415 508.993 164.085 508.7 164.03 508.297C163.883 506.922 163.682 505.53 163.407 504.192C163.315 503.771 163.59 503.368 164.012 503.294C164.433 503.203 164.836 503.478 164.91 503.899C165.001 504.375 165.093 504.87 165.184 505.365C166.027 504.559 166.852 503.698 167.677 502.708C167.952 502.378 168.428 502.342 168.758 502.616C169.088 502.891 169.125 503.368 168.85 503.697C167.86 504.87 166.889 505.896 165.881 506.831C165.753 506.941 165.606 507.014 165.441 507.032C165.496 507.399 165.533 507.783 165.569 508.168C165.606 508.59 165.313 508.956 164.891 509.011C164.873 509.011 164.836 509.011 164.818 509.011L164.8 508.993ZM139.657 500.546C139.254 500.546 138.924 500.235 138.887 499.85C138.85 499.263 138.814 498.677 138.814 498.091C138.814 497.23 138.85 496.368 138.942 495.507C138.979 495.086 139.364 494.774 139.767 494.811C140.188 494.848 140.5 495.232 140.463 495.654C140.39 496.478 140.335 497.285 140.335 498.091C140.335 498.64 140.353 499.19 140.39 499.74C140.427 500.161 140.115 500.528 139.693 500.564C139.675 500.564 139.657 500.564 139.639 500.564L139.657 500.546ZM173.101 497.046C172.973 497.046 172.826 497.01 172.698 496.936C172.332 496.717 172.222 496.24 172.441 495.892C173.174 494.701 173.889 493.492 174.586 492.282C174.805 491.916 175.264 491.788 175.63 492.008C175.997 492.227 176.125 492.686 175.905 493.052C175.19 494.261 174.476 495.489 173.743 496.698C173.596 496.936 173.339 497.065 173.083 497.065L173.101 497.046ZM161.629 496.79C161.336 496.79 161.061 496.625 160.933 496.332C160.365 495.049 159.723 493.822 159.027 492.686C158.807 492.319 158.917 491.861 159.284 491.641C159.65 491.421 160.108 491.531 160.328 491.898C161.061 493.107 161.739 494.39 162.326 495.727C162.491 496.112 162.326 496.57 161.941 496.735C161.831 496.772 161.739 496.808 161.629 496.808V496.79ZM141.343 488.05C141.343 488.05 141.215 488.05 141.141 488.032C140.738 487.922 140.5 487.5 140.61 487.097C141.013 485.631 141.526 484.129 142.589 482.993C142.882 482.681 143.359 482.681 143.67 482.956C143.982 483.249 144 483.726 143.707 484.037C142.882 484.917 142.442 486.218 142.094 487.482C142.003 487.83 141.691 488.05 141.361 488.05H141.343ZM154.354 486.529C154.171 486.529 153.988 486.456 153.841 486.328C153.456 485.979 153.053 485.631 152.65 485.301C152.008 484.788 151.33 484.33 150.597 483.946C150.231 483.744 150.084 483.286 150.286 482.901C150.487 482.535 150.945 482.388 151.312 482.59C152.118 483.011 152.888 483.524 153.603 484.11C154.042 484.459 154.464 484.825 154.867 485.192C155.179 485.485 155.197 485.961 154.922 486.273C154.776 486.437 154.556 486.529 154.354 486.529ZM179.643 486.218C179.497 486.218 179.369 486.181 179.24 486.089C178.892 485.869 178.782 485.393 179.002 485.027C179.753 483.836 180.523 482.645 181.311 481.472C181.549 481.124 182.026 481.032 182.374 481.252C182.722 481.472 182.814 481.967 182.594 482.315C181.824 483.487 181.055 484.66 180.303 485.833C180.157 486.071 179.918 486.181 179.662 486.181L179.643 486.218ZM186.754 475.737C186.607 475.737 186.442 475.682 186.314 475.59C185.966 475.352 185.892 474.857 186.149 474.528C186.974 473.392 187.817 472.256 188.678 471.12C188.935 470.79 189.411 470.717 189.741 470.973C190.071 471.23 190.144 471.706 189.887 472.036C189.045 473.153 188.202 474.271 187.377 475.407C187.23 475.609 186.992 475.719 186.754 475.719V475.737ZM194.506 465.714C194.341 465.714 194.157 465.659 194.011 465.531C193.681 465.256 193.644 464.78 193.901 464.45C194.799 463.369 195.715 462.288 196.631 461.207C196.906 460.877 197.383 460.841 197.713 461.115C198.042 461.39 198.079 461.867 197.804 462.196C196.888 463.259 195.99 464.34 195.092 465.421C194.945 465.604 194.725 465.696 194.506 465.696V465.714ZM202.844 456.187C202.66 456.187 202.477 456.113 202.331 455.985C202.019 455.692 202.001 455.215 202.294 454.904C203.247 453.878 204.236 452.852 205.208 451.826C205.501 451.514 205.996 451.514 206.289 451.826C206.601 452.119 206.601 452.595 206.289 452.907C205.318 453.915 204.346 454.941 203.394 455.967C203.247 456.132 203.045 456.205 202.825 456.205L202.844 456.187ZM211.75 447.19C211.548 447.19 211.347 447.117 211.2 446.952C210.907 446.64 210.925 446.164 211.219 445.871C212.245 444.9 213.271 443.929 214.316 442.976C214.627 442.683 215.104 442.719 215.397 443.031C215.69 443.342 215.653 443.819 215.342 444.112C214.316 445.065 213.289 446.017 212.263 446.989C212.117 447.135 211.933 447.208 211.732 447.208L211.75 447.19ZM221.169 438.725C220.95 438.725 220.73 438.633 220.583 438.45C220.308 438.12 220.345 437.644 220.675 437.369C221.756 436.453 222.837 435.555 223.937 434.676C224.266 434.419 224.743 434.456 225.018 434.786C225.293 435.115 225.238 435.592 224.908 435.867C223.827 436.746 222.745 437.644 221.664 438.542C221.518 438.67 221.353 438.725 221.169 438.725ZM231.102 430.846C230.864 430.846 230.644 430.736 230.479 430.535C230.222 430.187 230.296 429.71 230.644 429.472C231.78 428.629 232.916 427.786 234.071 426.98C234.419 426.742 234.895 426.815 235.134 427.163C235.372 427.511 235.299 427.988 234.95 428.226C233.814 429.05 232.678 429.875 231.56 430.7C231.432 430.809 231.267 430.846 231.102 430.846ZM241.474 423.59C241.218 423.59 240.979 423.462 240.833 423.242C240.595 422.894 240.705 422.418 241.053 422.179C242.244 421.41 243.417 420.64 244.626 419.889C244.993 419.669 245.451 419.779 245.689 420.127C245.909 420.494 245.799 420.952 245.451 421.19C244.26 421.941 243.087 422.693 241.914 423.462C241.786 423.554 241.639 423.59 241.493 423.59H241.474ZM252.268 416.976C251.993 416.976 251.737 416.829 251.608 416.591C251.407 416.225 251.535 415.748 251.902 415.547C253.129 414.85 254.357 414.154 255.603 413.476C255.97 413.275 256.446 413.403 256.648 413.788C256.85 414.154 256.703 414.63 256.336 414.832C255.109 415.492 253.881 416.188 252.671 416.884C252.543 416.957 252.415 416.994 252.286 416.994L252.268 416.976ZM263.465 411.058C263.172 411.058 262.915 410.893 262.769 410.618C262.585 410.233 262.75 409.775 263.117 409.592C264.381 408.987 265.664 408.382 266.965 407.796C267.35 407.631 267.808 407.796 267.973 408.181C268.156 408.566 267.973 409.024 267.588 409.189C266.306 409.775 265.041 410.361 263.777 410.966C263.667 411.021 263.557 411.039 263.447 411.039L263.465 411.058ZM275.084 406.019C274.772 406.019 274.479 405.836 274.369 405.524C274.222 405.121 274.424 404.681 274.809 404.535C276.128 404.04 277.466 403.545 278.804 403.087C279.207 402.959 279.647 403.16 279.775 403.564C279.903 403.967 279.702 404.406 279.298 404.535C277.979 404.993 276.66 405.451 275.358 405.964C275.267 406 275.175 406.019 275.084 406.019ZM287.142 402.171C286.794 402.171 286.482 401.933 286.409 401.603C286.299 401.2 286.555 400.778 286.959 400.669C288.333 400.32 289.726 399.991 291.1 399.697C291.522 399.606 291.925 399.881 292.016 400.284C292.108 400.705 291.833 401.108 291.43 401.182C290.074 401.475 288.7 401.786 287.343 402.134C287.27 402.134 287.215 402.153 287.16 402.153L287.142 402.171ZM316.445 400.064C316.445 400.064 316.371 400.064 316.335 400.064C314.979 399.862 313.586 399.716 312.193 399.624C311.772 399.587 311.46 399.221 311.478 398.8C311.515 398.378 311.882 398.048 312.303 398.103C313.732 398.213 315.162 398.36 316.555 398.561C316.976 398.616 317.269 399.001 317.196 399.423C317.141 399.807 316.811 400.082 316.445 400.082V400.064ZM299.585 399.862C299.2 399.862 298.87 399.569 298.834 399.184C298.797 398.763 299.09 398.378 299.512 398.342C300.923 398.195 302.352 398.067 303.763 397.993C304.221 397.993 304.551 398.287 304.57 398.726C304.588 399.148 304.258 399.514 303.837 399.533C302.444 399.606 301.051 399.716 299.677 399.862C299.64 399.862 299.622 399.862 299.585 399.862Z" fill="#F5F0EC"/>
<path d="M326.817 402.556C326.817 402.556 326.652 402.556 326.56 402.519C325.901 402.299 325.241 402.079 324.581 401.878C324.178 401.75 323.94 401.328 324.068 400.925C324.196 400.522 324.618 400.302 325.021 400.412C325.699 400.614 326.377 400.833 327.055 401.072C327.458 401.218 327.66 401.64 327.532 402.043C327.422 402.354 327.128 402.556 326.817 402.556Z" fill="#F5F0EC"/>
<path d="M751.789 503.166C751.789 503.166 751.624 503.166 751.551 503.129C750.323 502.726 749.114 502.195 747.959 501.517C747.593 501.297 747.464 500.839 747.684 500.473C747.886 500.106 748.362 499.978 748.729 500.198C749.792 500.802 750.91 501.297 752.028 501.682C752.431 501.81 752.651 502.25 752.522 502.653C752.412 502.983 752.119 503.184 751.789 503.184V503.166ZM742.022 496.057C741.802 496.057 741.564 495.965 741.417 495.764C740.537 494.646 739.731 493.418 739.016 492.136C738.815 491.769 738.943 491.293 739.31 491.091C739.676 490.89 740.134 491.018 740.354 491.385C741.032 492.612 741.802 493.748 742.627 494.811C742.883 495.141 742.828 495.617 742.498 495.892C742.352 496.002 742.187 496.057 742.022 496.057ZM736.726 484.623C736.377 484.623 736.048 484.385 735.974 484.019C735.681 482.645 735.443 481.197 735.296 479.75C735.26 479.328 735.571 478.962 735.993 478.907C736.377 478.888 736.781 479.163 736.836 479.603C736.982 480.996 737.184 482.388 737.477 483.707C737.569 484.129 737.312 484.532 736.891 484.623C736.836 484.623 736.781 484.623 736.726 484.623ZM736.048 471.981C736.048 471.981 736.011 471.981 735.993 471.981C735.571 471.944 735.26 471.578 735.296 471.156C735.406 469.8 735.553 468.408 735.773 466.905C735.828 466.484 736.231 466.191 736.634 466.264C737.055 466.319 737.349 466.704 737.275 467.125C737.074 468.591 736.909 469.947 736.799 471.284C736.762 471.688 736.432 471.981 736.029 471.981H736.048ZM738.082 459.448C738.082 459.448 737.972 459.448 737.917 459.43C737.514 459.338 737.239 458.935 737.33 458.513C737.642 457.121 737.972 455.747 738.32 454.373C738.43 453.969 738.851 453.713 739.255 453.823C739.658 453.933 739.914 454.336 739.804 454.757C739.456 456.113 739.126 457.487 738.815 458.862C738.741 459.21 738.412 459.466 738.063 459.466L738.082 459.448ZM741.417 447.19C741.417 447.19 741.27 447.19 741.179 447.153C740.776 447.025 740.556 446.585 740.684 446.182C741.124 444.826 741.564 443.489 742.04 442.151C742.187 441.748 742.608 441.547 743.011 441.693C743.414 441.84 743.616 442.261 743.469 442.664C743.011 443.984 742.553 445.321 742.132 446.659C742.022 446.988 741.729 447.19 741.399 447.19H741.417ZM689.812 443.562C689.445 443.562 689.134 443.306 689.061 442.939C688.987 442.518 689.262 442.133 689.665 442.041C691.003 441.785 692.359 441.455 693.679 441.034C694.082 440.905 694.522 441.125 694.632 441.528C694.76 441.931 694.54 442.353 694.137 442.481C692.762 442.921 691.351 443.269 689.94 443.525C689.885 443.525 689.849 443.525 689.794 443.525L689.812 443.562ZM701.65 439.091C701.394 439.091 701.137 438.963 700.991 438.707C700.771 438.34 700.899 437.864 701.265 437.662C702.438 436.966 703.611 436.215 704.747 435.39C705.077 435.134 705.572 435.207 705.81 435.555C706.067 435.903 705.975 436.38 705.645 436.618C704.472 437.461 703.263 438.267 702.035 438.981C701.907 439.055 701.779 439.091 701.65 439.091ZM752.944 438.615C751.533 438.615 750.085 438.505 748.637 438.322C748.216 438.267 747.923 437.882 747.978 437.479C748.033 437.058 748.454 436.746 748.821 436.819C750.213 436.984 751.606 437.094 752.962 437.094C753.384 437.094 753.732 437.442 753.714 437.864C753.714 438.285 753.365 438.615 752.944 438.615ZM761.337 437.662C760.989 437.662 760.677 437.424 760.604 437.094C760.494 436.691 760.751 436.27 761.154 436.16C762.492 435.812 763.811 435.372 765.057 434.859C765.442 434.694 765.9 434.877 766.065 435.262C766.23 435.647 766.065 436.105 765.662 436.27C764.342 436.819 762.95 437.296 761.539 437.644C761.465 437.644 761.41 437.662 761.355 437.662H761.337ZM740.464 436.471C740.464 436.471 740.299 436.471 740.226 436.435C738.888 435.995 737.532 435.482 736.194 434.914C735.809 434.749 735.626 434.291 735.791 433.906C735.956 433.521 736.414 433.338 736.799 433.503C738.082 434.053 739.401 434.547 740.702 434.969C741.105 435.097 741.325 435.537 741.197 435.94C741.087 436.27 740.794 436.471 740.464 436.471ZM745.815 435.28C745.724 435.28 745.614 435.262 745.522 435.225C745.137 435.06 744.954 434.621 745.119 434.217C745.669 432.917 746.237 431.616 746.823 430.315C747.006 429.93 747.464 429.765 747.831 429.93C748.216 430.113 748.381 430.553 748.216 430.938C747.629 432.22 747.08 433.503 746.53 434.804C746.402 435.097 746.127 435.28 745.834 435.28H745.815ZM772.424 431.744C772.222 431.744 772.021 431.671 771.874 431.506C771.581 431.194 771.599 430.718 771.911 430.425C772.9 429.49 773.817 428.464 774.66 427.383C774.916 427.053 775.393 426.98 775.723 427.237C776.053 427.493 776.126 427.969 775.869 428.299C774.99 429.454 774 430.553 772.955 431.542C772.809 431.689 772.626 431.744 772.424 431.744ZM711.528 431.176C711.345 431.176 711.143 431.103 710.996 430.974C710.685 430.681 710.667 430.205 710.96 429.893C711.894 428.886 712.811 427.823 713.672 426.742C713.928 426.412 714.423 426.357 714.753 426.614C715.083 426.87 715.138 427.365 714.881 427.695C713.983 428.831 713.049 429.93 712.078 430.956C711.931 431.121 711.729 431.194 711.528 431.194V431.176ZM729.029 430.993C728.882 430.993 728.736 430.956 728.607 430.864C727.38 430.077 726.207 429.234 725.107 428.354C724.777 428.098 724.722 427.603 724.979 427.273C725.235 426.943 725.73 426.888 726.06 427.145C727.123 427.988 728.259 428.794 729.45 429.563C729.799 429.783 729.908 430.26 729.67 430.626C729.524 430.846 729.285 430.974 729.029 430.974V430.993ZM751.24 423.792C751.111 423.792 751.001 423.755 750.891 423.7C750.525 423.499 750.378 423.041 750.58 422.674C751.24 421.41 751.918 420.164 752.632 418.936C752.834 418.57 753.31 418.442 753.677 418.643C754.043 418.845 754.172 419.321 753.97 419.688C753.274 420.915 752.596 422.143 751.954 423.389C751.826 423.645 751.551 423.792 751.276 423.792H751.24ZM719.554 422.619C719.335 422.619 719.115 422.528 718.968 422.326C718.052 421.19 717.209 419.999 716.457 418.79C716.238 418.423 716.347 417.965 716.714 417.745C717.08 417.525 717.539 417.635 717.759 418.002C718.015 418.423 718.29 418.845 718.565 419.248C719.115 418.203 719.646 417.122 720.123 416.041C720.288 415.656 720.746 415.473 721.13 415.657C721.515 415.84 721.699 416.279 721.515 416.664C720.929 417.965 720.288 419.266 719.609 420.512C719.591 420.549 719.554 420.585 719.536 420.622C719.738 420.878 719.921 421.135 720.141 421.373C720.416 421.703 720.361 422.179 720.031 422.454C719.884 422.564 719.719 422.619 719.554 422.619ZM779.15 421.117C779.15 421.117 779.003 421.117 778.911 421.08C778.508 420.952 778.288 420.53 778.417 420.127C778.838 418.808 779.113 417.47 779.278 416.133C779.333 415.711 779.699 415.4 780.121 415.455C780.542 415.51 780.836 415.876 780.799 416.298C780.634 417.727 780.341 419.156 779.883 420.585C779.773 420.915 779.479 421.117 779.15 421.117ZM757.672 412.835C757.525 412.835 757.379 412.798 757.25 412.707C756.902 412.487 756.792 412.01 757.03 411.644C757.727 410.581 758.423 409.518 759.156 408.456L759.413 408.089C759.651 407.741 760.128 407.668 760.476 407.906C760.824 408.144 760.897 408.621 760.659 408.969L760.421 409.317C759.706 410.361 759.01 411.406 758.332 412.468C758.185 412.688 757.947 412.817 757.69 412.817L757.672 412.835ZM713.617 411.479C713.287 411.479 712.994 411.277 712.884 410.948C712.462 409.61 712.096 408.199 711.821 406.77C711.748 406.349 712.004 405.945 712.426 405.872C712.847 405.781 713.25 406.055 713.324 406.477C713.599 407.851 713.947 409.207 714.35 410.508C714.478 410.911 714.258 411.332 713.855 411.461C713.782 411.479 713.709 411.497 713.635 411.497L713.617 411.479ZM723.696 409.152C723.696 409.152 723.549 409.152 723.495 409.115C723.091 409.005 722.853 408.584 722.963 408.163C723.33 406.862 723.678 405.487 723.971 404.095C724.063 403.692 724.466 403.417 724.887 403.509C725.309 403.6 725.565 404.003 725.474 404.425C725.162 405.835 724.814 407.246 724.447 408.584C724.356 408.914 724.044 409.134 723.714 409.134L723.696 409.152ZM779.076 408.657C778.765 408.657 778.472 408.474 778.362 408.163C778.197 407.704 777.995 407.246 777.793 406.807C777.409 406 776.969 405.267 776.492 404.626C776.236 404.278 776.309 403.802 776.639 403.563C776.969 403.307 777.464 403.38 777.702 403.71C778.233 404.425 778.728 405.249 779.15 406.147C779.388 406.642 779.589 407.136 779.773 407.631C779.919 408.034 779.718 408.474 779.314 408.621C779.223 408.657 779.131 408.676 779.058 408.676L779.076 408.657ZM765.9 403.27C765.662 403.27 765.405 403.142 765.259 402.922C765.02 402.574 765.112 402.098 765.479 401.859C766.89 400.925 768.282 400.339 769.657 400.1C770.06 400.027 770.463 400.32 770.536 400.723C770.61 401.127 770.317 401.53 769.913 401.603C768.759 401.804 767.549 402.299 766.34 403.124C766.212 403.215 766.065 403.252 765.918 403.252L765.9 403.27ZM711.693 398.964C711.271 398.964 710.941 398.635 710.923 398.213C710.923 397.773 710.923 397.334 710.923 396.912C710.923 395.923 710.941 394.933 710.996 393.944C710.996 393.523 711.29 393.156 711.803 393.211C712.224 393.211 712.554 393.596 712.536 394.017C712.499 394.988 712.462 395.96 712.462 396.931C712.462 397.352 712.462 397.773 712.462 398.213C712.462 398.635 712.133 398.983 711.711 399.001L711.693 398.964ZM726.005 396.674C726.005 396.674 725.95 396.674 725.932 396.674C725.51 396.637 725.199 396.253 725.235 395.831C725.382 394.439 725.474 393.046 725.547 391.654C725.565 391.232 725.932 390.939 726.353 390.921C726.775 390.939 727.105 391.306 727.086 391.727C727.013 393.156 726.921 394.567 726.775 395.996C726.738 396.399 726.408 396.692 726.005 396.692V396.674ZM712.572 386.303C712.572 386.303 712.499 386.303 712.462 386.303C712.041 386.248 711.748 385.864 711.821 385.442C712.023 384.031 712.243 382.639 712.499 381.228C712.572 380.807 712.976 380.532 713.379 380.605C713.8 380.678 714.075 381.081 714.002 381.485C713.764 382.859 713.544 384.251 713.342 385.644C713.287 386.029 712.957 386.303 712.591 386.303H712.572ZM726.353 383.976C725.95 383.976 725.602 383.647 725.584 383.244C725.529 381.833 725.455 380.44 725.345 379.048C725.309 378.626 725.639 378.26 726.042 378.223C726.5 378.186 726.83 378.516 726.866 378.919C726.976 380.33 727.05 381.759 727.105 383.17C727.105 383.592 726.793 383.94 726.372 383.958C726.372 383.958 726.353 383.958 726.335 383.958L726.353 383.976ZM714.9 373.807C714.9 373.807 714.79 373.807 714.735 373.807C714.313 373.716 714.057 373.313 714.148 372.891L714.68 370.527C714.808 369.923 714.973 369.282 715.175 368.677C715.321 368.274 715.743 368.072 716.146 368.2C716.549 368.347 716.751 368.769 716.622 369.172C716.439 369.721 716.292 370.289 716.183 370.857L715.669 373.203C715.596 373.569 715.266 373.807 714.918 373.807H714.9ZM724.942 371.37C724.612 371.37 724.319 371.169 724.209 370.839C723.898 369.868 723.494 369.08 722.963 368.439C722.743 368.182 722.505 367.926 722.212 367.706C721.882 367.449 721.809 366.973 722.083 366.625C722.358 366.277 722.816 366.24 723.165 366.496C723.549 366.79 723.879 367.119 724.173 367.486C724.814 368.292 725.309 369.245 725.675 370.381C725.804 370.784 725.584 371.205 725.18 371.334C725.107 371.352 725.034 371.37 724.942 371.37Z" fill="#F5F0EC"/>
<path d="M636.843 386.113C636.585 385.973 636.415 385.672 636.449 385.378C636.578 383.989 636.691 382.59 636.796 381.167C636.835 380.75 637.198 380.427 637.615 380.465C638.032 380.504 638.356 380.868 638.317 381.284C638.212 382.707 638.091 384.122 637.978 385.52C637.939 385.937 637.576 386.261 637.143 386.213C637.045 386.202 636.939 386.165 636.859 386.122L636.843 386.113ZM397.859 254.748C397.586 254.6 397.415 254.299 397.467 253.972C397.671 252.561 397.94 251.143 398.266 249.736C398.362 249.329 398.772 249.073 399.179 249.168C399.586 249.264 399.843 249.675 399.747 250.081C399.431 251.432 399.163 252.808 398.961 254.179C398.897 254.603 398.51 254.893 398.086 254.83C397.988 254.818 397.899 254.791 397.818 254.747L397.859 254.748ZM637.614 373.439C637.373 373.307 637.201 373.047 637.22 372.745C637.267 371.352 637.281 369.943 637.296 368.533C637.294 368.115 637.65 367.766 638.068 367.764C638.486 367.761 638.835 368.118 638.838 368.536C638.839 369.954 638.799 371.372 638.76 372.789C638.737 373.214 638.39 373.547 637.98 373.533C637.857 373.529 637.752 373.492 637.639 373.431L637.614 373.439ZM401.288 242.557C400.95 242.374 400.8 241.959 400.944 241.578C401.513 240.261 402.115 238.961 402.78 237.697C402.982 237.326 403.438 237.178 403.808 237.379C404.13 237.554 404.327 238.036 404.126 238.406C403.486 239.623 402.877 240.898 402.334 242.166C402.166 242.554 401.717 242.728 401.32 242.575C401.304 242.566 401.272 242.549 401.256 242.54L401.288 242.557ZM637.526 360.735C637.301 360.613 637.137 360.378 637.121 360.098C637.054 358.686 636.978 357.289 636.886 355.884C636.859 355.473 637.167 355.098 637.603 355.064C638.03 355.046 638.389 355.345 638.423 355.78C638.531 357.194 638.615 358.616 638.673 360.044C638.691 360.471 638.376 360.821 637.949 360.84C637.801 360.843 637.671 360.814 637.542 360.744L637.526 360.735ZM407.644 231.581C407.644 231.581 407.58 231.546 407.548 231.528C407.203 231.279 407.138 230.785 407.404 230.449C408.27 229.314 409.194 228.19 410.139 227.139C410.421 226.813 410.905 226.804 411.215 227.077C411.526 227.35 411.55 227.843 411.278 228.154C410.366 229.18 409.46 230.273 408.635 231.368C408.403 231.68 407.991 231.748 407.669 231.573L407.644 231.581ZM636.42 348.063C636.211 347.949 636.054 347.739 636.021 347.492C635.839 346.1 635.615 344.707 635.392 343.313C635.323 342.901 635.599 342.509 636.02 342.425C636.432 342.357 636.825 342.632 636.909 343.053C637.149 344.455 637.364 345.865 637.538 347.272C637.597 347.701 637.289 348.076 636.886 348.128C636.729 348.147 636.558 348.117 636.413 348.038L636.42 348.063ZM416.486 222.517C416.405 222.473 416.318 222.404 416.255 222.328C415.995 222 416.053 221.51 416.381 221.25C417.51 220.362 418.678 219.516 419.861 218.72C420.213 218.494 420.686 218.584 420.912 218.936C421.138 219.288 421.048 219.76 420.696 219.986C419.555 220.743 418.42 221.565 417.325 222.43C417.073 222.627 416.752 222.64 416.495 222.501L416.486 222.517ZM634.07 335.57C633.893 335.474 633.743 335.288 633.693 335.073C633.354 333.701 632.998 332.36 632.6 331.019C632.482 330.621 632.718 330.186 633.116 330.069C633.513 329.951 633.948 330.187 634.066 330.584C634.455 331.942 634.835 333.316 635.165 334.705C635.274 335.119 635.015 335.52 634.601 335.629C634.411 335.671 634.215 335.648 634.054 335.561L634.07 335.57ZM520.408 269.31C519.715 268.934 519.006 268.549 518.34 268.125C517.97 267.924 517.855 267.444 518.081 267.067C518.298 266.705 518.792 266.64 519.139 266.807C520.337 267.52 521.561 268.185 522.802 268.817C523.139 269.042 523.33 269.458 523.145 269.837C522.96 270.216 522.504 270.365 522.125 270.18C521.552 269.89 520.996 269.609 520.432 269.303L520.408 269.31ZM529.861 273.483C529.539 273.309 529.38 272.91 529.506 272.561C529.643 272.156 530.084 271.958 530.49 272.095C531.803 272.557 533.133 272.988 534.481 273.386C534.895 273.506 535.118 273.94 534.99 274.329C534.869 274.744 534.435 274.967 534.046 274.839C532.682 274.432 531.32 273.984 529.991 273.513C529.959 273.495 529.927 273.478 529.878 273.451L529.861 273.483ZM511.47 263.227C511.47 263.227 511.373 263.174 511.325 263.148C510.264 262.26 509.206 261.289 508.167 260.245C507.866 259.956 507.866 259.456 508.171 259.163C508.46 258.861 508.96 258.862 509.253 259.167C510.269 260.177 511.303 261.114 512.332 261.985C512.658 262.267 512.692 262.744 512.419 263.054C512.179 263.341 511.792 263.402 511.47 263.227ZM427.373 216.023C427.228 215.944 427.109 215.817 427.033 215.65C426.866 215.267 427.053 214.806 427.436 214.639C428.759 214.085 430.112 213.59 431.48 213.144C431.886 213.01 432.305 213.238 432.439 213.644C432.573 214.05 432.345 214.469 431.939 214.603C430.621 215.034 429.301 215.506 428.028 216.045C427.812 216.136 427.566 216.127 427.357 216.014L427.373 216.023ZM542.103 276.899C541.813 276.741 541.644 276.4 541.721 276.066C541.817 275.659 542.211 275.394 542.626 275.474C543.986 275.774 545.379 276.05 546.755 276.318C547.171 276.398 547.436 276.792 547.373 277.217C547.293 277.632 546.89 277.914 546.475 277.834C545.073 277.573 543.689 277.28 542.305 276.988C542.232 276.969 542.158 276.95 542.094 276.915L542.103 276.899ZM630.239 323.461C630.094 323.382 629.959 323.247 629.892 323.064C629.37 321.759 628.815 320.478 628.234 319.203C628.067 318.821 628.23 318.367 628.613 318.2C629.004 318.016 629.449 318.195 629.617 318.578C630.213 319.861 630.767 321.183 631.296 322.513C631.455 322.912 631.26 323.348 630.861 323.507C630.645 323.598 630.408 323.573 630.214 323.468L630.239 323.461ZM502.71 254.051C502.63 254.007 502.542 253.938 502.479 253.862C501.598 252.759 500.725 251.639 499.87 250.486C499.62 250.142 499.684 249.676 500.029 249.426C500.374 249.175 500.839 249.24 501.09 249.585C501.937 250.712 502.794 251.823 503.659 252.919C503.918 253.247 503.869 253.721 503.532 253.997C503.279 254.193 502.95 254.223 502.677 254.074L502.71 254.051ZM554.613 279.167C554.339 279.018 554.178 278.701 554.23 278.375C554.293 277.951 554.696 277.67 555.096 277.74C556.483 277.951 557.886 278.171 559.273 278.382C559.697 278.446 559.987 278.833 559.924 279.257C559.86 279.681 559.473 279.971 559.049 279.908C557.646 279.688 556.25 279.493 554.847 279.273C554.749 279.262 554.685 279.227 554.604 279.183L554.613 279.167ZM495.192 243.818C495.095 243.765 494.991 243.688 494.921 243.587L494.717 243.31C493.982 242.244 493.222 241.185 492.479 240.135C492.228 239.79 492.318 239.318 492.662 239.067C493.007 238.816 493.48 238.906 493.73 239.251C494.49 240.309 495.225 241.376 495.976 242.45L496.18 242.728C496.43 243.073 496.341 243.545 495.996 243.796C495.752 243.976 495.441 243.974 495.199 243.843L495.192 243.818ZM439.596 212.714C439.387 212.6 439.23 212.39 439.197 212.143C439.138 211.714 439.429 211.331 439.849 211.288C441.266 211.098 442.713 210.966 444.126 210.899C444.553 210.881 444.903 211.196 444.922 211.623C444.94 212.05 444.625 212.4 444.198 212.419C442.81 212.478 441.419 212.62 440.052 212.795C439.896 212.814 439.725 212.784 439.58 212.705L439.596 212.714ZM567.202 281.061C566.928 280.912 566.766 280.595 566.818 280.269C566.882 279.845 567.285 279.563 567.684 279.634C569.087 279.854 570.49 280.074 571.868 280.301C572.284 280.38 572.574 280.767 572.495 281.183C572.431 281.607 572.028 281.888 571.613 281.809C570.218 281.573 568.831 281.362 567.429 281.142C567.33 281.131 567.266 281.096 567.186 281.052L567.202 281.061ZM624.579 312.11C624.466 312.049 624.371 311.956 624.293 311.83C623.562 310.641 622.782 309.467 621.975 308.341C621.724 307.996 621.814 307.524 622.159 307.273C622.503 307.022 622.976 307.112 623.227 307.457C624.041 308.608 624.829 309.807 625.583 311.029C625.809 311.381 625.694 311.861 625.326 312.078C625.083 312.218 624.788 312.224 624.563 312.102L624.579 312.11ZM487.707 233.561C487.61 233.509 487.538 233.449 487.475 233.373C486.61 232.278 485.72 231.19 484.788 230.142C484.504 229.821 484.536 229.338 484.858 229.054C485.179 228.77 485.661 228.802 485.946 229.123C486.885 230.197 487.791 231.293 488.664 232.413C488.923 232.742 488.866 233.232 488.537 233.491C488.285 233.688 487.964 233.701 487.707 233.561ZM579.713 283.288C579.423 283.131 579.255 282.789 579.331 282.455C579.411 282.04 579.822 281.783 580.237 281.863C581.621 282.156 583.013 282.474 584.395 282.807C584.818 282.912 585.05 283.33 584.954 283.736C584.859 284.143 584.448 284.4 584.025 284.295C582.667 283.954 581.308 283.654 579.924 283.361C579.851 283.342 579.778 283.323 579.713 283.288ZM616.882 302.052C616.882 302.052 616.737 301.973 616.69 301.906C615.732 300.906 614.724 299.921 613.705 298.993C613.395 298.72 613.37 298.227 613.643 297.916C613.916 297.606 614.393 297.573 614.719 297.854C615.77 298.8 616.802 299.819 617.783 300.852C618.077 301.158 618.06 301.649 617.755 301.942C617.501 302.179 617.147 302.217 616.857 302.059L616.882 302.052ZM452.26 212.626C451.986 212.477 451.832 212.185 451.859 211.866C451.897 211.45 452.293 211.143 452.701 211.198C454.114 211.361 455.55 211.598 456.942 211.874C457.358 211.954 457.631 212.373 457.535 212.78C457.455 213.196 457.045 213.452 456.629 213.373C455.278 213.097 453.891 212.886 452.502 212.716C452.404 212.705 452.315 212.677 452.219 212.625L452.26 212.626ZM591.96 286.581C591.637 286.406 591.47 286.023 591.605 285.659C591.742 285.253 592.167 285.046 592.572 285.183C593.926 285.647 595.271 286.127 596.59 286.656C596.962 286.816 597.176 287.266 597.007 287.654C596.855 288.05 596.397 288.24 596.009 288.071C594.707 287.551 593.403 287.072 592.081 286.626C592.049 286.608 592 286.582 591.968 286.565L591.96 286.581ZM607.178 293.885C607.178 293.885 607.146 293.867 607.114 293.85L606.777 293.625C605.742 292.959 604.665 292.291 603.547 291.663C603.176 291.462 603.036 290.99 603.254 290.628C603.455 290.258 603.915 290.216 604.289 290.335C605.423 290.972 606.557 291.65 607.615 292.35L607.952 292.575C608.305 292.808 608.404 293.279 608.171 293.632C607.946 293.968 607.516 294.069 607.162 293.876L607.178 293.885ZM479.049 224.274C479.049 224.274 478.953 224.221 478.904 224.195C478.61 223.931 478.323 223.692 478.02 223.444C477.246 222.794 476.471 222.186 475.647 221.592C475.302 221.343 475.228 220.865 475.478 220.521C475.727 220.177 476.205 220.103 476.549 220.352C477.39 220.954 478.205 221.605 478.994 222.263C479.297 222.511 479.608 222.784 479.902 223.048C480.229 223.33 480.262 223.807 479.981 224.133C479.75 224.404 479.338 224.472 479.032 224.306L479.049 224.274ZM464.581 215.626C464.243 215.442 464.084 215.043 464.236 214.688C464.388 214.291 464.83 214.093 465.226 214.246C466.57 214.767 467.896 215.32 469.178 215.954C469.559 216.098 469.722 216.603 469.537 216.983C469.352 217.362 468.888 217.526 468.508 217.341C467.266 216.75 465.98 216.198 464.669 215.694C464.637 215.677 464.605 215.66 464.572 215.642L464.581 215.626Z" fill="#F5F0EC"/>
</svg>
