<svg xmlns="http://www.w3.org/2000/svg" width="430" height="669" fill="none" viewBox="0 0 430 669"><path fill="#fff" d="M430 664.35a9 9 0 0 0-2.61-.18c.27 1.17 0 2.38-.83 3.42a10.4 10.4 0 0 0-6.32-2.56c-2.56-.05-5.22 1.45-4.83 3.13-1.37-1.15-3.74-1.71-5.89-1.4l-.58-3.17c-2.06 1.16-5.13.05-7.27-1.02-2.18-1.05-5.5-2-7.24-.63-1.25.95-3.2 2.27-5.01 1.91s-3.27-1.25-5.02-1.74c-2.31-.65-4.92-.56-7.44-.48-4.17.16-8.55.38-12.02 1.92-1.57.7-3.18 1.7-5.01 1.43-1.17-.18-2.06-.84-3.23-1.01-1.43-.23-2.84.31-4.22.72-1.36.39-3.19.55-4.1-.23-.38-.32-.56-.78-1.05-1.03-1.1-.57-2.72.3-4.1.08-1.21-.22-1.69-1.17-2.53-1.8-2.21-1.65-6.26-.67-9.14.43l-.15-1.73c-1.96 1.64-6 1.16-8.61-.03-2.6-1.18-4.76-2.93-7.77-3.56a17 17 0 0 1-5.36 3.27 23 23 0 0 0-.53-5.08q-5.11.3-10.23.57c-2.22.11-5 .04-5.97-1.3-1.58.27-1.06 2.3-2.66 2.57a3 3 0 0 1-1.69-.3q-2.09-.8-4.24-1.6a13 13 0 0 1-4.65 4.06c-.9.47-2.03.9-3.08.68-1.33-.3-1.76-1.39-2.71-2.1-1.21-.9-3.29-1.09-5.06-.79a18 18 0 0 0-4.74 1.78l-9.32 4.55c-1.66.8-3.75 1.66-5.62 1.11-4.2-1.22-9.83.6-10.8 3.6q-2.14-.87-4.27-1.7a6.4 6.4 0 0 0-1.82 2.54c-1.37-.8-3-1.65-4.8-1.45-.93.11-1.75.49-2.62.77-2.16.7-4.82.65-6.96-.1-1.48-.51-2.6-2.1-1.12-2.63-2.42-.8-5.58-.5-7.55.73-.94.58-1.63 1.33-2.62 1.86-1 .52-2.51.8-3.52.27-1.1-.54-1.12-1.73-2.26-2.23-1.64-.7-3.56.56-5.45.88a6.7 6.7 0 0 1-4.8-1.14 10 10 0 0 1-2.62-3.09l-5.44 2.02q-.03-.88-.1-1.76-2.49-.04-4.98-.11-.26-.72-.56-1.4c-1.2.25-2.55.5-3.64.12-1.13-.38-1.44-1.68-.26-1.96-.8-.93-2.25-1.29-3.8-1.1-1.55.17-2.84 1.05-3.1 2.09a11 11 0 0 0-3.92-1.53c-.55-.1-1.2-.16-1.6.09-1.04.62.78 1.56 1.14 2.45.34.85-.87 1.7-2.18 1.86-1.28.14-2.58-.19-3.8-.52.28.92-.02 1.98-1.06 2.62-1 .67-2.82.77-3.83.1-1.66-1.13-.59-3.64-2.82-4.16-2.12-.5-3.53 1.7-5.72 2.03a6.3 6.3 0 0 1-.35-3.7c-2.56.95-6 .72-8.22-.55-.97-.55-1.94-1.33-3.19-1.23-1.91.16-3.04 2.28-4.83 1.78a2.4 2.4 0 0 1-.62-1.66c-1.32.42-3.22.75-4.06-.07-.26-.26-.34-.6-.58-.88-.87-1.06-3.28-.75-4.88-.16s-3.52 1.32-5.09.7c-.51-.2-.9-.53-1.33-.83-2.02-1.39-5.06-1.82-7.9-2.2q-4.2-.52-8.4-1.09c-1.54-.2-3.19-.39-4.67-.06-1.44.33-2.62 1.14-4.13 1.29-2.51.23-4.4-1.34-6.32-2.44-2.82-1.62-6.5-2.35-10.05-3.06-.8-.15-1.62-.3-2.44-.21-.93.11-1.71.56-2.58.88-1.42.54-3.14.76-4.78.6-.86-.95.84-2.19.27-3.24-.37-.68-1.52-.98-2.43-1.38-1.98-.94-2.78-2.86-1.79-4.35l-4.88-.6c-2-.23-4.64 2.4-6.5 1.86-.82-.23-1.14-.88-1.44-1.46a7.4 7.4 0 0 0-3.14-3.21 7.7 7.7 0 0 0-5.48-.58c-1.2.36-2.1 1.1-3.35 1.39-1.24.3-3.07-.25-2.8-1.11-1.33.89-4.1-.08-3.76-1.33l-3.01 1.17c-.48.19-1.01.39-1.57.33-.54-.04-1.03-.46-.75-.8-1.21 1.03-3.55.14-5.43-.14-1.36-.2-2.77-.01-4.15.18l-5.7.77c-.59.08-1.2.16-1.62.44q-.2.12-.34.3V-140h430z"/></svg>