<svg xmlns="http://www.w3.org/2000/svg" width="225" height="709" fill="none" viewBox="0 0 225 709"><path fill="#f5f0ec" d="m170.07 116.3 7.63 8 10.76 2.6-8 7.66-2.63 10.75-7.63-8-10.75-2.62 7.99-7.64zm-27.97 23.16 3.83 4 5.37 1.3-3.99 3.83-1.31 5.38-3.83-4-5.37-1.32 3.99-3.83zm-81.64 40.19 1.23 7.8 5.09 5.72-7.5 1.54-5.64 5.5-1.25-7.79-5.09-5.71 7.5-1.55zm120.19-27.4.82 4.55 3.16 3.38-4.55.81-3.38 3.16-.82-4.55-3.16-3.37 4.55-.82z"/><path fill="#0b3048" fill-rule="evenodd" d="m167.68 345.14-102.8 2.12-.9-35.92A86.7 86.7 0 0 0 115.61 327a86 86 0 0 0 51.17-18.03l.93 36.19z" clip-rule="evenodd"/><path fill="#e53914" fill-rule="evenodd" d="M115.58 326.97a86.7 86.7 0 0 1-51.63-15.64l-.99-37.9 102.81-2.24.98 37.75a86 86 0 0 1-51.17 18.03m56.52 189.57c-6.56-5.85-27.5-14.6-51.79-14.1-24.32.55-44.76 10.22-51.02 16.33L64.87 347.3l102.8-2.13 4.4 171.36z" clip-rule="evenodd"/><path fill="#0b3048" fill-rule="evenodd" d="M223.33 515.42c-13.24-19.33-39.98-13.68-51.23 1.12l-4.47-172.45-1.9-74.46 25.6-.54 3.5-.11 22.12-.47 1.92 74.57q.27 9.53.48 19.04c1.3 51.1 2.64 102.2 3.93 153.31zM33.62 274.1l-21.85.47-1.63-63.35 21.78-.47a86 86 0 0 0-5.16 31.62 86 86 0 0 0 6.87 31.7z" clip-rule="evenodd"/><path fill="#f08011" fill-rule="evenodd" d="M200.14 238.79a86 86 0 0 1-5.22 31.76l-29.15.64-102.81 2.24-29.36.62a86 86 0 0 1-6.87-31.7 86 86 0 0 1 5.16-31.61l80.73-1.75.06.02 77.02-1.69 3.57-.08a86 86 0 0 1 6.81 31.52z" clip-rule="evenodd"/><path fill="#482f1e" fill-rule="evenodd" d="m215.38 206.77-22.03.47-3.57.08-25.6.54-51.41 1.12-.06-.03-51.35 1.15-51.18 1.1v-.18l-1.21-48.18c-.25-10.07 6.43-19.52 17.92-27.32q3.6-2.44 7.83-4.66c16.88-8.92 40.8-14.93 67.58-15.99 1.27-.03 2.52-.1 3.81-.12l4.3-.05q2.14-.1 4.29-.13 2.02-.06 4.06-.05c26.84-.08 51.05 4.92 68.36 13.18a78 78 0 0 1 8.04 4.34c11.75 7.28 18.82 16.4 19.07 26.4l.05 2.72 1.18 45.6z" clip-rule="evenodd"/><path fill="#0b3048" fill-rule="evenodd" d="M69.29 518.77c-12.03-14.18-39-18.66-51.21 1.1-1.3-50.86-2.63-101.66-3.94-152.48l-.49-19q-.96-36.94-1.87-73.86l21.85-.47 29.34-.66.98 37.93 5.32 207.4z" clip-rule="evenodd"/><path fill="#feeabf" fill-rule="evenodd" d="m172.1 516.54-32.23 164.24 14.99-.34q62.87-105.28 68.3-163.16l-.04-2.14c-13.3-18.84-39.82-13.2-51.02 1.4" clip-rule="evenodd"/><path fill="#face8d" fill-rule="evenodd" d="m139.88 680.75 32.24-164.24c-6.58-5.82-27.5-14.6-51.8-14.1-24.27.54-44.76 10.22-51.02 16.33l40.63 162.66 29.97-.68z" clip-rule="evenodd"/><path fill="#f5be65" fill-rule="evenodd" d="M109.91 681.43 69.3 518.77c-11.95-14.11-38.74-18.59-51.05.8q-.08.16-.2.31 7.54 57.76 76.85 161.87l14.99-.34z" clip-rule="evenodd"/><path fill="#595b51" fill-rule="evenodd" d="m139.88 680.75-14.86 27.46c9.77.15 19.32-9.1 29.85-27.8z" clip-rule="evenodd"/><path fill="#33343a" fill-rule="evenodd" d="m125.01 708.24 14.87-27.5-29.97.69z" clip-rule="evenodd"/><path fill="#0f1817" fill-rule="evenodd" d="m125.01 708.24-15.1-26.81-14.98.34c11.02 17.48 20.68 26.33 30.1 26.51z" clip-rule="evenodd"/><path fill="#fbbe46" fill-rule="evenodd" d="M200.14 238.79a86 86 0 0 1-5.22 31.76l-131.96 2.88-1.64-63.32 51.33-1.1.06.02 80.6-1.8a86 86 0 0 1 6.82 31.51z" clip-rule="evenodd"/><path fill="#0b3048" fill-rule="evenodd" d="M192.78 273.5a86 86 0 0 0 5.8-33.24 86 86 0 0 0-7.43-32.97l24.23-.52 1.7 66.2z" clip-rule="evenodd"/><path fill="#f08011" fill-rule="evenodd" d="m217.03 271-22.1.51-3.52.07-25.6.54-1.65-64.23 29.19-.65a88 88 0 0 1 6.82 32 88 88 0 0 1-5.22 32.24l22.11-.47z" clip-rule="evenodd"/><path fill="#3e2819" fill-rule="evenodd" d="M60.9 188.36q0 .9-.04 1.85l.49 19.92-51.18 1.1v-.18l-1.15-45.4a31.1 31.1 0 0 1 36.5-3.9 31.1 31.1 0 0 1 15.3 23.79l-.02.03v.18c-.04.24-.01.5-.01.76v.23l.01.66.03.01-.04.1q.03.44.1.8z" clip-rule="evenodd"/><path fill="#5f4230" fill-rule="evenodd" d="M111.37 155.4c-28.39.61-51.07 14.53-50.63 31.06q.05 1.88.48 3.69l-.38.01.52 19.94 102.81-2.24-.52-19.93h-.4q.24-1.3.28-2.66l.01-.03.01-.1.04-.1v-.14l.09-.22q-.01-.39-.04-.75c-1.11-16.16-24.2-28.65-52.14-28.06z" clip-rule="evenodd"/><path fill="#926f59" fill-rule="evenodd" d="m215.39 206.77-22.04.47-3.57.08-25.6.54-.5-19.92q-.08-.89-.14-1.85.05-.52.04-1.01.05-.16.01-.36v-.48c0-.26-.04-.53-.03-.78v-.18a30.7 30.7 0 0 1 14.07-24.4 31.1 31.1 0 0 1 36.66 2.29l1.17 45.6z" clip-rule="evenodd"/><path fill="#0b3048" d="m213.42 127.14-205.3 4.28 1.97 79.62 205.3-4.28z"/><path fill="#f08011" d="M212.19 112.57 8.53 116.8a6.5 6.5 0 0 0-6.4 6.68l.14 5.97A6.6 6.6 0 0 0 9 135.87l203.66-4.25a6.5 6.5 0 0 0 6.4-6.68l-.14-5.97a6.6 6.6 0 0 0-6.73-6.4"/><path fill="#f08011" fill-rule="evenodd" d="m224.63 350.52.16 6a6.5 6.5 0 0 1-6.38 6.65l-203.68 4.22c-.18 0-.38.02-.57-.03A6.56 6.56 0 0 1 8 360.99l-.16-6a6.53 6.53 0 0 1 5.83-6.63c.2-.06.39-.05.58-.08l203.68-4.22a6.66 6.66 0 0 1 6.74 6.44z" clip-rule="evenodd"/><path fill="#0b3048" d="m216.75 260.42-39.53.83.52 20.87 39.53-.82z"/><path fill="#fff" fill-rule="evenodd" d="M200.14 238.79a86 86 0 0 1-5.22 31.76 86.3 86.3 0 0 1-79.34 56.42 86.7 86.7 0 0 1-51.63-15.64 87 87 0 0 1-30.35-37.28 86 86 0 0 1-6.87-31.7 86 86 0 0 1 5.22-31.76 85.6 85.6 0 0 1 25.46-36.18 86.2 86.2 0 0 1 53.87-20.21 87 87 0 0 1 54.84 17.97 87 87 0 0 1 27.23 35.07 86 86 0 0 1 6.8 31.55" clip-rule="evenodd"/><path fill="#0b3048" d="M113.62 247.52a2.2 2.2 0 0 1-2.23-2.12l-1.53-61.65a2.18 2.18 0 0 1 4.35-.1l1.53 61.65a2.2 2.2 0 0 1-2.12 2.22"/><path fill="#0b3048" d="m113.62 247.52-50.82 1.04a2.2 2.2 0 0 1-2.23-2.11 2.2 2.2 0 0 1 2.11-2.22l50.82-1.05a2.2 2.2 0 0 1 2.24 2.12 2.2 2.2 0 0 1-2.12 2.22"/><path fill="#e53914" d="M211.09 68.02 6.72 72.28l1.1 44.56 204.37-4.26z"/><path fill="#fff" d="m34.41 78.53-4 .08a6.26 6.26 0 0 0-6.14 6.4l.47 18.86a6.3 6.3 0 0 0 6.45 6.15l4-.09a6.26 6.26 0 0 0 6.14-6.4l-.46-18.86a6.3 6.3 0 0 0-6.46-6.14m38.33-.83-4 .08a6.26 6.26 0 0 0-6.14 6.41l.46 18.86a6.3 6.3 0 0 0 6.46 6.14l4-.08a6.26 6.26 0 0 0 6.14-6.4l-.47-18.87a6.3 6.3 0 0 0-6.45-6.14m38.3-.8-4 .1a6.26 6.26 0 0 0-6.15 6.4l.47 18.85a6.3 6.3 0 0 0 6.45 6.15l4.01-.09a6.26 6.26 0 0 0 6.14-6.4l-.47-18.86a6.3 6.3 0 0 0-6.45-6.14m38.3-.79-4 .08a6.26 6.26 0 0 0-6.15 6.4l.47 18.86a6.3 6.3 0 0 0 6.45 6.15l4-.09a6.26 6.26 0 0 0 6.15-6.4l-.47-18.86a6.3 6.3 0 0 0-6.45-6.14m38.36-.78-4 .08a6.26 6.26 0 0 0-6.14 6.4l.46 18.86a6.3 6.3 0 0 0 6.45 6.15l4.01-.09a6.26 6.26 0 0 0 6.14-6.4l-.47-18.86a6.3 6.3 0 0 0-6.45-6.14"/><path fill="#0b3048" fill-rule="evenodd" d="M213.84 67.97 3.92 72.32a3.83 3.83 0 0 1-3.74-4.98l14.84-45.78A27.2 27.2 0 0 1 40.35 2.8L174 0a27.4 27.4 0 0 1 26.2 17.7l17.06 45.15a3.78 3.78 0 0 1-3.47 5.14z" clip-rule="evenodd"/></svg>