<svg xmlns="http://www.w3.org/2000/svg" width="144" height="103" fill="none" viewBox="0 0 144 103"><g clip-path="url(#a)"><path fill="#e53914" d="M2.7 33.48c.2 12.36-4.3 24.4-2.1 36.78 1.8 10.1 8.3 19.06 18.77 20.92 12.22 2.17 25.63-1.14 37.08-5.36 11.46-4.2 21.98-9.16 31.4-16.1s16.67-15.27 20.05-26.2c3.1-10.1 2.34-21.8-4.08-30.45C97.78 4.92 88.06.63 78.13.05c-10.71-.6-21 3.75-29.3 10.29C32.81 22.97 21.87 44.55 24.5 65.28c1.3 10.26 6.17 19.42 14.3 25.82 8.96 7 20.22 10.2 31.37 11.44 21.9 2.4 46.6-4.55 62.63-20.16 7.46-7.28 12.73-17.29 10.86-27.95-1.77-10.01-9.6-18.14-18.78-21.86-10.9-4.43-23.31-2.35-33.68 2.52-9.14 4.3-18.41 11.95-20.21 22.48-1.55 9.05 3.92 19.72 13.28 21.83 5.63 1.26 10.77-1.37 15.23-4.54 4.82-3.45 9.39-7.28 13.58-11.46s7.72-8.5 11.12-13.16c3.1-4.26-3.97-8.37-7.04-4.13a98 98 0 0 1-20.38 20.65c-3.13 2.33-7.37 5.96-11.53 4.4-3.1-1.14-5.23-4.34-6.04-7.46-2.15-8.23 5.41-15.37 11.72-19.17 8.38-5.04 18.88-7.83 28.51-5.15 7.51 2.08 14.2 8.1 16.05 15.87 2.02 8.53-3.29 16.54-9.22 22.1-13.38 12.52-33.1 18.21-51.1 17.42-17.02-.74-36.9-7.58-41.72-25.9-4.3-16.3 3.12-34.33 14.17-46.22s29.79-19.97 44.78-9.5c7.13 4.98 9.9 13.63 8.98 22.05-.98 9.1-5.96 17.04-12.49 23.2S73.73 69.32 65.35 73.3c-9.55 4.51-19.7 8.23-30.2 9.7-8.92 1.24-19.37 1.73-24.21-7.32-4.36-8.13-2.78-17.73-1.47-26.37.79-5.22 1.52-10.45 1.41-15.75-.1-5.3-8.27-5.28-8.16 0z"/></g><defs><clipPath id="a"><path fill="#fff" d="M0 0h144v103H0z"/></clipPath></defs></svg>