<svg xmlns="http://www.w3.org/2000/svg" width="1729" height="181" fill="none" viewBox="0 0 1729 181"><path fill="#0b3048" d="M1729 181H0V37.72c.62.53 1.79.72 2.7.46 1.09-.34 1.97-1.21 3.1-.98.6.11 1 .53 1.63.64.74.13 1.47-.25 2.24-.3 1.73-.08 3.3 1.46 4.8.9.53-.22.82-.65 1.38-.84.82-.29 1.79.09 2.58.39.82.32 1.96.55 2.56.09.6-.45.4-1.35 1.26-1.52.64-.11 1.18.35 1.61.7 1.18 1.02 3.57 1.95 5.43 1.58 1.53-.3 2.88.7 3.68 1.63.79.94 1.81 2.03 3.4 2.03 1.12 0 2.06-.6 3.17-.76 1.57-.23 3.12.43 4.74.55 1.61.11 3.6-1.01 2.58-1.85 1.7.03 3.31.7 4.15 1.67l.7-1.42c.28.56 1.53.1 1.98-.4q2.29-2.4 4.56-4.84 1.95 2.8 4.83 5.2a6 6 0 0 0 2.23 1.29c2.32.62 4.79-.74 6.24-2.1 1.49-1.38 3.01-3.02 5.52-3.25a6.7 6.7 0 0 1 4.84 1.54c1.14 1 1.74 2.2 2.32 3.4.26-.3.7-.54 1.17-.67l2.53 1.86c.75-1.08 3.6-.95 4.14.17a1.8 1.8 0 0 1 1.14-.78l2 1.85c.3-.92 1.7-1.5 3.05-1.7 1.39-.2 2.8-.13 4.18-.3 2.05-.24 3.88-.99 5.9-1.27 2.01-.3 4.56.07 5.36 1.35.99-1.31 3.71-1.89 5.66-1.18.95.34 2.09.95 2.92.49.44-.22.52-.64.88-.91 1.44-1.12 4.48 1.11 6.27.2 1.1-.55.7-1.93 1.93-2.38 1.56-.57 3.62 1.1 5.04.38.91-.46.7-1.62 1.78-1.86.95-.2 1.7.5 2.27 1.04 1.85 1.65 6.01 3.18 8.8 2.29 1.63.33 3.48.07 4.78-.68.6-.35 1.09-.8 1.78-1.07 1.79-.72 4.06 0 5.88.71.7-.73 2.32-.85 3.52-.48a8 8 0 0 1 2.82 1.76c-.35-1.93 2.58-3.34 5.13-4.3q3.89-1.44 7.77-2.9a42 42 0 0 0-4.31 6.71c4-.53 8.15-.6 12.2-.18l.58-2.69q1.96.25 3.64.93c-.05-1.08 0-2.18.26-3.26l3.26.43q-.12-.61.3-1.15l1.73.56c.09-1.08 1.84-1.85 3.49-1.86 1.61 0 3.14.53 4.58 1.05a10 10 0 0 1-1.08-4.4c0-.56.06-1.16.6-1.58.67-.5 1.79-.56 2.78-.6l7.51-.24c1.7-.05 3.76-.27 4.4-1.32.34-.57.38-1.39 1.26-1.47.35-.03.7.08.97.2q2.11.82 3.85 1.96c1.81-.78 3.7-1.23 5.51-2 .3-1.32 3.23-1.16 4.97-.55 1.78.62 4.36 1.2 5.35.05.35-.4.45-1 1.14-1.1.43-.05.82.15 1.14.34q1.53.9 3.08 1.76a6.2 6.2 0 0 1 5.09-.04q.38-.9.73-1.78c.53.57 1.82.77 2.67.42 1.3 1.2 3.89 1.27 6.1 1.21 6.01-.11 12.51-.36 17.17-2.92.57-.32 1.26-.7 2-.55.56.11.86.49 1.12.83 2.28 3.19 5.26 6.77 10.42 7.43a4 4 0 0 1 .27-3.2q2.4 1.63 4.76 3.27l1.73-1.53 2.7 1.47c1.13-1.15 3.67-.83 5.71-.75a15 15 0 0 0 8.62-2.09 8.4 8.4 0 0 0 2.14 4.4c1.9-1.72 5.8-2.26 8.55-1.21.86.33 1.64.8 2.56 1.04 3.62.92 6.93-1.86 10.75-2.32 1.93-.23 3.94.15 5.88-.06 1.93-.2 3.9-1.53 3.04-2.71 3.72.56 8.14 1.56 8.93 4.06l1.22-2.2c1 .2 1.88.63 2.49 1.2.52-.99 2.75-.99 3.96-.32s1.77 1.71 2.7 2.56c.9.85 2.6 1.55 3.97 1.06 1.57-.55 1.89-2.28 3.65-2.43 2.1-.17 3.89 2.34 5.57 1.45.65-.36.65-1.06 1.14-1.5 1.21-1.07 3.79.04 4.5 1.3.69 1.23.92 2.82 2.69 3.44 1.38.48 3.04.1 4.58.06 1.57-.06 4.32.88 4.05 1.9 1.13.46 2.52.78 3.76.48s2.02-1.43 1.23-2.14a69 69 0 0 1 18.24-1.6c2.04.1 4.3.23 5.89-.63.84-.45 1.43-1.17 2.48-1.33 2.17-.34 3.14 1.79 4.93 2.71 2.36 1.21 5.7 0 8.2-1.07a92 92 0 0 1 20.15-6l.39-5.1c1.38.12 2.7.5 3.76 1.1l-.47-1.41c.56.23 1.25.3 1.87.2l.75-4.66q3.94 2.85 8.07 5.57c.57.37 1.2.76 1.96.93 2.14.5 4.4-.83 6.62-.59a4.8 4.8 0 0 1 3.7 2.66c.66 1.2 1 2.5 2.2 3.5 1.47 1.2 3.84 1.64 6.1 2.03L523.48 35c.48.1 1 .16 1.47.1 1.27-.2 2-1.35 3.27-1.23 1.34.1 1.47 1.38 2.4 2.06 1.83 1.37 5.85-.15 8.1.92 2.4.06 4.66 1.11 5.6 2.58.44-.7 2.04-.9 2.86-.37l1.94-1.72c-.57 1.2 1.48 2.52 3.27 2.12 1.16-.26 1.88-1.05 3-1.43 2.01-.7 4.65.26 5.66 1.63 1 1.39.88 3 .7 4.53 2.35 1.37 6.05-.23 9.05.29 1.77.3 3.1 1.3 4.87 1.58 1.6.25 3.23-.17 4.84-.37 1.62-.2 3.58-.13 4.5.78 1.47 1.4-.15 4.05 2.23 4.61.49.13 1.04.1 1.56.19 1.3.26 1.96 1.34 1.74 2.25-.23.92-1.1 1.7-1.93 2.43 1.55.78 4.1.44 5.06-.7.96-1.16.6-2.93 2.36-3.5 1.18-.4 2.74.02 3.76-.51.75-.38.88-1.07.97-1.69q.28-2.33.6-4.65a17 17 0 0 0 6.4 4.23c1.18-.65.45-2.42 1.96-2.6.77-.1 1.42.4 2.13.63 1.43.43 3.08-.25 4.13-1.03a10 10 0 0 1 3.9-1.73c2.04.38 4.32.12 6.06-.69.88-.4 1.66-.95 2.71-1.12 1.77-.29 3.66.94 3.3 2.13 2.6-.17 4.84 1.2 6.45 2.58 1.6 1.39 3.09 2.99 5.5 3.66 2.4.68 5.97-.31 5.76-2.06.31.85 2.26.77 3.23.19.96-.6 1.52-1.48 2.66-1.9a5.5 5.5 0 0 1 4.1.34 9 9 0 0 1 2.73 2.28c3.23-1.08 6.89-1.95 10.37-1.34 2.06.35 4.72 1.08 5.98-.06.84-.72.6-1.97 1.83-2.39.75-.26 1.66-.03 2.48.14a15 15 0 0 0 6.93-.24c-.21 1.47-.8 2.93-1.7 4.27a20 20 0 0 0 11.64.59c.91-.23 1.98-.52 2.78-.16.95.42.83 1.41 1.65 1.94.43.28 1.03.37 1.61.44l5.7.78c1.39.18 2.8.37 4.16.17 1.88-.28 4.22-1.17 5.43-.15-.28-.33.21-.74.75-.79.56-.06 1.1.15 1.57.33l3 1.17c-.34-1.25 2.44-2.22 3.77-1.33-.27-.86 1.56-1.4 2.8-1.1 1.25.28 2.14 1.02 3.35 1.38a7.7 7.7 0 0 0 5.48-.58 7.4 7.4 0 0 0 3.14-3.21c.3-.58.62-1.23 1.44-1.46 1.86-.55 4.5 2.1 6.5 1.86l4.88-.6c-1-1.49-.19-3.4 1.79-4.34.9-.4 2.06-.71 2.43-1.39.57-1.05-1.13-2.3-.27-3.24 1.64-.16 3.36.06 4.78.6.87.32 1.65.77 2.58.88.82.09 1.64-.05 2.44-.21 3.56-.71 7.23-1.45 10.05-3.06 1.92-1.1 3.8-2.67 6.31-2.44 1.52.15 2.7.95 4.14 1.29 1.48.33 3.13.14 4.67-.06q4.2-.57 8.4-1.1c2.84-.37 5.88-.8 7.9-2.19.43-.3.82-.63 1.33-.83 1.57-.62 3.5.11 5.09.7 1.6.6 4 .9 4.89-.16.22-.28.31-.62.57-.88.84-.82 2.74-.49 4.06-.07q-.01-.87.62-1.66c1.8-.5 2.91 1.62 4.83 1.78 1.25.1 2.22-.68 3.19-1.23a10.6 10.6 0 0 1 8.22-.55 6.3 6.3 0 0 1 .35-3.7c2.19.33 3.6 2.52 5.72 2.03 2.23-.52 1.16-3.03 2.82-4.15 1.01-.68 2.83-.58 3.83.09a2.2 2.2 0 0 1 1.06 2.62c1.22-.33 2.52-.66 3.8-.52 1.31.16 2.52 1.01 2.18 1.86-.36.9-2.18 1.83-1.14 2.45.4.25 1.05.19 1.6.09 1.47-.28 2.82-.8 3.92-1.53.25 1.04 1.55 1.92 3.1 2.09 1.55.19 3-.17 3.8-1.1-1.18-.28-.87-1.58.26-1.96 1.1-.37 2.43-.13 3.64.12q.3-.69.56-1.4 2.5-.07 4.97-.11.09-.89.1-1.76l5.45 2.02c.7-1.1 1.43-2.23 2.63-3.09a6.7 6.7 0 0 1 4.8-1.14c1.88.32 3.8 1.59 5.44.88 1.14-.5 1.17-1.69 2.26-2.23 1.01-.52 2.52-.25 3.52.27 1 .53 1.68 1.28 2.62 1.86 1.97 1.22 5.13 1.53 7.55.73-1.49-.53-.36-2.11 1.12-2.63 2.13-.75 4.8-.8 6.96-.1.87.28 1.69.66 2.62.77 1.8.2 3.43-.64 4.8-1.45q.52 1.4 1.82 2.55l4.28-1.7c.96 3 6.58 4.81 10.79 3.59 1.87-.55 3.96.3 5.62 1.1l9.32 4.56c1.47.73 3 1.46 4.74 1.78 1.77.3 3.85.11 5.06-.8.95-.7 1.38-1.8 2.7-2.09 1.06-.23 2.2.2 3.09.68 2 1.08 3.62 2.5 4.65 4.07l4.24-1.6c.52-.2 1.1-.4 1.69-.3 1.6.27 1.08 2.29 2.66 2.56.97-1.34 3.75-1.41 5.97-1.3l10.23.57q.56-2.55.53-5.08c2.1.82 3.93 1.95 5.36 3.27 3.01-.63 5.17-2.38 7.77-3.56 2.62-1.2 6.65-1.67 8.61-.03l.15-1.73c2.88 1.1 6.93 2.08 9.15.44.83-.64 1.31-1.59 2.52-1.8 1.38-.24 2.99.64 4.1.07.49-.25.67-.71 1.05-1.03.91-.78 2.74-.62 4.1-.23 1.38.4 2.79.95 4.22.72 1.17-.17 2.06-.83 3.23-1 1.83-.28 3.44.73 5.01 1.42 3.47 1.54 7.85 1.76 12.02 1.92 2.52.08 5.13.17 7.45-.48 1.74-.49 3.21-1.37 5.01-1.74 1.82-.36 3.76.96 5.01 1.92 1.75 1.36 5.06.41 7.24-.64 2.14-1.07 5.21-2.18 7.27-1.02l.58-3.17c2.15.31 4.52-.25 5.89-1.4-.39 1.68 2.26 3.18 4.83 3.13a10.4 10.4 0 0 0 6.32-2.56 4 4 0 0 1 .83 3.42 8 8 0 0 0 4.36-.8 4.5 4.5 0 0 1 1.85 2.75c2.43.11 4.62-1.59 4.13-3.19.69.3 1.47.62 2.23.5.8-.1 1.32-.89.65-1.2 4.37 2.4 10.79.38 16.43.15 5.3-.21 10.67 1.3 15.86.52 2-.3 3.88-.92 5.92-1.12 2.87-.3 5.93.36 8.03 1.7 1.83 1.15 4.05 2.97 6.24 2.12-1.21-1.4-1.08-3.28.31-4.57 1.43-1.31 4.02-2 6.37-1.68a10.5 10.5 0 0 1-2.69-4.28c4.02-.67 6.67 3.4 10.83 3.56 2.14.1 4.96-.7 5.97.55.4.52.21 1.16.56 1.69.66 1 2.97 1.05 4.22.34 1.27-.7 1.75-1.84 2.15-2.9a57 57 0 0 0 10.49 10.53c2.71-.72 6.09-.11 7.94 1.41.6.5 1.08 1.1 1.87 1.43a8 8 0 0 0 2.69.36q5.43.07 10.85-.03c-.56-.98-1.03-2.26.19-2.9.71-.38 1.73-.37 2.62-.33q9.96.5 19.83 1.7c1.51.18 3.14.42 4.24 1.16 1.91-.87 3.53-1.65 5.66-2.27l4.88-1.42c.48-.13 1-.28 1.49-.2.77.1 1.22.63 1.57 1.1 1.21 1.65 3.38 3.45 6.05 3.06.88-.13 1.68-.5 2.58-.56 2.27-.14 3.66 1.6 4.41 3.06q5.35-.15 10.72.16a16 16 0 0 0 1.22 6.97c2.44 0 4.76-1.2 5.39-2.8.32-.86.19-1.8.62-2.63a2.75 2.75 0 0 1 3.04-1.18 4.1 4.1 0 0 1-.17-3.4 10 10 0 0 0 5.34 2.23c.05-1.93.54-4.3 3.23-4.98 1.66-.43 3.49 0 5.27.05s3.97-.64 3.81-1.83c1.96.04 2.75 2.03 4.69 2.2.7.06 1.36-.13 1.98-.3l7.36-2.1c.27 1.35 2.05 2.37 3.96 2.76 1.93.4 4.01.25 5.98.07 2.48-.23 5.1-.57 6.92-1.73.34 1.42 3.57 1.62 5.19.68 1.18-.7 2.43-1.87 3.87-1.44.88.26 1.21 1.02 2.05 1.31 1.35.46 2.78-.5 3.61-1.35 1.32-1.33 2.66-2.22 3.97-3.56-.23-.12 0-.4.27-.42.3-.03.58.07.88.08.79.03 1.31-.56 1.48-1.08.19-.52.23-1.1.82-1.47 1.26.18 1.92 1.53 3.13 1.26.36-.09.61-.32.82-.54l2.05-2.01c.36-.37.95-.78 1.6-.67.4.09.65.36.83.62l1.62 2.03c.08.13.18.25.39.3q.22.04.47-.04c1.27-.37 1.51-1.5 2.36-2.22 1.45-1.18 4.63-1.35 5.09-2.84l2.54 2.38q.74-.87 1.09-1.83a36 36 0 0 0 2.8 3.32q.66-.65 1.55-1.16c.43.88.28 1.9-.4 2.7q2.3-.07 4.61.16-.34.33-.91.49c.06.19.48.22.75.17.28-.06.66-.1.84.06.08.09-.02.17-.15.2 1.98.55 4.22.66 6.33.36 0 .88.92 1.65 2.04 2.1 1.13.42 2.44.58 3.71.74l3.83.46c.39.05.75.09 1.08.23.23.12.43.3.71.35.77.12 1.35-.76 2.06-.55.27.07.43.32.7.4.74.2 1.26-.74 2.02-.66.71.09.73.94 1.47 1.01.32.03.6-.11.86-.26.93-.55 1.79-1.38 2.96-1.67 1.12-.29 2.19-.66 3.38-.82 1.13-.17 2.31-.13 3.48-.15 9.15-.04 18.21-2.65 24.53-7.06 5.88-.9 11.5-2.5 16.56-4.69l1.27-2.25 2.56-.02c1.14-1.75 4.09-2.57 6.07-3.93 2-1.35 2.35-4.26-.43-4.65A70 70 0 0 0 1533.97 0l1.22 4.1c5.09.2 9.99 1.91 13.13 4.6l8.5-1.98c-.4 2.4 4.67 4.24 7.45 2.68.79-.45 1.44-1.11 2.48-1.25 1.83-.25 2.97 1.22 3.93 2.29 2.18 2.38 6.7 3.67 10.79 3.08q-1.38 1.98-2.78 3.95c4.54-1.7 9.3 2.28 14.45 2.82 4.1.41 8.32-1.84 8.66-4.59l4.96 2.83q1.46-1.4 2.95-2.79l2.54 1.55c1.57-1.59 5.79-1.43 7.06.28.71.94.62 2.18 1.81 2.89.78.46 1.88.55 2.92.69 4.02.55 7.62 2.35 9.55 4.79l3.61-2.02c1.43 2.35 6.19 2.56 9.98 2.46s8.61.34 9.66 2.77c6.88-1.5 14.86-.4 20.26 2.8 4.97-3.94 16.66.52 21.57-3.46l3 1.2c4.62.54 9.67-.78 12.46-3.3l14.73 2.06V181z"/></svg>