<svg width="1729" height="181" viewBox="0 0 1729 181" fill="none" xmlns="http://www.w3.org/2000/svg">
<path d="M1729 181L0 181L1.25264e-05 37.7152C0.619571 38.2486 1.78662 38.4361 2.70875 38.1766C3.78938 37.845 4.6684 36.9655 5.79225 37.1962C6.3974 37.3115 6.80074 37.7296 7.4347 37.8449C8.16953 37.9746 8.90434 37.5855 9.66798 37.5422C11.397 37.4557 12.9676 38.9984 14.4661 38.4361C14.9992 38.2198 15.2872 37.7873 15.8491 37.5998C16.6704 37.3115 17.6359 37.6864 18.4284 37.9891C19.2496 38.3063 20.3878 38.537 20.9929 38.0757C21.5981 37.6287 21.3819 36.7348 22.2464 36.5618C22.8947 36.4464 23.428 36.9078 23.8602 37.2538C25.0417 38.2774 27.4335 39.2146 29.2921 38.8397C30.8194 38.5369 32.1739 39.5462 32.9663 40.4689C33.7588 41.406 34.7817 42.5017 36.3666 42.5017C37.4904 42.5017 38.4269 41.8962 39.5364 41.7376C41.1069 41.5069 42.663 42.1701 44.2767 42.2855C45.8905 42.4008 47.879 41.2762 46.856 40.44C48.5562 40.4688 50.1698 41.132 51.0055 42.1124C51.236 41.6366 51.481 41.1609 51.7116 40.6852C51.9853 41.2474 53.2388 40.7861 53.6854 40.2959C55.2127 38.6812 56.7401 37.0664 58.2529 35.4517C59.5497 37.3115 61.1634 39.056 63.0797 40.6563C63.6993 41.1753 64.3907 41.6944 65.3129 41.9394C67.6326 42.5594 70.0967 41.2042 71.5519 39.8345C73.036 38.4649 74.5632 36.8213 77.0702 36.5906C78.9145 36.4176 80.7587 37.1385 81.9114 38.1333C83.0496 39.1281 83.6548 40.3391 84.2311 41.5357C84.4904 41.2329 84.9227 40.9879 85.3982 40.8581C86.2339 41.4781 87.084 42.098 87.9341 42.7179C88.6833 41.6367 91.5362 41.7664 92.0693 42.8909C92.2567 42.5449 92.6887 42.2422 93.2074 42.1124C93.8702 42.7324 94.5474 43.3379 95.2102 43.9578C95.5128 43.0351 96.9104 42.4584 98.2648 42.2566C99.648 42.0547 101.06 42.1269 102.443 41.9539C104.489 41.7232 106.319 40.9735 108.336 40.6852C110.353 40.3968 112.904 40.7573 113.696 42.0404C114.69 40.7284 117.414 40.1517 119.359 40.8581C120.31 41.2042 121.448 41.8096 122.284 41.3483C122.716 41.132 122.802 40.7139 123.162 40.44C124.603 39.3155 127.643 41.5501 129.43 40.6418C130.525 40.094 130.136 38.71 131.361 38.2631C132.917 37.6864 134.977 39.3587 136.404 38.6379C137.312 38.1765 137.095 37.0232 138.176 36.7781C139.127 36.5762 139.876 37.2827 140.452 37.8162C142.297 39.4741 146.461 41.0023 149.241 40.1085C150.884 40.4401 152.728 40.1805 154.025 39.4308C154.63 39.0848 155.12 38.6379 155.812 38.364C157.598 37.6431 159.875 38.364 161.69 39.0704C162.396 38.3352 164.01 38.2198 165.206 38.5947C166.373 38.9551 167.223 39.6615 168.03 40.3535C167.684 38.4216 170.609 37.0088 173.159 36.0573C175.739 35.0913 178.346 34.1253 180.925 33.1594C179.24 35.3219 177.799 37.5566 176.617 39.8633C180.623 39.3299 184.773 39.2579 188.821 39.676C189.009 38.7821 189.21 37.8882 189.397 36.9944C190.694 37.153 191.919 37.4701 193.043 37.917C192.985 36.8357 193.043 35.7401 193.302 34.6588C194.383 34.803 195.449 34.9471 196.559 35.0913C196.472 34.6876 196.587 34.2839 196.861 33.9379C197.423 34.1254 197.999 34.3127 198.59 34.5001C198.676 33.4188 200.434 32.6548 202.077 32.6404C203.691 32.6404 205.218 33.1738 206.659 33.6928C205.953 32.2799 205.578 30.7805 205.578 29.2811C205.578 28.7333 205.636 28.1278 206.183 27.7097C206.846 27.2051 207.97 27.1474 208.964 27.1041C211.457 27.032 213.978 26.9456 216.471 26.8735C218.171 26.8158 220.231 26.5996 220.865 25.5471C221.211 24.9849 221.254 24.1631 222.133 24.0766C222.479 24.0478 222.825 24.1631 223.099 24.2784C224.496 24.8263 225.793 25.4894 226.946 26.2391C228.761 25.4606 230.649 25.0137 232.464 24.2352C232.767 22.9232 235.692 23.0817 237.435 23.6873C239.207 24.3072 241.786 24.8984 242.78 23.745C243.126 23.3413 243.227 22.7358 243.919 22.6493C244.351 22.5916 244.74 22.7934 245.057 22.9808C246.094 23.5719 247.103 24.1631 248.14 24.7398C249.581 24.0045 251.757 23.9756 253.226 24.6965C253.486 24.1054 253.716 23.5143 253.961 22.9232C254.494 23.4855 255.777 23.6873 256.627 23.3413C257.924 24.5379 260.517 24.61 262.736 24.5524C268.744 24.437 275.242 24.1919 279.896 21.6256C280.473 21.3084 281.164 20.9336 281.899 21.0778C282.461 21.1931 282.763 21.568 283.023 21.914C285.299 25.1002 288.282 28.6757 293.44 29.3389C293.08 28.272 293.181 27.1474 293.714 26.1382C295.313 27.2195 296.898 28.3153 298.469 29.411C299.045 28.8919 299.636 28.3874 300.198 27.8828C301.105 28.3729 302.013 28.863 302.906 29.3532C304.03 28.1998 306.566 28.5171 308.612 28.6036C311.753 28.7478 314.966 27.9692 317.228 26.5131C317.444 28.0557 318.179 29.5695 319.375 30.9103C321.263 29.1946 325.167 28.6468 327.919 29.6993C328.784 30.0309 329.562 30.4922 330.484 30.7373C334.1 31.66 337.414 28.8775 341.233 28.4162C343.163 28.1855 345.166 28.5747 347.111 28.3584C349.042 28.1566 351.001 26.8303 350.151 25.6481C353.869 26.2104 358.292 27.2051 359.084 29.7136C359.474 28.9784 359.877 28.2432 360.295 27.5079C361.303 27.7097 362.182 28.1423 362.787 28.7045C363.306 27.7242 365.539 27.7241 366.75 28.3873C367.96 29.0649 368.522 30.103 369.444 30.9536C370.352 31.8042 372.052 32.4962 373.421 32.006C374.991 31.4581 375.308 29.7281 377.066 29.5839C379.17 29.4109 380.956 31.9195 382.642 31.0257C383.29 30.6652 383.291 29.9733 383.78 29.5263C384.991 28.4595 387.57 29.5695 388.276 30.8238C388.967 32.0637 389.198 33.6496 390.97 34.2696C392.353 34.7453 394.01 34.3704 395.552 34.3272C397.123 34.2695 399.874 35.2066 399.601 36.2302C400.725 36.6916 402.122 37.0088 403.361 36.706C404.586 36.4033 405.378 35.2788 404.586 34.5723C410.421 33.246 416.66 32.698 422.827 32.9719C424.873 33.0729 427.135 33.2026 428.72 32.3376C429.556 31.8907 430.146 31.1698 431.198 31.0113C433.374 30.6652 434.339 32.799 436.126 33.7217C438.489 34.9327 441.832 33.7217 444.324 32.6548C450.52 29.9732 457.349 27.926 464.481 26.6429C464.611 24.9417 464.741 23.2404 464.87 21.5536C466.254 21.669 467.579 22.0582 468.631 22.6493C468.487 22.188 468.314 21.7122 468.156 21.2365C468.717 21.4672 469.409 21.5392 470.029 21.4383C470.288 19.8956 470.518 18.3386 470.778 16.7815C473.4 18.6846 476.095 20.5444 478.847 22.3465C479.423 22.7214 480.057 23.1107 480.806 23.2837C482.953 23.7738 485.201 22.4474 487.434 22.6925C489.307 22.9088 490.517 24.1487 491.137 25.3453C491.785 26.5419 492.131 27.8539 493.327 28.8487C494.797 30.0453 497.174 30.4922 499.436 30.8814C507.447 32.2511 515.473 33.6352 523.484 35.0049C523.959 35.0914 524.478 35.1634 524.953 35.0913C526.221 34.9039 526.956 33.7505 528.224 33.8658C529.564 33.9667 529.694 35.2499 530.616 35.9275C532.446 37.2971 536.466 35.7833 538.728 36.8502C541.119 36.9079 543.382 37.9603 544.318 39.4309C544.765 38.7389 546.364 38.5226 547.185 39.0561C547.834 38.4794 548.482 37.9027 549.116 37.3404C548.554 38.537 550.6 39.8634 552.387 39.4597C553.554 39.2002 554.274 38.4072 555.384 38.0324C557.401 37.3259 560.038 38.2919 561.046 39.6615C562.055 41.0456 561.925 42.6604 561.752 44.1886C564.101 45.5582 567.804 43.9579 570.801 44.4769C572.573 44.7797 573.898 45.7889 575.671 46.0628C577.27 46.3079 578.898 45.8897 580.512 45.6879C582.126 45.4861 584.085 45.5582 585.007 46.4665C586.477 47.8649 584.863 50.5177 587.24 51.0799C587.73 51.2097 588.278 51.1808 588.797 51.2673C590.108 51.5268 590.756 52.6081 590.54 53.5164C590.309 54.4391 589.445 55.2176 588.609 55.9529C590.165 56.7314 592.701 56.3855 593.667 55.2465C594.632 54.0931 594.272 52.3198 596.03 51.7431C597.211 51.3539 598.767 51.772 599.79 51.2386C600.539 50.8637 600.669 50.1716 600.756 49.5517C600.943 47.9946 601.159 46.452 601.361 44.895C602.917 46.6395 605.15 48.11 607.758 49.1336C608.939 48.4849 608.205 46.7116 609.717 46.5241C610.495 46.4376 611.144 46.9278 611.85 47.1585C613.276 47.591 614.933 46.9134 615.985 46.1349C617.066 45.3563 618.377 44.6931 619.875 44.4048C621.921 44.7796 624.198 44.5201 625.941 43.7127C626.82 43.3091 627.598 42.7613 628.65 42.5883C630.422 42.3 632.31 43.5253 631.949 44.722C634.557 44.549 636.791 45.9186 638.404 47.3027C640.004 48.6867 641.488 50.287 643.894 50.9646C646.3 51.6422 649.873 50.6474 649.657 48.9029C649.974 49.7535 651.919 49.667 652.885 49.0903C653.85 48.4992 654.412 47.6055 655.55 47.1874C656.818 46.7116 658.475 46.9567 659.642 47.5334C660.824 48.1245 661.616 48.975 662.38 49.8112C665.607 48.7299 669.267 47.8649 672.754 48.4704C674.814 48.8165 677.465 49.5517 678.733 48.4128C679.569 47.6919 679.339 46.4376 680.563 46.0195C681.312 45.7599 682.22 45.9907 683.042 46.1637C685.304 46.625 687.796 46.5386 689.972 45.9186C689.756 47.3892 689.179 48.8453 688.272 50.1861C691.759 51.5269 696.168 51.7432 699.914 50.7772C700.821 50.5465 701.888 50.2581 702.694 50.6186C703.645 51.0367 703.516 52.0315 704.337 52.5649C704.769 52.8389 705.374 52.9253 705.951 52.9974C707.838 53.2569 709.754 53.5164 711.656 53.7759C713.04 53.9633 714.452 54.1507 715.806 53.9489C717.693 53.675 720.028 52.7812 721.238 53.8048C720.964 53.4732 721.454 53.0551 721.987 53.0118C722.549 52.9542 723.082 53.156 723.558 53.3434C724.566 53.7327 725.56 54.122 726.569 54.5112C726.223 53.2569 729.004 52.291 730.33 53.1849C730.056 52.3198 731.886 51.7719 733.125 52.0747C734.378 52.363 735.272 53.0984 736.482 53.4588C738.254 54.0066 740.401 53.675 741.957 52.8821C743.484 52.0891 744.45 50.8925 745.098 49.667C745.401 49.0904 745.718 48.4416 746.539 48.2109C748.398 47.6631 751.034 50.3015 753.037 50.0708C754.651 49.869 756.294 49.667 757.922 49.4652C756.927 47.9802 757.734 46.0628 759.708 45.1257C760.616 44.722 761.769 44.4192 762.143 43.7416C762.705 42.6892 761.005 41.4493 761.869 40.4978C763.512 40.3392 765.227 40.5554 766.653 41.1033C767.518 41.4204 768.296 41.8674 769.232 41.9827C770.053 42.0692 770.875 41.9251 771.667 41.7665C775.226 41.06 778.9 40.3248 781.724 38.7101C783.64 37.6144 785.528 36.0429 788.035 36.2736C789.548 36.4177 790.729 37.225 792.17 37.5566C793.654 37.8882 795.297 37.7009 796.838 37.499C799.634 37.1242 802.429 36.7637 805.239 36.4033C808.077 36.0284 811.117 35.596 813.134 34.2119C813.567 33.9091 813.956 33.5776 814.474 33.3757C816.045 32.7558 817.961 33.491 819.56 34.0821C821.16 34.6733 823.566 34.976 824.445 33.9236C824.675 33.6352 824.762 33.3036 825.021 33.0441C825.857 32.2223 827.759 32.5539 829.084 32.972C829.07 32.3953 829.272 31.8187 829.704 31.3141C831.491 30.8095 832.614 32.9287 834.531 33.0873C835.784 33.1883 836.749 32.4098 837.715 31.8619C839.948 30.5932 843.377 30.3626 845.942 31.3141C845.683 30.0742 845.798 28.8054 846.288 27.6088C848.478 27.9404 849.89 30.1318 852.008 29.6417C854.241 29.1226 853.175 26.614 854.832 25.4895C855.841 24.8119 857.656 24.9128 858.665 25.576C859.702 26.2248 860.005 27.2772 859.716 28.1999C860.941 27.8683 862.238 27.5367 863.52 27.6809C864.831 27.8395 866.042 28.6901 865.696 29.5407C865.336 30.4346 863.52 31.3717 864.558 31.9916C864.961 32.2367 865.609 32.179 866.157 32.0781C867.627 31.8042 868.981 31.2708 870.076 30.5499C870.335 31.588 871.632 32.4674 873.174 32.6404C874.73 32.8279 876.185 32.4674 876.978 31.5447C875.796 31.2563 876.113 29.9588 877.237 29.584C878.332 29.2091 879.672 29.4542 880.882 29.6993C881.07 29.238 881.271 28.7766 881.444 28.3008C883.101 28.2576 884.758 28.2143 886.415 28.1855C886.458 27.5944 886.502 27.0177 886.516 26.4266C888.346 27.1042 890.161 27.7819 891.962 28.4451C892.654 27.3494 893.389 26.2248 894.585 25.3598C895.809 24.4948 897.668 23.918 899.383 24.2208C901.27 24.5379 903.186 25.8067 904.829 25.1003C905.967 24.5957 905.996 23.4134 907.091 22.8655C908.1 22.3465 909.613 22.6205 910.607 23.1395C911.601 23.6729 912.292 24.4226 913.229 24.9993C915.203 26.2248 918.358 26.5276 920.779 25.7346C919.295 25.2012 920.419 23.6153 921.903 23.0963C924.035 22.3466 926.701 22.3033 928.862 22.9954C929.727 23.2837 930.548 23.6585 931.484 23.7739C933.271 23.9757 934.914 23.1252 936.282 22.3178C936.628 23.2405 937.233 24.1055 938.098 24.8696C939.524 24.3073 940.936 23.7306 942.377 23.1683C943.342 26.1671 948.962 27.9836 953.169 26.7582C955.042 26.2103 957.131 27.061 958.788 27.8684C961.886 29.3822 965.013 30.8959 968.11 32.4241C969.58 33.145 971.107 33.8803 972.851 34.1975C974.623 34.5003 976.698 34.3128 977.908 33.4045C978.859 32.698 979.291 31.6024 980.617 31.3141C981.669 31.0834 982.807 31.5159 983.7 31.9916C985.703 33.0729 987.317 34.4859 988.354 36.0573C989.781 35.5239 991.192 34.9904 992.59 34.457C993.109 34.2551 993.685 34.0533 994.276 34.1542C995.875 34.4282 995.357 36.4466 996.941 36.7205C997.907 35.3797 1000.69 35.3076 1002.91 35.4229C1006.31 35.6103 1009.74 35.7978 1013.14 35.9852C1013.5 34.2984 1013.7 32.5972 1013.67 30.9104C1015.77 31.7321 1017.6 32.8567 1019.03 34.1831C1022.04 33.5487 1024.2 31.8042 1026.8 30.622C1029.42 29.4254 1033.45 28.9497 1035.41 30.5932C1035.45 30.0165 1035.51 29.4399 1035.56 28.8632C1038.44 29.9589 1042.49 30.9392 1044.71 29.2957C1045.54 28.6613 1046.02 27.7097 1047.23 27.4935C1048.61 27.2628 1050.22 28.1423 1051.33 27.5656C1051.82 27.3205 1052 26.8592 1052.38 26.542C1053.29 25.7635 1055.12 25.922 1056.48 26.3113C1057.86 26.715 1059.27 27.2628 1060.7 27.0321C1061.87 26.8591 1062.76 26.1959 1063.93 26.0229C1065.76 25.749 1067.37 26.7583 1068.94 27.4503C1072.41 28.9929 1076.79 29.2091 1080.96 29.3677C1083.48 29.4542 1086.09 29.5408 1088.41 28.892C1090.15 28.4019 1091.62 27.5224 1093.42 27.1475C1095.24 26.7871 1097.18 28.1135 1098.43 29.065C1100.18 30.4347 1103.49 29.4831 1105.67 28.4307C1107.81 27.3638 1110.88 26.2536 1112.94 27.407C1113.13 26.3546 1113.33 25.2877 1113.52 24.2353C1115.67 24.5524 1118.04 23.9902 1119.41 22.8368C1119.02 24.5236 1121.67 26.023 1124.24 25.9653C1126.77 25.9076 1128.99 24.7398 1130.56 23.4134C1131.39 24.4514 1131.66 25.6625 1131.39 26.8303C1132.91 26.96 1134.53 26.6717 1135.75 26.0229C1136.76 26.787 1137.44 27.7674 1137.6 28.7766C1140.03 28.892 1142.22 27.1907 1141.73 25.5904C1142.42 25.8932 1143.2 26.2105 1143.96 26.0951C1144.76 25.9942 1145.28 25.2012 1144.61 24.8985C1148.98 27.2917 1155.4 25.2732 1161.04 25.0426C1166.34 24.8263 1171.71 26.3402 1176.9 25.5617C1178.9 25.2589 1180.78 24.6389 1182.82 24.4371C1185.69 24.1488 1188.75 24.7975 1190.85 26.1383C1192.68 27.2916 1194.9 29.1083 1197.09 28.2577C1195.88 26.8592 1196.01 24.9849 1197.4 23.6873C1198.83 22.3754 1201.42 21.6979 1203.77 22.015C1202.48 20.7319 1201.55 19.2613 1201.08 17.7331C1205.1 17.0555 1207.75 21.1356 1211.91 21.2942C1214.05 21.3807 1216.87 20.5877 1217.88 21.842C1218.28 22.361 1218.09 22.9953 1218.44 23.5288C1219.1 24.538 1221.41 24.5812 1222.66 23.8748C1223.93 23.1683 1224.41 22.0295 1224.81 20.9626C1227.65 24.7399 1231.18 28.2865 1235.3 31.5016C1238.01 30.7807 1241.39 31.3862 1243.24 32.9144C1243.84 33.419 1244.32 34.0101 1245.11 34.3416C1245.9 34.6588 1246.88 34.6877 1247.8 34.7021C1251.42 34.7454 1255.04 34.7309 1258.65 34.6733C1258.09 33.6929 1257.62 32.4098 1258.84 31.761C1259.55 31.3862 1260.57 31.4006 1261.46 31.4438C1268.09 31.7754 1274.72 32.3377 1281.29 33.1451C1282.8 33.3181 1284.43 33.5632 1285.53 34.2985C1287.44 33.4335 1289.06 32.6549 1291.19 32.0349C1292.83 31.5592 1294.44 31.0835 1296.07 30.6077C1296.55 30.4779 1297.07 30.3337 1297.56 30.4058C1298.33 30.5067 1298.78 31.0401 1299.13 31.5159C1300.34 33.1595 1302.51 34.9617 1305.18 34.5724C1306.06 34.4427 1306.86 34.0678 1307.76 34.0101C1310.03 33.8659 1311.42 35.6104 1312.17 37.0666C1315.74 36.9656 1319.31 37.0233 1322.89 37.2251C1322.76 39.5751 1323.19 41.9395 1324.11 44.203C1326.55 44.203 1328.87 42.992 1329.5 41.3917C1329.82 40.5411 1329.69 39.6039 1330.12 38.7677C1330.55 37.9315 1331.96 37.1963 1333.16 37.5856C1332.63 36.5043 1332.55 35.3077 1332.99 34.1976C1334.28 35.3509 1336.21 36.1583 1338.33 36.4178C1338.38 34.4859 1338.87 32.1214 1341.56 31.4438C1343.22 31.0113 1345.05 31.4439 1346.83 31.4871C1348.61 31.5448 1350.8 30.8527 1350.64 29.6561C1352.6 29.6994 1353.39 31.689 1355.33 31.862C1356.03 31.9196 1356.69 31.7322 1357.31 31.5592C1359.76 30.8672 1362.22 30.1607 1364.67 29.4687C1364.94 30.8095 1366.72 31.8331 1368.63 32.2224C1370.56 32.6117 1372.64 32.4675 1374.61 32.2945C1377.09 32.0638 1379.71 31.7177 1381.53 30.5644C1381.87 31.9773 1385.1 32.1791 1386.72 31.242C1387.9 30.5355 1389.15 29.3677 1390.59 29.8002C1391.47 30.0597 1391.8 30.8239 1392.64 31.1122C1393.99 31.5736 1395.42 30.6077 1396.25 29.7571C1397.57 28.4307 1398.91 27.5368 1400.22 26.196C1399.99 26.0806 1400.22 25.8067 1400.49 25.7779C1400.79 25.749 1401.07 25.8499 1401.37 25.8644C1402.16 25.8932 1402.68 25.3021 1402.85 24.7831C1403.04 24.2641 1403.08 23.673 1403.67 23.3125C1404.93 23.4856 1405.59 24.8408 1406.8 24.5669C1407.16 24.4804 1407.41 24.2496 1407.62 24.0334C1408.31 23.3558 1408.98 22.6927 1409.67 22.0151C1410.03 21.6546 1410.62 21.2365 1411.27 21.3518C1411.67 21.4383 1411.92 21.7122 1412.1 21.9717C1412.64 22.6493 1413.18 23.327 1413.72 24.0046C1413.8 24.1344 1413.9 24.2497 1414.11 24.293C1414.25 24.3362 1414.42 24.2929 1414.58 24.2641C1415.85 23.8892 1416.09 22.7647 1416.94 22.0439C1418.39 20.8617 1421.57 20.6886 1422.03 19.2037C1422.89 19.9966 1423.73 20.7896 1424.57 21.5826C1425.06 21.0059 1425.43 20.3859 1425.66 19.7515C1426.5 20.8905 1427.45 22.0006 1428.46 23.0675C1428.9 22.635 1429.42 22.2457 1430.01 21.9141C1430.44 22.7936 1430.29 23.8027 1429.61 24.6101C1431.14 24.5668 1432.69 24.6101 1434.22 24.7687C1434 24.9849 1433.69 25.158 1433.31 25.2589C1433.37 25.4463 1433.79 25.4751 1434.06 25.4319C1434.34 25.3742 1434.72 25.331 1434.9 25.4896C1434.98 25.5761 1434.88 25.6626 1434.75 25.6914C1436.73 26.2392 1438.97 26.3546 1441.08 26.0518C1441.08 26.9313 1442 27.6954 1443.12 28.1423C1444.25 28.5748 1445.56 28.7335 1446.83 28.8921C1448.12 29.0363 1449.39 29.1947 1450.66 29.3533C1451.05 29.3966 1451.41 29.4399 1451.74 29.584C1451.97 29.6994 1452.17 29.8868 1452.45 29.93C1453.22 30.0454 1453.8 29.1659 1454.51 29.3822C1454.78 29.4543 1454.94 29.6994 1455.21 29.7715C1455.95 29.9733 1456.47 29.0362 1457.23 29.1227C1457.94 29.2092 1457.96 30.0598 1458.7 30.1319C1459.02 30.1607 1459.3 30.0166 1459.56 29.8724C1460.49 29.3246 1461.35 28.4883 1462.52 28.1999C1463.64 27.9116 1464.71 27.5368 1465.9 27.3782C1467.03 27.2052 1468.21 27.2485 1469.38 27.2341C1478.53 27.1908 1487.59 24.5813 1493.91 20.1696C1499.79 19.2613 1505.41 17.6754 1510.47 15.484C1510.9 14.7343 1511.3 13.9847 1511.74 13.235C1512.57 13.235 1513.44 13.2062 1514.3 13.2062C1515.44 11.4617 1518.39 10.6399 1520.37 9.28466C1522.37 7.92945 1522.72 5.01725 1519.94 4.62799C1524.91 3.53228 1529.65 1.97515 1533.97 -3.2253e-06C1534.37 1.36963 1534.79 2.73933 1535.19 4.09454C1540.28 4.29638 1545.18 6.01201 1548.32 8.6936C1551.16 8.03041 1553.98 7.36722 1556.82 6.71844C1556.42 9.11169 1561.49 10.9571 1564.27 9.40002C1565.06 8.95309 1565.71 8.28992 1566.75 8.14575C1568.58 7.90066 1569.72 9.37118 1570.68 10.438C1572.86 12.8169 1577.38 14.1144 1581.47 13.5233C1580.55 14.8353 1579.63 16.1617 1578.69 17.4736C1583.23 15.7724 1587.99 19.7515 1593.14 20.285C1597.24 20.7031 1601.46 18.454 1601.8 15.7003C1603.45 16.6519 1605.1 17.589 1606.76 18.5261C1607.73 17.589 1608.72 16.6662 1609.71 15.7435C1610.55 16.2626 1611.41 16.7816 1612.25 17.2862C1613.82 15.7003 1618.04 15.8589 1619.31 17.5745C1620.02 18.5116 1619.93 19.7515 1621.12 20.458C1621.9 20.9193 1623 21.0058 1624.04 21.15C1628.06 21.6978 1631.66 23.5 1633.59 25.9365C1634.8 25.2589 1635.99 24.5958 1637.2 23.9182C1638.63 26.2682 1643.39 26.4843 1647.18 26.3834C1650.98 26.2825 1655.79 26.7151 1656.84 29.1516C1663.72 27.6522 1671.7 28.7479 1677.1 31.9485C1682.07 28.0126 1693.76 32.4675 1698.67 28.4884C1699.66 28.892 1700.67 29.2813 1701.67 29.685C1706.29 30.2329 1711.34 28.9064 1714.13 26.3834C1719.04 27.0755 1723.94 27.7531 1728.86 28.4451L1728.86 181L1729 181Z" fill="#0B3048"/>
</svg>
